<svg width="14" height="14" viewBox="0 0 14 14" fill="none" xmlns="http://www.w3.org/2000/svg">
    <path fill-rule="evenodd" clip-rule="evenodd" d="M12.6853 3.0593C12.8634 3.53182 12.9579 4.03172 12.9647 4.53664C13.0018 5.1717 13.002 5.37939 13.0033 6.98693L13.0033 7.00931C13.0033 8.63797 12.9947 8.8413 12.966 9.48264C12.956 9.98197 12.862 10.474 12.6867 10.9406C12.532 11.3391 12.2961 11.701 11.9939 12.0032C11.6917 12.3054 11.3298 12.5414 10.9313 12.696C10.4649 12.871 9.97209 12.9655 9.47399 12.9753C8.83732 13.0126 8.62865 13.0126 7.00065 13.0126C5.37265 13.0126 5.16932 13.004 4.52732 12.9753C4.02823 12.9589 3.53561 12.8574 3.07065 12.6753C2.67203 12.521 2.30997 12.2853 2.00761 11.9832C1.70525 11.681 1.46924 11.3191 1.31465 10.9206C1.13932 10.4533 1.04532 9.96131 1.03532 9.46264C0.997986 8.8253 0.997986 8.6173 0.997986 6.98931C0.997986 5.36131 1.00665 5.15797 1.03532 4.51597C1.04473 4.01805 1.13921 3.52539 1.31465 3.0593C1.46898 2.66068 1.70482 2.29865 2.00707 1.99639C2.30933 1.69413 2.67136 1.4583 3.06999 1.30397C3.53622 1.12895 4.02876 1.03427 4.52665 1.02397C5.16332 0.987305 5.37199 0.987305 6.99999 0.987305C8.62799 0.987305 8.83132 0.995305 9.47265 1.02397C9.97077 1.0342 10.4635 1.12888 10.93 1.30397C11.3286 1.45841 11.6905 1.69428 11.9928 1.99653C12.295 2.29877 12.5309 2.66074 12.6853 3.0593ZM3.91399 6.98597C3.91399 8.68864 5.29332 10.068 6.99599 10.068C7.81338 10.068 8.5973 9.74326 9.17529 9.16527C9.75328 8.58729 10.078 7.80337 10.078 6.98597C10.078 6.16857 9.75328 5.38466 9.17529 4.80667C8.5973 4.22868 7.81338 3.90397 6.99599 3.90397C5.29332 3.90397 3.91399 5.28331 3.91399 6.98597ZM9.48199 3.78997C9.48199 4.1873 9.80265 4.50864 10.2007 4.50864C10.5973 4.50864 10.9187 4.1873 10.9187 3.78997C10.9187 3.69564 10.9001 3.60223 10.864 3.51508C10.8279 3.42793 10.775 3.34874 10.7083 3.28203C10.6416 3.21533 10.5624 3.16242 10.4752 3.12632C10.3881 3.09022 10.2947 3.07164 10.2003 3.07164C10.106 3.07164 10.0126 3.09022 9.92543 3.12632C9.83827 3.16242 9.75909 3.21533 9.69238 3.28203C9.62568 3.34874 9.57277 3.42793 9.53667 3.51508C9.50057 3.60223 9.48199 3.69564 9.48199 3.78997ZM8.99802 6.98601C8.99802 8.09168 8.10169 8.98801 6.99602 8.98801C5.89034 8.98801 4.99402 8.09168 4.99402 6.98601C4.99402 5.88033 5.89034 4.98401 6.99602 4.98401C8.10169 4.98401 8.99802 5.88033 8.99802 6.98601Z" fill="#6E2AFF"/>
</svg>
