<svg width="202" height="60" viewBox="0 0 202 60" fill="none" xmlns="http://www.w3.org/2000/svg">
<rect width="201.898" height="40.9378" rx="5" fill="url(#paint0_linear)"/>
<path fill-rule="evenodd" clip-rule="evenodd" d="M34.4818 19.6743L34.9046 18.403H39.8728L36.8073 27.8319H31.8391L33.0019 23.912H28.0337L25.1796 27.8319H20L30.7821 13H46.2152C46.2681 13 46.3474 13.0265 46.4266 13.053C46.5059 13.0795 46.5852 13.1059 46.6381 13.1059C46.8495 13.2119 46.9552 13.3178 47.0609 13.5297C47.1666 13.7416 47.2723 13.9535 47.2723 14.1654C47.378 14.3772 47.378 14.5891 47.2723 14.801L46.5324 17.2377H35.2217H33.8476H33.0019L31.2049 19.6743H34.4818ZM110.168 18.403L110.273 18.2971L111.965 13H107.102L102.24 27.8319H107.208L108.899 22.5348H113.445L111.648 27.8319H116.616L119.681 18.403H110.168ZM137.334 14.3772C137.334 14.0594 137.229 13.8475 137.017 13.6357C136.806 13.4238 136.7 13.3178 136.489 13.2119C136.277 13 136.066 13 135.854 13H118.413C118.201 13 117.884 13 117.567 13.1059C117.25 13.2119 117.039 13.3178 116.722 13.5297C116.616 13.6886 116.484 13.821 116.352 13.9535L116.351 13.9535L116.351 13.9536L116.351 13.9536C116.219 14.086 116.087 14.2184 115.982 14.3772C115.77 14.6951 115.559 15.0129 115.453 15.3307L114.819 17.2377H119.681H130.675H131.626L129.618 23.4882H124.544L126.235 18.403H121.373L119.047 25.5011C118.941 25.819 118.836 26.2427 118.941 26.4546C118.941 26.7724 119.047 26.9843 119.258 27.1962C119.364 27.4081 119.576 27.514 119.787 27.62C119.893 27.8319 120.104 27.8319 120.421 27.8319H130.992C131.203 27.8319 131.52 27.8319 131.838 27.7259C132.155 27.62 132.366 27.514 132.683 27.3022C133 27.0903 133.212 26.8784 133.423 26.5606C133.635 26.2427 133.846 25.9249 133.952 25.6071L137.229 15.4367C137.334 15.0129 137.44 14.5891 137.334 14.3772ZM179.934 18.2971H172.746L174.437 13H169.575L166.509 22.4288H176.34L175.917 23.5942H159.955L161.964 17.3436H166.192L167.566 13.1059H152.027H147.271H141.668C141.457 13.1059 141.14 13.1059 140.823 13.2119C140.505 13.3178 140.294 13.4238 139.977 13.6357C139.66 13.8475 139.448 14.0594 139.237 14.3772L139.237 14.3773C139.026 14.6951 138.814 15.0129 138.708 15.3307L135.432 25.5011C135.326 25.819 135.22 26.2427 135.326 26.4546C135.326 26.7724 135.432 26.9843 135.643 27.1962C135.749 27.4081 135.96 27.514 136.172 27.62C136.383 27.7259 136.594 27.7259 136.911 27.7259H147.165C147.376 27.7259 147.694 27.7259 148.011 27.62C148.328 27.514 148.539 27.4081 148.856 27.1962C149.173 26.9843 149.385 26.7724 149.596 26.4546C149.808 26.1368 150.019 25.819 150.125 25.5011L151.393 21.5813H146.425L145.791 23.5942H141.034L143.042 17.3436H145.157H145.897H147.799H152.767H156.996L154.353 25.6071C153.93 26.7724 154.882 27.9378 156.044 27.9378H178.454C178.666 27.9378 178.983 27.7259 179.3 27.514C179.617 27.3022 179.828 26.9843 179.934 26.7724L181.52 22.0051C181.52 21.9627 181.553 21.8694 181.601 21.7389C181.672 21.5431 181.773 21.2635 181.837 20.9456C182.154 19.5684 181.203 18.2971 179.934 18.2971ZM102.663 20.7338V21.3694C102.663 21.4503 102.647 21.5158 102.634 21.5717C102.613 21.6622 102.597 21.7277 102.663 21.7932L101.077 26.5606C100.971 26.7724 100.76 27.0903 100.443 27.3022C100.126 27.514 99.8084 27.7259 99.597 27.7259H81.8383C80.6756 27.7259 79.7242 26.5606 80.147 25.3952L81.5212 21.0516L74.6503 27.8319H69.6821L73.0647 17.2377H67.1451L64.291 26.0308C63.9739 27.0903 63.0226 27.8319 61.8598 27.8319H47.8008L48.5408 25.6071C48.7522 25.0774 48.6465 24.5477 48.4351 24.018L47.5894 22.5348H45.0524L43.3611 27.8319H38.4986L41.4584 18.403H46.4266H47.9065H48.8579L50.972 16.602C51.3948 16.2842 51.712 15.7545 51.9234 15.2248L52.6633 13H57.6315L57.2087 14.3772C56.4688 16.4961 55.306 18.1912 53.6147 19.5684L52.2405 20.6278L52.769 21.3694C53.2976 22.0051 53.6147 22.8526 53.7204 23.5942H60.2742L62.2826 17.2377H58.0543L59.4285 13H74.4389H76.0245H79.4071L77.2929 19.5684L84.0582 13H89.0264L85.6438 23.5942H92.1976H94.1003H97.0601L97.4829 22.4288H94.1003H92.6204H87.6522L88.6035 19.3565L88.9207 18.403L90.7177 13H102.24C102.451 13 102.557 13 102.663 13.1059L102.98 13.4238C102.98 13.4676 102.998 13.5115 103.019 13.5629C103.049 13.6357 103.085 13.7234 103.085 13.8475C103.161 13.9999 103.128 14.1523 103.103 14.2653C103.094 14.3094 103.085 14.3475 103.085 14.3772L101.817 18.2971C102.028 18.9327 102.24 19.3565 102.451 19.7803C102.557 20.0981 102.663 20.4159 102.663 20.7338ZM96.743 18.403H96.8487L97.1658 17.2377H96.6372H94.3117L93.9946 18.403H96.743Z" fill="white"/>
<path d="M101.5 50L95.8708 40.25L107.129 40.25L101.5 50Z" fill="#7482F6"/>
<circle cx="101.5" cy="57.5" r="2.5" fill="#7482F6"/>
<defs>
<linearGradient id="paint0_linear" x1="3.19218e-08" y1="19.8592" x2="200.727" y2="5.03549" gradientUnits="userSpaceOnUse">
<stop stop-color="#6E2AFF"/>
<stop offset="1" stop-color="#7ADBEE"/>
</linearGradient>
</defs>
</svg>
