<svg width="12" height="14" viewBox="0 0 12 14" fill="none" xmlns="http://www.w3.org/2000/svg">
    <path d="M6.30319 0.0118131C7.0564 0 7.8053 0.00700037 8.55334 0C8.59866 0.892985 8.91548 1.8026 9.56036 2.43394C10.2039 3.08104 11.1143 3.37724 12 3.47744V5.8265C11.17 5.79893 10.336 5.62392 9.5828 5.26166C9.25476 5.11115 8.94915 4.91732 8.65002 4.71913C8.64614 6.42372 8.65693 8.12612 8.63923 9.82371C8.59434 10.6393 8.32888 11.4509 7.86098 12.1229C7.1082 13.2416 5.80162 13.971 4.45964 13.9937C3.6365 14.0414 2.81422 13.8139 2.1128 13.3948C0.95039 12.7 0.132428 11.4281 0.013295 10.063C-0.0017111 9.77394 -0.00401549 9.4843 0.00638872 9.19499C0.109983 8.08499 0.651694 7.02312 1.49253 6.30077C2.4456 5.45942 3.78067 5.05864 5.0307 5.29578C5.04236 6.15989 5.00826 7.02312 5.00826 7.88723C4.4372 7.69997 3.76988 7.75248 3.2709 8.10381C2.90583 8.34758 2.62995 8.70624 2.48574 9.12455C2.36661 9.42031 2.40071 9.74889 2.40761 10.063C2.54445 11.0203 3.45262 11.8249 4.42209 11.7379C5.0648 11.7309 5.68076 11.3529 6.01571 10.7994C6.12405 10.6056 6.24535 10.4074 6.25182 10.1794C6.30837 9.13593 6.28592 8.09681 6.29283 7.05331C6.29757 4.70163 6.28592 2.3565 6.30362 0.0122507L6.30319 0.0118131Z" fill="#6E2AFF"/>
</svg>
