<svg width="16" height="10" viewBox="0 0 16 10" fill="none" xmlns="http://www.w3.org/2000/svg">
    <path fill-rule="evenodd" clip-rule="evenodd" d="M15.6333 0.965374C15.744 0.601374 15.6333 0.333374 15.1033 0.333374H13.3533C12.908 0.333374 12.7027 0.564707 12.5913 0.820041C12.5913 0.820041 11.7013 2.95071 10.4407 4.33471C10.0327 4.73604 9.84733 4.86338 9.62467 4.86338C9.51333 4.86338 9.346 4.73604 9.346 4.37137V0.965374C9.346 0.528041 9.22333 0.333374 8.85267 0.333374H6.10067C5.82267 0.333374 5.65533 0.536041 5.65533 0.728707C5.65533 1.14271 6.286 1.23871 6.35067 2.40404V4.93604C6.35067 5.49138 6.24867 5.59204 6.026 5.59204C5.43267 5.59204 3.98933 3.45137 3.13267 1.00204C2.96667 0.525374 2.79867 0.333374 2.35133 0.333374H0.6C0.1 0.333374 0 0.564707 0 0.820041C0 1.27471 0.593333 3.53337 2.76333 6.52071C4.21 8.56071 6.24667 9.66671 8.102 9.66671C9.21467 9.66671 9.352 9.42138 9.352 8.99804V7.45604C9.352 6.96471 9.45733 6.86671 9.81 6.86671C10.07 6.86671 10.5147 6.99471 11.5533 7.97804C12.74 9.14404 12.9353 9.66671 13.6033 9.66671H15.3533C15.8533 9.66671 16.104 9.42138 15.96 8.93604C15.8013 8.45338 15.2347 7.75271 14.4833 6.92138C14.0753 6.44804 13.4633 5.93804 13.2773 5.68271C13.018 5.35538 13.092 5.20937 13.2773 4.91804C13.2773 4.91804 15.4107 1.96737 15.6327 0.965374H15.6333Z" fill="#6E2AFF"/>
</svg>
