<svg width="193" height="386" viewBox="0 0 193 386" fill="none" xmlns="http://www.w3.org/2000/svg">
<g opacity="0.3">
<circle cx="10" cy="3" r="3" fill="#BECBDF"/>
<circle cx="30" cy="3" r="3" fill="#BECBDF"/>
<circle cx="50" cy="3" r="3" fill="#BECBDF"/>
<circle cx="70" cy="3" r="3" fill="#BECBDF"/>
<circle cx="90" cy="3" r="3" fill="#BECBDF"/>
<circle cx="110" cy="3" r="3" fill="#BECBDF"/>
<circle cx="130" cy="3" r="3" fill="#BECBDF"/>
<circle cx="150" cy="3" r="3" fill="#BECBDF"/>
<circle cx="170" cy="3" r="3" fill="#BECBDF"/>
<circle cx="190" cy="3" r="3" fill="#BECBDF"/>
<circle cx="10" cy="23" r="3" fill="#BECBDF"/>
<circle cx="30" cy="23" r="3" fill="#BECBDF"/>
<circle cx="50" cy="23" r="3" fill="#BECBDF"/>
<circle cx="70" cy="23" r="3" fill="#BECBDF"/>
<circle cx="90" cy="23" r="3" fill="#BECBDF"/>
<circle cx="110" cy="23" r="3" fill="#BECBDF"/>
<circle cx="130" cy="23" r="3" fill="#BECBDF"/>
<circle cx="150" cy="23" r="3" fill="#BECBDF"/>
<circle cx="170" cy="23" r="3" fill="#BECBDF"/>
<circle cx="190" cy="23" r="3" fill="#BECBDF"/>
<circle cx="10" cy="43" r="3" fill="#BECBDF"/>
<circle cx="30" cy="43" r="3" fill="#BECBDF"/>
<circle cx="50" cy="43" r="3" fill="#BECBDF"/>
<circle cx="70" cy="43" r="3" fill="#BECBDF"/>
<circle cx="90" cy="43" r="3" fill="#BECBDF"/>
<circle cx="110" cy="43" r="3" fill="#BECBDF"/>
<circle cx="130" cy="43" r="3" fill="#BECBDF"/>
<circle cx="150" cy="43" r="3" fill="#BECBDF"/>
<circle cx="170" cy="43" r="3" fill="#BECBDF"/>
<circle cx="190" cy="43" r="3" fill="#BECBDF"/>
<circle cx="10" cy="63" r="3" fill="#BECBDF"/>
<circle cx="30" cy="63" r="3" fill="#BECBDF"/>
<circle cx="50" cy="63" r="3" fill="#BECBDF"/>
<circle cx="70" cy="63" r="3" fill="#BECBDF"/>
<circle cx="90" cy="63" r="3" fill="#BECBDF"/>
<circle cx="110" cy="63" r="3" fill="#BECBDF"/>
<circle cx="130" cy="63" r="3" fill="#BECBDF"/>
<circle cx="150" cy="63" r="3" fill="#BECBDF"/>
<circle cx="170" cy="63" r="3" fill="#BECBDF"/>
<circle cx="190" cy="63" r="3" fill="#BECBDF"/>
<circle cx="10" cy="83" r="3" fill="#BECBDF"/>
<circle cx="30" cy="83" r="3" fill="#BECBDF"/>
<circle cx="50" cy="83" r="3" fill="#BECBDF"/>
<circle cx="70" cy="83" r="3" fill="#BECBDF"/>
<circle cx="90" cy="83" r="3" fill="#BECBDF"/>
<circle cx="110" cy="83" r="3" fill="#BECBDF"/>
<circle cx="130" cy="83" r="3" fill="#BECBDF"/>
<circle cx="150" cy="83" r="3" fill="#BECBDF"/>
<circle cx="170" cy="83" r="3" fill="#BECBDF"/>
<circle cx="190" cy="83" r="3" fill="#BECBDF"/>
<circle cx="10" cy="103" r="3" fill="#BECBDF"/>
<circle cx="30" cy="103" r="3" fill="#BECBDF"/>
<circle cx="50" cy="103" r="3" fill="#BECBDF"/>
<circle cx="70" cy="103" r="3" fill="#BECBDF"/>
<circle cx="90" cy="103" r="3" fill="#BECBDF"/>
<circle cx="110" cy="103" r="3" fill="#BECBDF"/>
<circle cx="130" cy="103" r="3" fill="#BECBDF"/>
<circle cx="150" cy="103" r="3" fill="#BECBDF"/>
<circle cx="170" cy="103" r="3" fill="#BECBDF"/>
<circle cx="190" cy="103" r="3" fill="#BECBDF"/>
<circle cx="10" cy="123" r="3" fill="#BECBDF"/>
<circle cx="30" cy="123" r="3" fill="#BECBDF"/>
<circle cx="50" cy="123" r="3" fill="#BECBDF"/>
<circle cx="70" cy="123" r="3" fill="#BECBDF"/>
<circle cx="90" cy="123" r="3" fill="#BECBDF"/>
<circle cx="110" cy="123" r="3" fill="#BECBDF"/>
<circle cx="130" cy="123" r="3" fill="#BECBDF"/>
<circle cx="150" cy="123" r="3" fill="#BECBDF"/>
<circle cx="170" cy="123" r="3" fill="#BECBDF"/>
<circle cx="190" cy="123" r="3" fill="#BECBDF"/>
<circle cx="10" cy="143" r="3" fill="#BECBDF"/>
<circle cx="30" cy="143" r="3" fill="#BECBDF"/>
<circle cx="50" cy="143" r="3" fill="#BECBDF"/>
<circle cx="70" cy="143" r="3" fill="#BECBDF"/>
<circle cx="90" cy="143" r="3" fill="#BECBDF"/>
<circle cx="110" cy="143" r="3" fill="#BECBDF"/>
<circle cx="130" cy="143" r="3" fill="#BECBDF"/>
<circle cx="150" cy="143" r="3" fill="#BECBDF"/>
<circle cx="170" cy="143" r="3" fill="#BECBDF"/>
<circle cx="190" cy="143" r="3" fill="#BECBDF"/>
<circle cx="10" cy="163" r="3" fill="#BECBDF"/>
<circle cx="30" cy="163" r="3" fill="#BECBDF"/>
<circle cx="50" cy="163" r="3" fill="#BECBDF"/>
<circle cx="70" cy="163" r="3" fill="#BECBDF"/>
<circle cx="90" cy="163" r="3" fill="#BECBDF"/>
<circle cx="110" cy="163" r="3" fill="#BECBDF"/>
<circle cx="130" cy="163" r="3" fill="#BECBDF"/>
<circle cx="150" cy="163" r="3" fill="#BECBDF"/>
<circle cx="170" cy="163" r="3" fill="#BECBDF"/>
<circle cx="190" cy="163" r="3" fill="#BECBDF"/>
<circle cx="10" cy="183" r="3" fill="#BECBDF"/>
<circle cx="30" cy="183" r="3" fill="#BECBDF"/>
<circle cx="50" cy="183" r="3" fill="#BECBDF"/>
<circle cx="70" cy="183" r="3" fill="#BECBDF"/>
<circle cx="90" cy="183" r="3" fill="#BECBDF"/>
<circle cx="110" cy="183" r="3" fill="#BECBDF"/>
<circle cx="130" cy="183" r="3" fill="#BECBDF"/>
<circle cx="150" cy="183" r="3" fill="#BECBDF"/>
<circle cx="170" cy="183" r="3" fill="#BECBDF"/>
<circle cx="190" cy="183" r="3" fill="#BECBDF"/>
<circle cx="10" cy="203" r="3" fill="#BECBDF"/>
<circle cx="30" cy="203" r="3" fill="#BECBDF"/>
<circle cx="50" cy="203" r="3" fill="#BECBDF"/>
<circle cx="70" cy="203" r="3" fill="#BECBDF"/>
<circle cx="90" cy="203" r="3" fill="#BECBDF"/>
<circle cx="110" cy="203" r="3" fill="#BECBDF"/>
<circle cx="130" cy="203" r="3" fill="#BECBDF"/>
<circle cx="150" cy="203" r="3" fill="#BECBDF"/>
<circle cx="170" cy="203" r="3" fill="#BECBDF"/>
<circle cx="190" cy="203" r="3" fill="#BECBDF"/>
<circle cx="10" cy="223" r="3" fill="#BECBDF"/>
<circle cx="30" cy="223" r="3" fill="#BECBDF"/>
<circle cx="50" cy="223" r="3" fill="#BECBDF"/>
<circle cx="70" cy="223" r="3" fill="#BECBDF"/>
<circle cx="90" cy="223" r="3" fill="#BECBDF"/>
<circle cx="110" cy="223" r="3" fill="#BECBDF"/>
<circle cx="130" cy="223" r="3" fill="#BECBDF"/>
<circle cx="150" cy="223" r="3" fill="#BECBDF"/>
<circle cx="170" cy="223" r="3" fill="#BECBDF"/>
<circle cx="190" cy="223" r="3" fill="#BECBDF"/>
<circle cx="10" cy="243" r="3" fill="#BECBDF"/>
<circle cx="30" cy="243" r="3" fill="#BECBDF"/>
<circle cx="50" cy="243" r="3" fill="#BECBDF"/>
<circle cx="70" cy="243" r="3" fill="#BECBDF"/>
<circle cx="90" cy="243" r="3" fill="#BECBDF"/>
<circle cx="110" cy="243" r="3" fill="#BECBDF"/>
<circle cx="130" cy="243" r="3" fill="#BECBDF"/>
<circle cx="150" cy="243" r="3" fill="#BECBDF"/>
<circle cx="170" cy="243" r="3" fill="#BECBDF"/>
<circle cx="190" cy="243" r="3" fill="#BECBDF"/>
<circle cx="10" cy="263" r="3" fill="#BECBDF"/>
<circle cx="30" cy="263" r="3" fill="#BECBDF"/>
<circle cx="50" cy="263" r="3" fill="#BECBDF"/>
<circle cx="70" cy="263" r="3" fill="#BECBDF"/>
<circle cx="90" cy="263" r="3" fill="#BECBDF"/>
<circle cx="110" cy="263" r="3" fill="#BECBDF"/>
<circle cx="130" cy="263" r="3" fill="#BECBDF"/>
<circle cx="150" cy="263" r="3" fill="#BECBDF"/>
<circle cx="170" cy="263" r="3" fill="#BECBDF"/>
<circle cx="190" cy="263" r="3" fill="#BECBDF"/>
<circle cx="10" cy="283" r="3" fill="#BECBDF"/>
<circle cx="30" cy="283" r="3" fill="#BECBDF"/>
<circle cx="50" cy="283" r="3" fill="#BECBDF"/>
<circle cx="70" cy="283" r="3" fill="#BECBDF"/>
<circle cx="90" cy="283" r="3" fill="#BECBDF"/>
<circle cx="110" cy="283" r="3" fill="#BECBDF"/>
<circle cx="130" cy="283" r="3" fill="#BECBDF"/>
<circle cx="150" cy="283" r="3" fill="#BECBDF"/>
<circle cx="170" cy="283" r="3" fill="#BECBDF"/>
<circle cx="190" cy="283" r="3" fill="#BECBDF"/>
<circle cx="10" cy="303" r="3" fill="#BECBDF"/>
<circle cx="30" cy="303" r="3" fill="#BECBDF"/>
<circle cx="50" cy="303" r="3" fill="#BECBDF"/>
<circle cx="70" cy="303" r="3" fill="#BECBDF"/>
<circle cx="90" cy="303" r="3" fill="#BECBDF"/>
<circle cx="110" cy="303" r="3" fill="#BECBDF"/>
<circle cx="130" cy="303" r="3" fill="#BECBDF"/>
<circle cx="150" cy="303" r="3" fill="#BECBDF"/>
<circle cx="170" cy="303" r="3" fill="#BECBDF"/>
<circle cx="190" cy="303" r="3" fill="#BECBDF"/>
<circle cx="10" cy="323" r="3" fill="#BECBDF"/>
<circle cx="30" cy="323" r="3" fill="#BECBDF"/>
<circle cx="50" cy="323" r="3" fill="#BECBDF"/>
<circle cx="70" cy="323" r="3" fill="#BECBDF"/>
<circle cx="90" cy="323" r="3" fill="#BECBDF"/>
<circle cx="110" cy="323" r="3" fill="#BECBDF"/>
<circle cx="130" cy="323" r="3" fill="#BECBDF"/>
<circle cx="150" cy="323" r="3" fill="#BECBDF"/>
<circle cx="170" cy="323" r="3" fill="#BECBDF"/>
<circle cx="190" cy="323" r="3" fill="#BECBDF"/>
<circle cx="10" cy="343" r="3" fill="#BECBDF"/>
<circle cx="30" cy="343" r="3" fill="#BECBDF"/>
<circle cx="50" cy="343" r="3" fill="#BECBDF"/>
<circle cx="70" cy="343" r="3" fill="#BECBDF"/>
<circle cx="90" cy="343" r="3" fill="#BECBDF"/>
<circle cx="110" cy="343" r="3" fill="#BECBDF"/>
<circle cx="130" cy="343" r="3" fill="#BECBDF"/>
<circle cx="150" cy="343" r="3" fill="#BECBDF"/>
<circle cx="170" cy="343" r="3" fill="#BECBDF"/>
<circle cx="190" cy="343" r="3" fill="#BECBDF"/>
<circle cx="10" cy="363" r="3" fill="#BECBDF"/>
<circle cx="30" cy="363" r="3" fill="#BECBDF"/>
<circle cx="50" cy="363" r="3" fill="#BECBDF"/>
<circle cx="70" cy="363" r="3" fill="#BECBDF"/>
<circle cx="90" cy="363" r="3" fill="#BECBDF"/>
<circle cx="110" cy="363" r="3" fill="#BECBDF"/>
<circle cx="130" cy="363" r="3" fill="#BECBDF"/>
<circle cx="150" cy="363" r="3" fill="#BECBDF"/>
<circle cx="170" cy="363" r="3" fill="#BECBDF"/>
<circle cx="190" cy="363" r="3" fill="#BECBDF"/>
<circle cx="10" cy="383" r="3" fill="#BECBDF"/>
<circle cx="30" cy="383" r="3" fill="#BECBDF"/>
<circle cx="50" cy="383" r="3" fill="#BECBDF"/>
<circle cx="70" cy="383" r="3" fill="#BECBDF"/>
<circle cx="90" cy="383" r="3" fill="#BECBDF"/>
<circle cx="110" cy="383" r="3" fill="#BECBDF"/>
<circle cx="130" cy="383" r="3" fill="#BECBDF"/>
<circle cx="150" cy="383" r="3" fill="#BECBDF"/>
<circle cx="170" cy="383" r="3" fill="#BECBDF"/>
<circle cx="190" cy="383" r="3" fill="#BECBDF"/>
</g>
</svg>
