<svg width="168" height="386" viewBox="0 0 168 386" fill="none" xmlns="http://www.w3.org/2000/svg">
<g opacity="0.3">
<circle cx="3" cy="3" r="3" fill="#BECBDF"/>
<circle cx="23" cy="3" r="3" fill="#BECBDF"/>
<circle cx="43" cy="3" r="3" fill="#BECBDF"/>
<circle cx="63" cy="3" r="3" fill="#BECBDF"/>
<circle cx="83" cy="3" r="3" fill="#BECBDF"/>
<circle cx="103" cy="3" r="3" fill="#BECBDF"/>
<circle cx="123" cy="3" r="3" fill="#BECBDF"/>
<circle cx="143" cy="3" r="3" fill="#BECBDF"/>
<circle cx="163" cy="3" r="3" fill="#BECBDF"/>
<circle cx="3" cy="23" r="3" fill="#BECBDF"/>
<circle cx="23" cy="23" r="3" fill="#BECBDF"/>
<circle cx="43" cy="23" r="3" fill="#BECBDF"/>
<circle cx="63" cy="23" r="3" fill="#BECBDF"/>
<circle cx="83" cy="23" r="3" fill="#BECBDF"/>
<circle cx="103" cy="23" r="3" fill="#BECBDF"/>
<circle cx="123" cy="23" r="3" fill="#BECBDF"/>
<circle cx="143" cy="23" r="3" fill="#BECBDF"/>
<circle cx="163" cy="23" r="3" fill="#BECBDF"/>
<circle cx="3" cy="43" r="3" fill="#BECBDF"/>
<circle cx="23" cy="43" r="3" fill="#BECBDF"/>
<circle cx="43" cy="43" r="3" fill="#BECBDF"/>
<circle cx="63" cy="43" r="3" fill="#BECBDF"/>
<circle cx="83" cy="43" r="3" fill="#BECBDF"/>
<circle cx="103" cy="43" r="3" fill="#BECBDF"/>
<circle cx="123" cy="43" r="3" fill="#BECBDF"/>
<circle cx="143" cy="43" r="3" fill="#BECBDF"/>
<circle cx="163" cy="43" r="3" fill="#BECBDF"/>
<circle cx="3" cy="63" r="3" fill="#BECBDF"/>
<circle cx="23" cy="63" r="3" fill="#BECBDF"/>
<circle cx="43" cy="63" r="3" fill="#BECBDF"/>
<circle cx="63" cy="63" r="3" fill="#BECBDF"/>
<circle cx="83" cy="63" r="3" fill="#BECBDF"/>
<circle cx="103" cy="63" r="3" fill="#BECBDF"/>
<circle cx="123" cy="63" r="3" fill="#BECBDF"/>
<circle cx="143" cy="63" r="3" fill="#BECBDF"/>
<circle cx="163" cy="63" r="3" fill="#BECBDF"/>
<circle cx="3" cy="83" r="3" fill="#BECBDF"/>
<circle cx="23" cy="83" r="3" fill="#BECBDF"/>
<circle cx="43" cy="83" r="3" fill="#BECBDF"/>
<circle cx="63" cy="83" r="3" fill="#BECBDF"/>
<circle cx="83" cy="83" r="3" fill="#BECBDF"/>
<circle cx="103" cy="83" r="3" fill="#BECBDF"/>
<circle cx="123" cy="83" r="3" fill="#BECBDF"/>
<circle cx="143" cy="83" r="3" fill="#BECBDF"/>
<circle cx="163" cy="83" r="3" fill="#BECBDF"/>
<circle cx="3" cy="103" r="3" fill="#BECBDF"/>
<circle cx="23" cy="103" r="3" fill="#BECBDF"/>
<circle cx="43" cy="103" r="3" fill="#BECBDF"/>
<circle cx="63" cy="103" r="3" fill="#BECBDF"/>
<circle cx="83" cy="103" r="3" fill="#BECBDF"/>
<circle cx="103" cy="103" r="3" fill="#BECBDF"/>
<circle cx="123" cy="103" r="3" fill="#BECBDF"/>
<circle cx="143" cy="103" r="3" fill="#BECBDF"/>
<circle cx="163" cy="103" r="3" fill="#BECBDF"/>
<circle cx="3" cy="123" r="3" fill="#BECBDF"/>
<circle cx="23" cy="123" r="3" fill="#BECBDF"/>
<circle cx="43" cy="123" r="3" fill="#BECBDF"/>
<circle cx="63" cy="123" r="3" fill="#BECBDF"/>
<circle cx="83" cy="123" r="3" fill="#BECBDF"/>
<circle cx="103" cy="123" r="3" fill="#BECBDF"/>
<circle cx="123" cy="123" r="3" fill="#BECBDF"/>
<circle cx="143" cy="123" r="3" fill="#BECBDF"/>
<circle cx="163" cy="123" r="3" fill="#BECBDF"/>
<circle cx="3" cy="143" r="3" fill="#BECBDF"/>
<circle cx="23" cy="143" r="3" fill="#BECBDF"/>
<circle cx="43" cy="143" r="3" fill="#BECBDF"/>
<circle cx="63" cy="143" r="3" fill="#BECBDF"/>
<circle cx="83" cy="143" r="3" fill="#BECBDF"/>
<circle cx="103" cy="143" r="3" fill="#BECBDF"/>
<circle cx="123" cy="143" r="3" fill="#BECBDF"/>
<circle cx="143" cy="143" r="3" fill="#BECBDF"/>
<circle cx="163" cy="143" r="3" fill="#BECBDF"/>
<circle cx="3" cy="163" r="3" fill="#BECBDF"/>
<circle cx="23" cy="163" r="3" fill="#BECBDF"/>
<circle cx="43" cy="163" r="3" fill="#BECBDF"/>
<circle cx="63" cy="163" r="3" fill="#BECBDF"/>
<circle cx="83" cy="163" r="3" fill="#BECBDF"/>
<circle cx="103" cy="163" r="3" fill="#BECBDF"/>
<circle cx="123" cy="163" r="3" fill="#BECBDF"/>
<circle cx="143" cy="163" r="3" fill="#BECBDF"/>
<circle cx="163" cy="163" r="3" fill="#BECBDF"/>
<circle cx="3" cy="183" r="3" fill="#BECBDF"/>
<circle cx="23" cy="183" r="3" fill="#BECBDF"/>
<circle cx="43" cy="183" r="3" fill="#BECBDF"/>
<circle cx="63" cy="183" r="3" fill="#BECBDF"/>
<circle cx="83" cy="183" r="3" fill="#BECBDF"/>
<circle cx="103" cy="183" r="3" fill="#BECBDF"/>
<circle cx="123" cy="183" r="3" fill="#BECBDF"/>
<circle cx="143" cy="183" r="3" fill="#BECBDF"/>
<circle cx="163" cy="183" r="3" fill="#BECBDF"/>
<circle cx="3" cy="203" r="3" fill="#BECBDF"/>
<circle cx="23" cy="203" r="3" fill="#BECBDF"/>
<circle cx="43" cy="203" r="3" fill="#BECBDF"/>
<circle cx="63" cy="203" r="3" fill="#BECBDF"/>
<circle cx="83" cy="203" r="3" fill="#BECBDF"/>
<circle cx="103" cy="203" r="3" fill="#BECBDF"/>
<circle cx="123" cy="203" r="3" fill="#BECBDF"/>
<circle cx="143" cy="203" r="3" fill="#BECBDF"/>
<circle cx="163" cy="203" r="3" fill="#BECBDF"/>
<circle cx="3" cy="223" r="3" fill="#BECBDF"/>
<circle cx="23" cy="223" r="3" fill="#BECBDF"/>
<circle cx="43" cy="223" r="3" fill="#BECBDF"/>
<circle cx="63" cy="223" r="3" fill="#BECBDF"/>
<circle cx="83" cy="223" r="3" fill="#BECBDF"/>
<circle cx="103" cy="223" r="3" fill="#BECBDF"/>
<circle cx="123" cy="223" r="3" fill="#BECBDF"/>
<circle cx="143" cy="223" r="3" fill="#BECBDF"/>
<circle cx="163" cy="223" r="3" fill="#BECBDF"/>
<circle cx="3" cy="243" r="3" fill="#BECBDF"/>
<circle cx="23" cy="243" r="3" fill="#BECBDF"/>
<circle cx="43" cy="243" r="3" fill="#BECBDF"/>
<circle cx="63" cy="243" r="3" fill="#BECBDF"/>
<circle cx="83" cy="243" r="3" fill="#BECBDF"/>
<circle cx="103" cy="243" r="3" fill="#BECBDF"/>
<circle cx="123" cy="243" r="3" fill="#BECBDF"/>
<circle cx="143" cy="243" r="3" fill="#BECBDF"/>
<circle cx="163" cy="243" r="3" fill="#BECBDF"/>
<circle cx="3" cy="263" r="3" fill="#BECBDF"/>
<circle cx="23" cy="263" r="3" fill="#BECBDF"/>
<circle cx="43" cy="263" r="3" fill="#BECBDF"/>
<circle cx="63" cy="263" r="3" fill="#BECBDF"/>
<circle cx="83" cy="263" r="3" fill="#BECBDF"/>
<circle cx="103" cy="263" r="3" fill="#BECBDF"/>
<circle cx="123" cy="263" r="3" fill="#BECBDF"/>
<circle cx="143" cy="263" r="3" fill="#BECBDF"/>
<circle cx="163" cy="263" r="3" fill="#BECBDF"/>
<circle cx="3" cy="283" r="3" fill="#BECBDF"/>
<circle cx="23" cy="283" r="3" fill="#BECBDF"/>
<circle cx="43" cy="283" r="3" fill="#BECBDF"/>
<circle cx="63" cy="283" r="3" fill="#BECBDF"/>
<circle cx="83" cy="283" r="3" fill="#BECBDF"/>
<circle cx="103" cy="283" r="3" fill="#BECBDF"/>
<circle cx="123" cy="283" r="3" fill="#BECBDF"/>
<circle cx="143" cy="283" r="3" fill="#BECBDF"/>
<circle cx="163" cy="283" r="3" fill="#BECBDF"/>
<circle cx="3" cy="303" r="3" fill="#BECBDF"/>
<circle cx="23" cy="303" r="3" fill="#BECBDF"/>
<circle cx="43" cy="303" r="3" fill="#BECBDF"/>
<circle cx="63" cy="303" r="3" fill="#BECBDF"/>
<circle cx="83" cy="303" r="3" fill="#BECBDF"/>
<circle cx="103" cy="303" r="3" fill="#BECBDF"/>
<circle cx="123" cy="303" r="3" fill="#BECBDF"/>
<circle cx="143" cy="303" r="3" fill="#BECBDF"/>
<circle cx="163" cy="303" r="3" fill="#BECBDF"/>
<circle cx="3" cy="323" r="3" fill="#BECBDF"/>
<circle cx="23" cy="323" r="3" fill="#BECBDF"/>
<circle cx="43" cy="323" r="3" fill="#BECBDF"/>
<circle cx="63" cy="323" r="3" fill="#BECBDF"/>
<circle cx="83" cy="323" r="3" fill="#BECBDF"/>
<circle cx="103" cy="323" r="3" fill="#BECBDF"/>
<circle cx="123" cy="323" r="3" fill="#BECBDF"/>
<circle cx="143" cy="323" r="3" fill="#BECBDF"/>
<circle cx="163" cy="323" r="3" fill="#BECBDF"/>
<circle cx="3" cy="343" r="3" fill="#BECBDF"/>
<circle cx="23" cy="343" r="3" fill="#BECBDF"/>
<circle cx="43" cy="343" r="3" fill="#BECBDF"/>
<circle cx="63" cy="343" r="3" fill="#BECBDF"/>
<circle cx="83" cy="343" r="3" fill="#BECBDF"/>
<circle cx="103" cy="343" r="3" fill="#BECBDF"/>
<circle cx="123" cy="343" r="3" fill="#BECBDF"/>
<circle cx="143" cy="343" r="3" fill="#BECBDF"/>
<circle cx="163" cy="343" r="3" fill="#BECBDF"/>
<circle cx="3" cy="363" r="3" fill="#BECBDF"/>
<circle cx="23" cy="363" r="3" fill="#BECBDF"/>
<circle cx="43" cy="363" r="3" fill="#BECBDF"/>
<circle cx="63" cy="363" r="3" fill="#BECBDF"/>
<circle cx="83" cy="363" r="3" fill="#BECBDF"/>
<circle cx="103" cy="363" r="3" fill="#BECBDF"/>
<circle cx="123" cy="363" r="3" fill="#BECBDF"/>
<circle cx="143" cy="363" r="3" fill="#BECBDF"/>
<circle cx="163" cy="363" r="3" fill="#BECBDF"/>
<circle cx="3" cy="383" r="3" fill="#BECBDF"/>
<circle cx="23" cy="383" r="3" fill="#BECBDF"/>
<circle cx="43" cy="383" r="3" fill="#BECBDF"/>
<circle cx="63" cy="383" r="3" fill="#BECBDF"/>
<circle cx="83" cy="383" r="3" fill="#BECBDF"/>
<circle cx="103" cy="383" r="3" fill="#BECBDF"/>
<circle cx="123" cy="383" r="3" fill="#BECBDF"/>
<circle cx="143" cy="383" r="3" fill="#BECBDF"/>
<circle cx="163" cy="383" r="3" fill="#BECBDF"/>
</g>
</svg>
