<svg width="92" height="16" viewBox="0 0 92 16" fill="none" xmlns="http://www.w3.org/2000/svg">
<path d="M66.8 16C60.3 16 57 12.5 54.1 9.4C51.3 6.5 49 4 44.2 4C39.4 4 37.1 6.5 34.4 9.4C31.5 12.5 28.2 16 21.7 16C15.2 16 11.9 12.5 9 9.4C6.3 6.5 4 4 -0.799999 4C-5.6 4 -8 6.5 -10.7 9.4C-13.6 12.5 -16.9 16 -23.4 16C-29.9 16 -33.2 12.5 -36.1 9.4C-38.9 6.5 -41.2 4 -46 4C-47.1 4 -48 3.1 -48 2C-48 0.9 -47.1 0 -46 0C-39.5 0 -36.2 3.5 -33.3 6.6C-30.6 9.5 -28.3 12 -23.5 12C-18.7 12 -16.4 9.5 -13.7 6.6C-10.7 3.5 -7.4 0 -0.900002 0C5.6 0 8.9 3.5 11.8 6.6C14.5 9.5 16.8 12 21.6 12C26.4 12 28.7 9.5 31.4 6.6C34.4 3.5 37.7 0 44.2 0C50.7 0 54 3.5 57 6.6C59.7 9.5 62 12 66.8 12C71.6 12 73.9 9.5 76.6 6.6C79.5 3.5 82.8 0 89.3 0C90.4 0 91.3 0.9 91.3 2C91.3 3.1 90.4 4 89.3 4C84.5 4 82.2 6.5 79.5 9.4C76.6 12.5 73.3 16 66.8 16Z" fill="url(#paint0_linear)"/>
<defs>
<linearGradient id="paint0_linear" x1="-86.9697" y1="12.7529" x2="254.793" y2="-40.7684" gradientUnits="userSpaceOnUse">
<stop stop-color="#6E2AFF"/>
<stop offset="1" stop-color="#7ADBEE"/>
</linearGradient>
</defs>
</svg>
