<svg width="102" height="14" viewBox="0 0 102 14" fill="none" xmlns="http://www.w3.org/2000/svg">
<g clip-path="url(#clip0)">
<path d="M185 14C179.1 14 176.1 11 173.4 8.4C171 6.1 168.9 4 164.7 4C160.5 4 158.3 6.1 155.9 8.4C153.2 11 150.2 14 144.3 14C138.4 14 135.4 11 132.7 8.4C130.3 6.1 128.3 4 124 4C119.7 4 117.7 6.1 115.2 8.4C112.5 11 109.5 14 103.6 14C97.7 14 94.7 11 92 8.4C89.7 6.1 87.6 4 83.3 4C79 4 77 6.1 74.5 8.4C71.9 11 68.9 14 63 14C57.1 14 54.1 11 51.4 8.4C49 6.1 46.9 4 42.7 4C38.4 4 36.4 6.1 33.9 8.4C31.2 11 28.2 14 22.3 14C16.4 14 13.4 11 10.7 8.4C8.3 6.1 6.3 4 2 4C0.9 4 0 3.1 0 2C0 0.9 0.9 0 2 0C7.9 0 10.9 3 13.6 5.6C16 7.9 18.1 10 22.3 10C26.6 10 28.6 7.9 31.1 5.6C33.8 3 36.8 0 42.7 0C48.6 0 51.6 3 54.3 5.6C56.6 7.9 58.7 10 63 10C67.3 10 69.3 7.9 71.8 5.6C74.4 3 77.4 0 83.3 0C89.2 0 92.2 3 94.9 5.6C97.3 8 99.4 10 103.7 10C108 10 110 7.9 112.5 5.6C115.1 3 118.1 0 124 0C129.9 0 132.9 3 135.6 5.6C138 8 140.1 10 144.4 10C148.7 10 150.7 7.9 153.2 5.6C155.7 3 158.8 0 164.7 0C170.6 0 173.6 3 176.3 5.6C178.7 8 180.8 10 185.1 10C189.4 10 191.5 7.9 193.9 5.6C196.4 3 199.4 0 205.3 0C206.4 0 207.3 0.9 207.3 2C207.3 3.1 206.4 4 205.3 4C201 4 198.9 6.1 196.5 8.4C193.9 11 190.9 14 185 14Z" fill="url(#paint0_linear)"/>
</g>
<defs>
<linearGradient id="paint0_linear" x1="-57.993" y1="11.1588" x2="428.561" y2="-118.432" gradientUnits="userSpaceOnUse">
<stop stop-color="#6E2AFF"/>
<stop offset="1" stop-color="#7ADBEE"/>
</linearGradient>
<clipPath id="clip0">
<rect width="207.3" height="14" fill="white"/>
</clipPath>
</defs>
</svg>
