<svg width="424" height="386" viewBox="0 0 424 386" fill="none" xmlns="http://www.w3.org/2000/svg">
<g opacity="0.3">
<circle cx="3" cy="3" r="3" fill="#BECBDF"/>
<circle cx="23" cy="3" r="3" fill="#BECBDF"/>
<circle cx="43" cy="3" r="3" fill="#BECBDF"/>
<circle cx="63" cy="3" r="3" fill="#BECBDF"/>
<circle cx="83" cy="3" r="3" fill="#BECBDF"/>
<circle cx="103" cy="3" r="3" fill="#BECBDF"/>
<circle cx="123" cy="3" r="3" fill="#BECBDF"/>
<circle cx="143" cy="3" r="3" fill="#BECBDF"/>
<circle cx="163" cy="3" r="3" fill="#BECBDF"/>
<circle cx="183" cy="3" r="3" fill="#BECBDF"/>
<circle cx="203" cy="3" r="3" fill="#BECBDF"/>
<circle cx="223" cy="3" r="3" fill="#BECBDF"/>
<circle cx="243" cy="3" r="3" fill="#BECBDF"/>
<circle cx="263" cy="3" r="3" fill="#BECBDF"/>
<circle cx="283" cy="3" r="3" fill="#BECBDF"/>
<circle cx="303" cy="3" r="3" fill="#BECBDF"/>
<circle cx="323" cy="3" r="3" fill="#BECBDF"/>
<circle cx="343" cy="3" r="3" fill="#BECBDF"/>
<circle cx="363" cy="3" r="3" fill="#BECBDF"/>
<circle cx="383" cy="3" r="3" fill="#BECBDF"/>
<circle cx="403" cy="3" r="3" fill="#BECBDF"/>
<circle cx="423" cy="3" r="3" fill="#BECBDF"/>
<circle cx="3" cy="23" r="3" fill="#BECBDF"/>
<circle cx="23" cy="23" r="3" fill="#BECBDF"/>
<circle cx="43" cy="23" r="3" fill="#BECBDF"/>
<circle cx="63" cy="23" r="3" fill="#BECBDF"/>
<circle cx="83" cy="23" r="3" fill="#BECBDF"/>
<circle cx="103" cy="23" r="3" fill="#BECBDF"/>
<circle cx="123" cy="23" r="3" fill="#BECBDF"/>
<circle cx="143" cy="23" r="3" fill="#BECBDF"/>
<circle cx="163" cy="23" r="3" fill="#BECBDF"/>
<circle cx="183" cy="23" r="3" fill="#BECBDF"/>
<circle cx="203" cy="23" r="3" fill="#BECBDF"/>
<circle cx="223" cy="23" r="3" fill="#BECBDF"/>
<circle cx="243" cy="23" r="3" fill="#BECBDF"/>
<circle cx="263" cy="23" r="3" fill="#BECBDF"/>
<circle cx="283" cy="23" r="3" fill="#BECBDF"/>
<circle cx="303" cy="23" r="3" fill="#BECBDF"/>
<circle cx="323" cy="23" r="3" fill="#BECBDF"/>
<circle cx="343" cy="23" r="3" fill="#BECBDF"/>
<circle cx="363" cy="23" r="3" fill="#BECBDF"/>
<circle cx="383" cy="23" r="3" fill="#BECBDF"/>
<circle cx="403" cy="23" r="3" fill="#BECBDF"/>
<circle cx="423" cy="23" r="3" fill="#BECBDF"/>
<circle cx="3" cy="43" r="3" fill="#BECBDF"/>
<circle cx="23" cy="43" r="3" fill="#BECBDF"/>
<circle cx="43" cy="43" r="3" fill="#BECBDF"/>
<circle cx="63" cy="43" r="3" fill="#BECBDF"/>
<circle cx="83" cy="43" r="3" fill="#BECBDF"/>
<circle cx="103" cy="43" r="3" fill="#BECBDF"/>
<circle cx="123" cy="43" r="3" fill="#BECBDF"/>
<circle cx="143" cy="43" r="3" fill="#BECBDF"/>
<circle cx="163" cy="43" r="3" fill="#BECBDF"/>
<circle cx="183" cy="43" r="3" fill="#BECBDF"/>
<circle cx="203" cy="43" r="3" fill="#BECBDF"/>
<circle cx="223" cy="43" r="3" fill="#BECBDF"/>
<circle cx="243" cy="43" r="3" fill="#BECBDF"/>
<circle cx="263" cy="43" r="3" fill="#BECBDF"/>
<circle cx="283" cy="43" r="3" fill="#BECBDF"/>
<circle cx="303" cy="43" r="3" fill="#BECBDF"/>
<circle cx="323" cy="43" r="3" fill="#BECBDF"/>
<circle cx="343" cy="43" r="3" fill="#BECBDF"/>
<circle cx="363" cy="43" r="3" fill="#BECBDF"/>
<circle cx="383" cy="43" r="3" fill="#BECBDF"/>
<circle cx="403" cy="43" r="3" fill="#BECBDF"/>
<circle cx="423" cy="43" r="3" fill="#BECBDF"/>
<circle cx="3" cy="63" r="3" fill="#BECBDF"/>
<circle cx="23" cy="63" r="3" fill="#BECBDF"/>
<circle cx="43" cy="63" r="3" fill="#BECBDF"/>
<circle cx="63" cy="63" r="3" fill="#BECBDF"/>
<circle cx="83" cy="63" r="3" fill="#BECBDF"/>
<circle cx="103" cy="63" r="3" fill="#BECBDF"/>
<circle cx="123" cy="63" r="3" fill="#BECBDF"/>
<circle cx="143" cy="63" r="3" fill="#BECBDF"/>
<circle cx="163" cy="63" r="3" fill="#BECBDF"/>
<circle cx="183" cy="63" r="3" fill="#BECBDF"/>
<circle cx="203" cy="63" r="3" fill="#BECBDF"/>
<circle cx="223" cy="63" r="3" fill="#BECBDF"/>
<circle cx="243" cy="63" r="3" fill="#BECBDF"/>
<circle cx="263" cy="63" r="3" fill="#BECBDF"/>
<circle cx="283" cy="63" r="3" fill="#BECBDF"/>
<circle cx="303" cy="63" r="3" fill="#BECBDF"/>
<circle cx="323" cy="63" r="3" fill="#BECBDF"/>
<circle cx="343" cy="63" r="3" fill="#BECBDF"/>
<circle cx="363" cy="63" r="3" fill="#BECBDF"/>
<circle cx="383" cy="63" r="3" fill="#BECBDF"/>
<circle cx="403" cy="63" r="3" fill="#BECBDF"/>
<circle cx="423" cy="63" r="3" fill="#BECBDF"/>
<circle cx="3" cy="83" r="3" fill="#BECBDF"/>
<circle cx="23" cy="83" r="3" fill="#BECBDF"/>
<circle cx="43" cy="83" r="3" fill="#BECBDF"/>
<circle cx="63" cy="83" r="3" fill="#BECBDF"/>
<circle cx="83" cy="83" r="3" fill="#BECBDF"/>
<circle cx="103" cy="83" r="3" fill="#BECBDF"/>
<circle cx="123" cy="83" r="3" fill="#BECBDF"/>
<circle cx="143" cy="83" r="3" fill="#BECBDF"/>
<circle cx="163" cy="83" r="3" fill="#BECBDF"/>
<circle cx="183" cy="83" r="3" fill="#BECBDF"/>
<circle cx="203" cy="83" r="3" fill="#BECBDF"/>
<circle cx="223" cy="83" r="3" fill="#BECBDF"/>
<circle cx="243" cy="83" r="3" fill="#BECBDF"/>
<circle cx="263" cy="83" r="3" fill="#BECBDF"/>
<circle cx="283" cy="83" r="3" fill="#BECBDF"/>
<circle cx="303" cy="83" r="3" fill="#BECBDF"/>
<circle cx="323" cy="83" r="3" fill="#BECBDF"/>
<circle cx="343" cy="83" r="3" fill="#BECBDF"/>
<circle cx="363" cy="83" r="3" fill="#BECBDF"/>
<circle cx="383" cy="83" r="3" fill="#BECBDF"/>
<circle cx="403" cy="83" r="3" fill="#BECBDF"/>
<circle cx="423" cy="83" r="3" fill="#BECBDF"/>
<circle cx="3" cy="103" r="3" fill="#BECBDF"/>
<circle cx="23" cy="103" r="3" fill="#BECBDF"/>
<circle cx="43" cy="103" r="3" fill="#BECBDF"/>
<circle cx="63" cy="103" r="3" fill="#BECBDF"/>
<circle cx="83" cy="103" r="3" fill="#BECBDF"/>
<circle cx="103" cy="103" r="3" fill="#BECBDF"/>
<circle cx="123" cy="103" r="3" fill="#BECBDF"/>
<circle cx="143" cy="103" r="3" fill="#BECBDF"/>
<circle cx="163" cy="103" r="3" fill="#BECBDF"/>
<circle cx="183" cy="103" r="3" fill="#BECBDF"/>
<circle cx="203" cy="103" r="3" fill="#BECBDF"/>
<circle cx="223" cy="103" r="3" fill="#BECBDF"/>
<circle cx="243" cy="103" r="3" fill="#BECBDF"/>
<circle cx="263" cy="103" r="3" fill="#BECBDF"/>
<circle cx="283" cy="103" r="3" fill="#BECBDF"/>
<circle cx="303" cy="103" r="3" fill="#BECBDF"/>
<circle cx="323" cy="103" r="3" fill="#BECBDF"/>
<circle cx="343" cy="103" r="3" fill="#BECBDF"/>
<circle cx="363" cy="103" r="3" fill="#BECBDF"/>
<circle cx="383" cy="103" r="3" fill="#BECBDF"/>
<circle cx="403" cy="103" r="3" fill="#BECBDF"/>
<circle cx="423" cy="103" r="3" fill="#BECBDF"/>
<circle cx="3" cy="123" r="3" fill="#BECBDF"/>
<circle cx="23" cy="123" r="3" fill="#BECBDF"/>
<circle cx="43" cy="123" r="3" fill="#BECBDF"/>
<circle cx="63" cy="123" r="3" fill="#BECBDF"/>
<circle cx="83" cy="123" r="3" fill="#BECBDF"/>
<circle cx="103" cy="123" r="3" fill="#BECBDF"/>
<circle cx="123" cy="123" r="3" fill="#BECBDF"/>
<circle cx="143" cy="123" r="3" fill="#BECBDF"/>
<circle cx="163" cy="123" r="3" fill="#BECBDF"/>
<circle cx="183" cy="123" r="3" fill="#BECBDF"/>
<circle cx="203" cy="123" r="3" fill="#BECBDF"/>
<circle cx="223" cy="123" r="3" fill="#BECBDF"/>
<circle cx="243" cy="123" r="3" fill="#BECBDF"/>
<circle cx="263" cy="123" r="3" fill="#BECBDF"/>
<circle cx="283" cy="123" r="3" fill="#BECBDF"/>
<circle cx="303" cy="123" r="3" fill="#BECBDF"/>
<circle cx="323" cy="123" r="3" fill="#BECBDF"/>
<circle cx="343" cy="123" r="3" fill="#BECBDF"/>
<circle cx="363" cy="123" r="3" fill="#BECBDF"/>
<circle cx="383" cy="123" r="3" fill="#BECBDF"/>
<circle cx="403" cy="123" r="3" fill="#BECBDF"/>
<circle cx="423" cy="123" r="3" fill="#BECBDF"/>
<circle cx="3" cy="143" r="3" fill="#BECBDF"/>
<circle cx="23" cy="143" r="3" fill="#BECBDF"/>
<circle cx="43" cy="143" r="3" fill="#BECBDF"/>
<circle cx="63" cy="143" r="3" fill="#BECBDF"/>
<circle cx="83" cy="143" r="3" fill="#BECBDF"/>
<circle cx="103" cy="143" r="3" fill="#BECBDF"/>
<circle cx="123" cy="143" r="3" fill="#BECBDF"/>
<circle cx="143" cy="143" r="3" fill="#BECBDF"/>
<circle cx="163" cy="143" r="3" fill="#BECBDF"/>
<circle cx="183" cy="143" r="3" fill="#BECBDF"/>
<circle cx="203" cy="143" r="3" fill="#BECBDF"/>
<circle cx="223" cy="143" r="3" fill="#BECBDF"/>
<circle cx="243" cy="143" r="3" fill="#BECBDF"/>
<circle cx="263" cy="143" r="3" fill="#BECBDF"/>
<circle cx="283" cy="143" r="3" fill="#BECBDF"/>
<circle cx="303" cy="143" r="3" fill="#BECBDF"/>
<circle cx="323" cy="143" r="3" fill="#BECBDF"/>
<circle cx="343" cy="143" r="3" fill="#BECBDF"/>
<circle cx="363" cy="143" r="3" fill="#BECBDF"/>
<circle cx="383" cy="143" r="3" fill="#BECBDF"/>
<circle cx="403" cy="143" r="3" fill="#BECBDF"/>
<circle cx="423" cy="143" r="3" fill="#BECBDF"/>
<circle cx="3" cy="163" r="3" fill="#BECBDF"/>
<circle cx="23" cy="163" r="3" fill="#BECBDF"/>
<circle cx="43" cy="163" r="3" fill="#BECBDF"/>
<circle cx="63" cy="163" r="3" fill="#BECBDF"/>
<circle cx="83" cy="163" r="3" fill="#BECBDF"/>
<circle cx="103" cy="163" r="3" fill="#BECBDF"/>
<circle cx="123" cy="163" r="3" fill="#BECBDF"/>
<circle cx="143" cy="163" r="3" fill="#BECBDF"/>
<circle cx="163" cy="163" r="3" fill="#BECBDF"/>
<circle cx="183" cy="163" r="3" fill="#BECBDF"/>
<circle cx="203" cy="163" r="3" fill="#BECBDF"/>
<circle cx="223" cy="163" r="3" fill="#BECBDF"/>
<circle cx="243" cy="163" r="3" fill="#BECBDF"/>
<circle cx="263" cy="163" r="3" fill="#BECBDF"/>
<circle cx="283" cy="163" r="3" fill="#BECBDF"/>
<circle cx="303" cy="163" r="3" fill="#BECBDF"/>
<circle cx="323" cy="163" r="3" fill="#BECBDF"/>
<circle cx="343" cy="163" r="3" fill="#BECBDF"/>
<circle cx="363" cy="163" r="3" fill="#BECBDF"/>
<circle cx="383" cy="163" r="3" fill="#BECBDF"/>
<circle cx="403" cy="163" r="3" fill="#BECBDF"/>
<circle cx="423" cy="163" r="3" fill="#BECBDF"/>
<circle cx="3" cy="183" r="3" fill="#BECBDF"/>
<circle cx="23" cy="183" r="3" fill="#BECBDF"/>
<circle cx="43" cy="183" r="3" fill="#BECBDF"/>
<circle cx="63" cy="183" r="3" fill="#BECBDF"/>
<circle cx="83" cy="183" r="3" fill="#BECBDF"/>
<circle cx="103" cy="183" r="3" fill="#BECBDF"/>
<circle cx="123" cy="183" r="3" fill="#BECBDF"/>
<circle cx="143" cy="183" r="3" fill="#BECBDF"/>
<circle cx="163" cy="183" r="3" fill="#BECBDF"/>
<circle cx="183" cy="183" r="3" fill="#BECBDF"/>
<circle cx="203" cy="183" r="3" fill="#BECBDF"/>
<circle cx="223" cy="183" r="3" fill="#BECBDF"/>
<circle cx="243" cy="183" r="3" fill="#BECBDF"/>
<circle cx="263" cy="183" r="3" fill="#BECBDF"/>
<circle cx="283" cy="183" r="3" fill="#BECBDF"/>
<circle cx="303" cy="183" r="3" fill="#BECBDF"/>
<circle cx="323" cy="183" r="3" fill="#BECBDF"/>
<circle cx="343" cy="183" r="3" fill="#BECBDF"/>
<circle cx="363" cy="183" r="3" fill="#BECBDF"/>
<circle cx="383" cy="183" r="3" fill="#BECBDF"/>
<circle cx="403" cy="183" r="3" fill="#BECBDF"/>
<circle cx="423" cy="183" r="3" fill="#BECBDF"/>
<circle cx="3" cy="203" r="3" fill="#BECBDF"/>
<circle cx="23" cy="203" r="3" fill="#BECBDF"/>
<circle cx="43" cy="203" r="3" fill="#BECBDF"/>
<circle cx="63" cy="203" r="3" fill="#BECBDF"/>
<circle cx="83" cy="203" r="3" fill="#BECBDF"/>
<circle cx="103" cy="203" r="3" fill="#BECBDF"/>
<circle cx="123" cy="203" r="3" fill="#BECBDF"/>
<circle cx="143" cy="203" r="3" fill="#BECBDF"/>
<circle cx="163" cy="203" r="3" fill="#BECBDF"/>
<circle cx="183" cy="203" r="3" fill="#BECBDF"/>
<circle cx="203" cy="203" r="3" fill="#BECBDF"/>
<circle cx="223" cy="203" r="3" fill="#BECBDF"/>
<circle cx="243" cy="203" r="3" fill="#BECBDF"/>
<circle cx="263" cy="203" r="3" fill="#BECBDF"/>
<circle cx="283" cy="203" r="3" fill="#BECBDF"/>
<circle cx="303" cy="203" r="3" fill="#BECBDF"/>
<circle cx="323" cy="203" r="3" fill="#BECBDF"/>
<circle cx="343" cy="203" r="3" fill="#BECBDF"/>
<circle cx="363" cy="203" r="3" fill="#BECBDF"/>
<circle cx="383" cy="203" r="3" fill="#BECBDF"/>
<circle cx="403" cy="203" r="3" fill="#BECBDF"/>
<circle cx="423" cy="203" r="3" fill="#BECBDF"/>
<circle cx="3" cy="223" r="3" fill="#BECBDF"/>
<circle cx="23" cy="223" r="3" fill="#BECBDF"/>
<circle cx="43" cy="223" r="3" fill="#BECBDF"/>
<circle cx="63" cy="223" r="3" fill="#BECBDF"/>
<circle cx="83" cy="223" r="3" fill="#BECBDF"/>
<circle cx="103" cy="223" r="3" fill="#BECBDF"/>
<circle cx="123" cy="223" r="3" fill="#BECBDF"/>
<circle cx="143" cy="223" r="3" fill="#BECBDF"/>
<circle cx="163" cy="223" r="3" fill="#BECBDF"/>
<circle cx="183" cy="223" r="3" fill="#BECBDF"/>
<circle cx="203" cy="223" r="3" fill="#BECBDF"/>
<circle cx="223" cy="223" r="3" fill="#BECBDF"/>
<circle cx="243" cy="223" r="3" fill="#BECBDF"/>
<circle cx="263" cy="223" r="3" fill="#BECBDF"/>
<circle cx="283" cy="223" r="3" fill="#BECBDF"/>
<circle cx="303" cy="223" r="3" fill="#BECBDF"/>
<circle cx="323" cy="223" r="3" fill="#BECBDF"/>
<circle cx="343" cy="223" r="3" fill="#BECBDF"/>
<circle cx="363" cy="223" r="3" fill="#BECBDF"/>
<circle cx="383" cy="223" r="3" fill="#BECBDF"/>
<circle cx="403" cy="223" r="3" fill="#BECBDF"/>
<circle cx="423" cy="223" r="3" fill="#BECBDF"/>
<circle cx="3" cy="243" r="3" fill="#BECBDF"/>
<circle cx="23" cy="243" r="3" fill="#BECBDF"/>
<circle cx="43" cy="243" r="3" fill="#BECBDF"/>
<circle cx="63" cy="243" r="3" fill="#BECBDF"/>
<circle cx="83" cy="243" r="3" fill="#BECBDF"/>
<circle cx="103" cy="243" r="3" fill="#BECBDF"/>
<circle cx="123" cy="243" r="3" fill="#BECBDF"/>
<circle cx="143" cy="243" r="3" fill="#BECBDF"/>
<circle cx="163" cy="243" r="3" fill="#BECBDF"/>
<circle cx="183" cy="243" r="3" fill="#BECBDF"/>
<circle cx="203" cy="243" r="3" fill="#BECBDF"/>
<circle cx="223" cy="243" r="3" fill="#BECBDF"/>
<circle cx="243" cy="243" r="3" fill="#BECBDF"/>
<circle cx="263" cy="243" r="3" fill="#BECBDF"/>
<circle cx="283" cy="243" r="3" fill="#BECBDF"/>
<circle cx="303" cy="243" r="3" fill="#BECBDF"/>
<circle cx="323" cy="243" r="3" fill="#BECBDF"/>
<circle cx="343" cy="243" r="3" fill="#BECBDF"/>
<circle cx="363" cy="243" r="3" fill="#BECBDF"/>
<circle cx="383" cy="243" r="3" fill="#BECBDF"/>
<circle cx="403" cy="243" r="3" fill="#BECBDF"/>
<circle cx="423" cy="243" r="3" fill="#BECBDF"/>
<circle cx="3" cy="263" r="3" fill="#BECBDF"/>
<circle cx="23" cy="263" r="3" fill="#BECBDF"/>
<circle cx="43" cy="263" r="3" fill="#BECBDF"/>
<circle cx="63" cy="263" r="3" fill="#BECBDF"/>
<circle cx="83" cy="263" r="3" fill="#BECBDF"/>
<circle cx="103" cy="263" r="3" fill="#BECBDF"/>
<circle cx="123" cy="263" r="3" fill="#BECBDF"/>
<circle cx="143" cy="263" r="3" fill="#BECBDF"/>
<circle cx="163" cy="263" r="3" fill="#BECBDF"/>
<circle cx="183" cy="263" r="3" fill="#BECBDF"/>
<circle cx="203" cy="263" r="3" fill="#BECBDF"/>
<circle cx="223" cy="263" r="3" fill="#BECBDF"/>
<circle cx="243" cy="263" r="3" fill="#BECBDF"/>
<circle cx="263" cy="263" r="3" fill="#BECBDF"/>
<circle cx="283" cy="263" r="3" fill="#BECBDF"/>
<circle cx="303" cy="263" r="3" fill="#BECBDF"/>
<circle cx="323" cy="263" r="3" fill="#BECBDF"/>
<circle cx="343" cy="263" r="3" fill="#BECBDF"/>
<circle cx="363" cy="263" r="3" fill="#BECBDF"/>
<circle cx="383" cy="263" r="3" fill="#BECBDF"/>
<circle cx="403" cy="263" r="3" fill="#BECBDF"/>
<circle cx="423" cy="263" r="3" fill="#BECBDF"/>
<circle cx="3" cy="283" r="3" fill="#BECBDF"/>
<circle cx="23" cy="283" r="3" fill="#BECBDF"/>
<circle cx="43" cy="283" r="3" fill="#BECBDF"/>
<circle cx="63" cy="283" r="3" fill="#BECBDF"/>
<circle cx="83" cy="283" r="3" fill="#BECBDF"/>
<circle cx="103" cy="283" r="3" fill="#BECBDF"/>
<circle cx="123" cy="283" r="3" fill="#BECBDF"/>
<circle cx="143" cy="283" r="3" fill="#BECBDF"/>
<circle cx="163" cy="283" r="3" fill="#BECBDF"/>
<circle cx="183" cy="283" r="3" fill="#BECBDF"/>
<circle cx="203" cy="283" r="3" fill="#BECBDF"/>
<circle cx="223" cy="283" r="3" fill="#BECBDF"/>
<circle cx="243" cy="283" r="3" fill="#BECBDF"/>
<circle cx="263" cy="283" r="3" fill="#BECBDF"/>
<circle cx="283" cy="283" r="3" fill="#BECBDF"/>
<circle cx="303" cy="283" r="3" fill="#BECBDF"/>
<circle cx="323" cy="283" r="3" fill="#BECBDF"/>
<circle cx="343" cy="283" r="3" fill="#BECBDF"/>
<circle cx="363" cy="283" r="3" fill="#BECBDF"/>
<circle cx="383" cy="283" r="3" fill="#BECBDF"/>
<circle cx="403" cy="283" r="3" fill="#BECBDF"/>
<circle cx="423" cy="283" r="3" fill="#BECBDF"/>
<circle cx="3" cy="303" r="3" fill="#BECBDF"/>
<circle cx="23" cy="303" r="3" fill="#BECBDF"/>
<circle cx="43" cy="303" r="3" fill="#BECBDF"/>
<circle cx="63" cy="303" r="3" fill="#BECBDF"/>
<circle cx="83" cy="303" r="3" fill="#BECBDF"/>
<circle cx="103" cy="303" r="3" fill="#BECBDF"/>
<circle cx="123" cy="303" r="3" fill="#BECBDF"/>
<circle cx="143" cy="303" r="3" fill="#BECBDF"/>
<circle cx="163" cy="303" r="3" fill="#BECBDF"/>
<circle cx="183" cy="303" r="3" fill="#BECBDF"/>
<circle cx="203" cy="303" r="3" fill="#BECBDF"/>
<circle cx="223" cy="303" r="3" fill="#BECBDF"/>
<circle cx="243" cy="303" r="3" fill="#BECBDF"/>
<circle cx="263" cy="303" r="3" fill="#BECBDF"/>
<circle cx="283" cy="303" r="3" fill="#BECBDF"/>
<circle cx="303" cy="303" r="3" fill="#BECBDF"/>
<circle cx="323" cy="303" r="3" fill="#BECBDF"/>
<circle cx="343" cy="303" r="3" fill="#BECBDF"/>
<circle cx="363" cy="303" r="3" fill="#BECBDF"/>
<circle cx="383" cy="303" r="3" fill="#BECBDF"/>
<circle cx="403" cy="303" r="3" fill="#BECBDF"/>
<circle cx="423" cy="303" r="3" fill="#BECBDF"/>
<circle cx="3" cy="323" r="3" fill="#BECBDF"/>
<circle cx="23" cy="323" r="3" fill="#BECBDF"/>
<circle cx="43" cy="323" r="3" fill="#BECBDF"/>
<circle cx="63" cy="323" r="3" fill="#BECBDF"/>
<circle cx="83" cy="323" r="3" fill="#BECBDF"/>
<circle cx="103" cy="323" r="3" fill="#BECBDF"/>
<circle cx="123" cy="323" r="3" fill="#BECBDF"/>
<circle cx="143" cy="323" r="3" fill="#BECBDF"/>
<circle cx="163" cy="323" r="3" fill="#BECBDF"/>
<circle cx="183" cy="323" r="3" fill="#BECBDF"/>
<circle cx="203" cy="323" r="3" fill="#BECBDF"/>
<circle cx="223" cy="323" r="3" fill="#BECBDF"/>
<circle cx="243" cy="323" r="3" fill="#BECBDF"/>
<circle cx="263" cy="323" r="3" fill="#BECBDF"/>
<circle cx="283" cy="323" r="3" fill="#BECBDF"/>
<circle cx="303" cy="323" r="3" fill="#BECBDF"/>
<circle cx="323" cy="323" r="3" fill="#BECBDF"/>
<circle cx="343" cy="323" r="3" fill="#BECBDF"/>
<circle cx="363" cy="323" r="3" fill="#BECBDF"/>
<circle cx="383" cy="323" r="3" fill="#BECBDF"/>
<circle cx="403" cy="323" r="3" fill="#BECBDF"/>
<circle cx="423" cy="323" r="3" fill="#BECBDF"/>
<circle cx="3" cy="343" r="3" fill="#BECBDF"/>
<circle cx="23" cy="343" r="3" fill="#BECBDF"/>
<circle cx="43" cy="343" r="3" fill="#BECBDF"/>
<circle cx="63" cy="343" r="3" fill="#BECBDF"/>
<circle cx="83" cy="343" r="3" fill="#BECBDF"/>
<circle cx="103" cy="343" r="3" fill="#BECBDF"/>
<circle cx="123" cy="343" r="3" fill="#BECBDF"/>
<circle cx="143" cy="343" r="3" fill="#BECBDF"/>
<circle cx="163" cy="343" r="3" fill="#BECBDF"/>
<circle cx="183" cy="343" r="3" fill="#BECBDF"/>
<circle cx="203" cy="343" r="3" fill="#BECBDF"/>
<circle cx="223" cy="343" r="3" fill="#BECBDF"/>
<circle cx="243" cy="343" r="3" fill="#BECBDF"/>
<circle cx="263" cy="343" r="3" fill="#BECBDF"/>
<circle cx="283" cy="343" r="3" fill="#BECBDF"/>
<circle cx="303" cy="343" r="3" fill="#BECBDF"/>
<circle cx="323" cy="343" r="3" fill="#BECBDF"/>
<circle cx="343" cy="343" r="3" fill="#BECBDF"/>
<circle cx="363" cy="343" r="3" fill="#BECBDF"/>
<circle cx="383" cy="343" r="3" fill="#BECBDF"/>
<circle cx="403" cy="343" r="3" fill="#BECBDF"/>
<circle cx="423" cy="343" r="3" fill="#BECBDF"/>
<circle cx="3" cy="363" r="3" fill="#BECBDF"/>
<circle cx="23" cy="363" r="3" fill="#BECBDF"/>
<circle cx="43" cy="363" r="3" fill="#BECBDF"/>
<circle cx="63" cy="363" r="3" fill="#BECBDF"/>
<circle cx="83" cy="363" r="3" fill="#BECBDF"/>
<circle cx="103" cy="363" r="3" fill="#BECBDF"/>
<circle cx="123" cy="363" r="3" fill="#BECBDF"/>
<circle cx="143" cy="363" r="3" fill="#BECBDF"/>
<circle cx="163" cy="363" r="3" fill="#BECBDF"/>
<circle cx="183" cy="363" r="3" fill="#BECBDF"/>
<circle cx="203" cy="363" r="3" fill="#BECBDF"/>
<circle cx="223" cy="363" r="3" fill="#BECBDF"/>
<circle cx="243" cy="363" r="3" fill="#BECBDF"/>
<circle cx="263" cy="363" r="3" fill="#BECBDF"/>
<circle cx="283" cy="363" r="3" fill="#BECBDF"/>
<circle cx="303" cy="363" r="3" fill="#BECBDF"/>
<circle cx="323" cy="363" r="3" fill="#BECBDF"/>
<circle cx="343" cy="363" r="3" fill="#BECBDF"/>
<circle cx="363" cy="363" r="3" fill="#BECBDF"/>
<circle cx="383" cy="363" r="3" fill="#BECBDF"/>
<circle cx="403" cy="363" r="3" fill="#BECBDF"/>
<circle cx="423" cy="363" r="3" fill="#BECBDF"/>
<circle cx="3" cy="383" r="3" fill="#BECBDF"/>
<circle cx="23" cy="383" r="3" fill="#BECBDF"/>
<circle cx="43" cy="383" r="3" fill="#BECBDF"/>
<circle cx="63" cy="383" r="3" fill="#BECBDF"/>
<circle cx="83" cy="383" r="3" fill="#BECBDF"/>
<circle cx="103" cy="383" r="3" fill="#BECBDF"/>
<circle cx="123" cy="383" r="3" fill="#BECBDF"/>
<circle cx="143" cy="383" r="3" fill="#BECBDF"/>
<circle cx="163" cy="383" r="3" fill="#BECBDF"/>
<circle cx="183" cy="383" r="3" fill="#BECBDF"/>
<circle cx="203" cy="383" r="3" fill="#BECBDF"/>
<circle cx="223" cy="383" r="3" fill="#BECBDF"/>
<circle cx="243" cy="383" r="3" fill="#BECBDF"/>
<circle cx="263" cy="383" r="3" fill="#BECBDF"/>
<circle cx="283" cy="383" r="3" fill="#BECBDF"/>
<circle cx="303" cy="383" r="3" fill="#BECBDF"/>
<circle cx="323" cy="383" r="3" fill="#BECBDF"/>
<circle cx="343" cy="383" r="3" fill="#BECBDF"/>
<circle cx="363" cy="383" r="3" fill="#BECBDF"/>
<circle cx="383" cy="383" r="3" fill="#BECBDF"/>
<circle cx="403" cy="383" r="3" fill="#BECBDF"/>
<circle cx="423" cy="383" r="3" fill="#BECBDF"/>
</g>
</svg>
