<svg width="88" height="16" viewBox="0 0 88 16" fill="none" xmlns="http://www.w3.org/2000/svg">
<g clip-path="url(#clip0)">
<path d="M62.8 16C56.3 16 53 12.5 50.1 9.4C47.3 6.5 45 4 40.2 4C35.4 4 33.1 6.5 30.4 9.4C27.5 12.5 24.2 16 17.7 16C11.2 16 7.9 12.5 5 9.4C2.3 6.5 0 4 -4.8 4C-9.6 4 -12 6.5 -14.7 9.4C-17.6 12.5 -20.9 16 -27.4 16C-33.9 16 -37.2 12.5 -40.1 9.4C-42.9 6.5 -45.2 4 -50 4C-51.1 4 -52 3.1 -52 2C-52 0.9 -51.1 0 -50 0C-43.5 0 -40.2 3.5 -37.3 6.6C-34.6 9.5 -32.3 12 -27.5 12C-22.7 12 -20.4 9.5 -17.7 6.6C-14.7 3.5 -11.4 0 -4.9 0C1.6 0 4.9 3.5 7.8 6.6C10.5 9.5 12.8 12 17.6 12C22.4 12 24.7 9.5 27.4 6.6C30.4 3.5 33.7 0 40.2 0C46.7 0 50 3.5 53 6.6C55.7 9.5 58 12 62.8 12C67.6 12 69.9 9.5 72.6 6.6C75.5 3.5 78.8 0 85.3 0C86.4 0 87.3 0.9 87.3 2C87.3 3.1 86.4 4 85.3 4C80.5 4 78.2 6.5 75.5 9.4C72.6 12.5 69.3 16 62.8 16Z" fill="url(#paint0_linear)"/>
</g>
<defs>
<linearGradient id="paint0_linear" x1="-90.9697" y1="12.7529" x2="250.793" y2="-40.7684" gradientUnits="userSpaceOnUse">
<stop stop-color="#6E2AFF"/>
<stop offset="1" stop-color="#7ADBEE"/>
</linearGradient>
<clipPath id="clip0">
<rect width="139.3" height="16" fill="white" transform="translate(-52)"/>
</clipPath>
</defs>
</svg>
