<svg width="233" height="45" viewBox="0 0 233 45" fill="none" xmlns="http://www.w3.org/2000/svg">
<g clip-path="url(#clip0)">
<path d="M206.576 0V6.79688H205.485V6.32812C205.242 6.5625 205.121 6.67969 204.758 6.79688C204.515 6.91406 204.152 6.91406 203.788 6.91406C203.303 6.91406 202.939 6.79688 202.576 6.5625C202.212 6.32812 201.97 6.09375 201.727 5.74219C201.485 5.39062 201.364 4.92188 201.364 4.45312C201.364 3.98438 201.485 3.51562 201.727 3.16406C201.97 2.8125 202.212 2.57812 202.576 2.34375C202.939 2.10938 203.424 1.99219 203.788 1.99219C204.152 1.99219 204.394 1.99219 204.636 2.10938C204.879 2.22656 205.121 2.34375 205.364 2.57812V0H206.576ZM204.758 5.85938C205 5.74219 205.121 5.625 205.242 5.39062C205.364 5.15625 205.485 4.92188 205.485 4.57031C205.485 4.33594 205.364 3.98438 205.242 3.75C205.121 3.51562 205 3.39844 204.758 3.28125C204.515 3.16406 204.273 3.04688 204.03 3.04688C203.788 3.04688 203.545 3.16406 203.303 3.28125C203.061 3.39844 202.939 3.51562 202.818 3.75C202.697 3.98438 202.576 4.21875 202.576 4.57031C202.576 4.92188 202.697 5.15625 202.818 5.39062C202.939 5.625 203.061 5.74219 203.303 5.85938C203.545 5.97656 203.788 6.09375 204.03 6.09375C204.273 5.97656 204.515 5.97656 204.758 5.85938Z" fill="#627289"/>
<path d="M212.515 4.92187H208.758C208.879 5.27344 209 5.50781 209.242 5.74219C209.485 5.97656 209.849 6.09375 210.333 6.09375C210.818 6.09375 211.303 5.97656 211.667 5.625L212.273 6.32812C212.03 6.5625 211.788 6.79688 211.424 6.91406C211.061 7.03125 210.697 7.14844 210.333 7.14844C209.849 7.14844 209.364 7.03125 208.879 6.79688C208.515 6.5625 208.152 6.32812 207.909 5.97656C207.667 5.625 207.545 5.15625 207.545 4.6875C207.545 4.21875 207.667 3.86719 207.909 3.39844C208.152 3.04688 208.394 2.69531 208.758 2.57813C209.121 2.34375 209.606 2.22656 210.091 2.22656C210.576 2.22656 210.939 2.34375 211.303 2.57813C211.667 2.8125 211.909 3.04688 212.152 3.39844C212.394 3.75 212.515 4.21875 212.515 4.6875C212.636 4.6875 212.636 4.6875 212.515 4.92187ZM209.242 3.28125C209 3.51562 208.879 3.75 208.758 4.10156H211.545C211.545 3.75 211.303 3.51562 211.061 3.28125C210.818 3.04687 210.455 2.92969 210.091 2.92969C209.727 3.04688 209.485 3.16406 209.242 3.28125Z" fill="#627289"/>
<path d="M214.091 6.79688C213.727 6.67969 213.364 6.5625 213.242 6.44531L213.727 5.625C213.97 5.74219 214.212 5.85937 214.576 5.97656C214.939 6.09375 215.182 6.09375 215.424 6.09375C216.152 6.09375 216.394 5.97656 216.394 5.625C216.394 5.50781 216.273 5.39062 216.152 5.27344C216.03 5.15625 215.667 5.15625 215.303 5.03906C214.939 4.92188 214.576 4.92187 214.333 4.80469C214.091 4.6875 213.848 4.57031 213.727 4.45312C213.485 4.21875 213.485 3.98437 213.485 3.63281C213.485 3.16406 213.727 2.8125 214.091 2.57813C214.455 2.34375 214.939 2.22656 215.667 2.22656C216.03 2.22656 216.273 2.22656 216.636 2.34375C217 2.46094 217.242 2.46094 217.485 2.69531L217 3.51562C216.636 3.28125 216.152 3.16406 215.667 3.16406C215.303 3.16406 215.061 3.16406 214.939 3.28125C214.818 3.39844 214.697 3.51562 214.697 3.63281C214.697 3.86719 214.818 3.98438 214.939 3.98438C215.182 4.10156 215.424 4.10156 215.788 4.21875C216.152 4.21875 216.515 4.33594 216.758 4.45312C217 4.57031 217.242 4.6875 217.364 4.80469C217.485 5.03906 217.606 5.27344 217.606 5.625C217.606 6.09375 217.364 6.44531 217 6.67969C216.636 6.91406 216.03 7.03125 215.424 7.03125C214.818 6.91406 214.455 6.91406 214.091 6.79688Z" fill="#627289"/>
<path d="M218.455 1.17188C218.333 1.05469 218.212 0.9375 218.212 0.703125C218.212 0.46875 218.333 0.351562 218.455 0.234375C218.576 0.117188 218.818 0 218.939 0C219.182 0 219.303 0.117188 219.424 0.234375C219.546 0.351562 219.667 0.46875 219.667 0.703125C219.667 0.9375 219.546 1.05469 219.424 1.17188C219.303 1.28906 219.061 1.40625 218.939 1.40625C218.697 1.40625 218.576 1.28906 218.455 1.17188ZM218.333 2.22656H219.424V6.91406H218.333V2.22656Z" fill="#627289"/>
<path d="M225.848 2.22656V6.21094C225.848 7.85156 225 8.67187 223.182 8.67187C222.697 8.67187 222.212 8.67187 221.848 8.55469C221.485 8.4375 221.121 8.32031 220.758 8.08594L221.242 7.26562C221.485 7.38281 221.727 7.61719 222.091 7.61719C222.455 7.73437 222.697 7.73437 223.061 7.73437C223.545 7.73437 224.03 7.61719 224.273 7.38281C224.515 7.14844 224.636 6.79687 224.636 6.32812V6.09375C224.394 6.32812 224.152 6.44531 223.909 6.5625C223.667 6.67969 223.303 6.67969 222.939 6.67969C222.455 6.67969 222.091 6.5625 221.727 6.44531C221.364 6.21094 221.121 5.97656 220.879 5.625C220.636 5.27344 220.515 4.92187 220.515 4.45312C220.515 3.98437 220.636 3.63281 220.879 3.28125C221.121 2.92969 221.364 2.69531 221.727 2.46094C222.091 2.22656 222.576 2.22656 222.939 2.22656C223.303 2.22656 223.667 2.22656 223.909 2.34375C224.152 2.46094 224.394 2.57813 224.636 2.8125V2.22656H225.848ZM224.273 5.39062C224.515 5.15625 224.636 4.80469 224.636 4.45312C224.636 4.10156 224.515 3.75 224.273 3.51562C224.03 3.28125 223.667 3.16406 223.182 3.16406C222.697 3.16406 222.333 3.28125 222.091 3.51562C221.848 3.75 221.727 4.10156 221.727 4.45312C221.727 4.80469 221.848 5.15625 222.091 5.39062C222.333 5.625 222.697 5.74219 223.182 5.74219C223.667 5.74219 224.03 5.625 224.273 5.39062Z" fill="#627289"/>
<path d="M231.545 2.69531C231.909 3.04688 232.152 3.51562 232.152 4.21875V6.91406H230.939V4.33594C230.939 3.86719 230.818 3.63281 230.697 3.39844C230.455 3.16406 230.212 3.04687 229.849 3.04687C229.485 3.04687 229.121 3.16406 228.879 3.39844C228.636 3.63281 228.515 3.98438 228.515 4.45312V6.79688H227.303V2.10938H228.394V2.69531C228.636 2.46094 228.879 2.34375 229.121 2.22656C229.364 2.10938 229.727 2.10938 230.091 2.10938C230.697 2.10937 231.182 2.34375 231.545 2.69531Z" fill="#627289"/>
<path d="M77 3.39844V0H84.2727C88.0303 0 90.8182 2.10938 90.8182 5.625V11.4844C90.8182 13.8281 89.7273 15.4688 87.6667 16.4062C89.9697 17.3438 91.0606 18.9844 91.0606 21.4453V28.3594C91.0606 31.875 88.2727 33.9844 84.6364 33.9844H77V30.4688H77.9697V3.39844H77ZM82.3333 14.7656H84.2727C85.4848 14.7656 86.4545 13.9453 86.4545 12.5391V5.50781C86.4545 4.21875 85.4848 3.39844 84.2727 3.39844H82.3333V14.7656ZM82.3333 18.1641V30.4688H84.3939C85.6061 30.4688 86.5758 29.6484 86.5758 28.2422V20.2734C86.5758 18.9844 85.6061 18.0469 84.3939 18.0469H82.3333V18.1641Z" fill="#627289"/>
<path d="M94.2121 17.8125V11.25C95.9091 10.0781 97.9697 9.49219 100.636 9.49219C104.273 9.49219 107.061 11.6016 107.061 15.1172V30.4687H108.03V33.8672H102.697V31.875C101.485 33.3984 99.9091 34.1016 97.9697 34.1016C95.7879 34.1016 94.0909 32.5781 94.0909 30.2344V25.3125C94.0909 21.9141 96.2727 20.1562 99.6667 19.6875L102.697 19.3359V14.8828C102.697 13.5937 101.848 12.6562 100.636 12.6562C99.9091 12.6562 99.1818 12.8906 98.8182 13.125L98.5758 13.2422V17.5781H94.2121V17.8125ZM102.697 22.8516L100.636 23.0859C99.1818 23.2031 98.4545 24.0234 98.4545 25.3125V29.0625C98.4545 30 99.0606 30.7031 99.9091 30.7031C101.364 30.7031 102.697 29.6484 102.697 27.8906V22.8516Z" fill="#627289"/>
<path d="M110.576 17.8125V9.72656H123.303V11.7188L115.667 30.4688H120.03V25.7813H123.424V33.8672H110.576V31.875L118.333 13.0078H113.849V17.6953H110.576V17.8125Z" fill="#627289"/>
<path d="M126.212 33.8672V30.4688H127.182V13.125H126.212V9.72656H131.545V30.4688H132.515V33.8672H126.212ZM127.303 5.27344V0H131.667V5.27344H127.303Z" fill="#627289"/>
<path d="M135.182 3.39844V0H140.515V30.4688H141.485V33.8672H135.182V30.4688H136.152V3.39844H135.182Z" fill="#627289"/>
<path d="M157.364 23.0859H148.758V28.4766C148.758 29.8828 149.606 30.7031 150.818 30.7031C152.03 30.7031 153 29.8828 153 28.4766V25.7813H157.364V28.5938C157.364 32.1094 154.576 34.2188 150.818 34.2188C147.182 34.2188 144.394 32.1094 144.394 28.5938V15C144.394 11.4844 147.182 9.375 150.818 9.375C154.455 9.375 157.364 11.4844 157.364 15V23.0859ZM148.758 19.8047H153V15.1172C153 13.7109 152.152 12.8906 150.818 12.8906C149.606 12.8906 148.758 13.7109 148.758 15.1172V19.8047Z" fill="#627289"/>
<path d="M169 13.125V9.72656H175.303V13.125H174.091L170.091 33.9844H164.394L160.394 13.125H159.182V9.72656H164.273L167.182 30.3516H167.303L169.848 13.0078H169V13.125Z" fill="#627289"/>
<path d="M185.606 13.4766C185 13.0078 184.394 12.8906 183.667 12.8906C182.576 12.8906 181.727 13.7109 181.727 15V17.5781C181.727 18.8672 183.788 19.8047 185.849 20.3906C188.03 20.9766 190.091 22.6172 190.091 25.3125V28.5937C190.091 31.9922 187.303 34.1016 183.667 34.1016C181.364 34.1016 179.061 33.2812 178.091 32.6953L177.364 32.2266V25.7812H181.727V30.1172C182.333 30.5859 182.939 30.7031 183.788 30.7031C185 30.7031 185.849 29.8828 185.849 28.5937V25.3125C185.849 22.2656 177.485 23.4375 177.485 17.4609V14.7656C177.485 11.4844 180.152 9.25781 183.788 9.25781C186.091 9.25781 188.394 10.0781 189.364 10.6641L190.091 11.1328V17.6953H185.727V13.4766H185.606Z" fill="#627289"/>
<path d="M193 33.8672V30.4688H193.97V3.39844H193V0H198.333V19.8047H199.667L202.091 13.125H201.242V9.72656H207.545V13.125H206.333L202.818 21.4453L206.455 30.5859H207.667V33.9844H203.182L199.667 23.0859H198.333V30.4688H199.303V33.8672H193Z" fill="#627289"/>
<path d="M218.212 13.125V9.72656H223.545V39.4922C223.545 43.0078 220.758 45.1172 217.121 45.1172C214.818 45.1172 212.394 44.4141 211.424 43.7109L210.697 43.2422V37.5H215.061V41.0156C215.667 41.4844 216.273 41.6016 217.121 41.6016C218.212 41.6016 219.182 40.7813 219.182 39.375V31.7578C217.97 33.2813 216.394 33.9844 214.576 33.9844C212.273 33.9844 210.576 32.4609 210.576 30V13.125H209.606V9.72656H214.939V29.0625C214.939 30.1172 215.667 30.7031 216.515 30.7031C218.091 30.7031 219.182 29.6484 219.182 27.8906V13.125H218.212Z" fill="#627289"/>
<path d="M226.576 33.8672V30.4688H227.667V13.125H226.576V9.72656H232.03V30.4688H233V33.8672H226.576Z" fill="#627289"/>
</g>
<path d="M0.468 29.68C0.468 29.168 0.556 28.66 0.732 28.156C0.916 27.644 1.18 27.188 1.524 26.788C1.876 26.38 2.304 26.052 2.808 25.804C3.312 25.556 3.884 25.432 4.524 25.432C5.284 25.432 5.936 25.604 6.48 25.948C7.024 26.292 7.428 26.74 7.692 27.292L6.84 27.844C6.712 27.572 6.556 27.344 6.372 27.16C6.196 26.976 6 26.828 5.784 26.716C5.576 26.604 5.36 26.524 5.136 26.476C4.912 26.428 4.692 26.404 4.476 26.404C4.004 26.404 3.584 26.504 3.216 26.704C2.856 26.896 2.552 27.152 2.304 27.472C2.056 27.784 1.868 28.14 1.74 28.54C1.62 28.932 1.56 29.328 1.56 29.728C1.56 30.176 1.632 30.604 1.776 31.012C1.928 31.412 2.136 31.768 2.4 32.08C2.664 32.392 2.976 32.64 3.336 32.824C3.696 33.008 4.088 33.1 4.512 33.1C4.736 33.1 4.964 33.072 5.196 33.016C5.436 32.96 5.664 32.872 5.88 32.752C6.096 32.624 6.296 32.468 6.48 32.284C6.672 32.092 6.828 31.864 6.948 31.6L7.848 32.092C7.712 32.412 7.52 32.696 7.272 32.944C7.032 33.184 6.756 33.388 6.444 33.556C6.14 33.724 5.816 33.852 5.472 33.94C5.128 34.028 4.792 34.072 4.464 34.072C3.88 34.072 3.344 33.944 2.856 33.688C2.368 33.432 1.944 33.1 1.584 32.692C1.232 32.276 0.956 31.808 0.756 31.288C0.564 30.76 0.468 30.224 0.468 29.68ZM12.4637 28.66C11.9357 28.676 11.4677 28.812 11.0597 29.068C10.6597 29.324 10.3757 29.68 10.2077 30.136V34H9.15169V27.736H10.1357V29.188C10.3517 28.756 10.6357 28.408 10.9877 28.144C11.3397 27.872 11.7157 27.72 12.1157 27.688C12.1957 27.688 12.2637 27.688 12.3197 27.688C12.3757 27.688 12.4237 27.692 12.4637 27.7V28.66ZM16.2624 34.12C15.7904 34.12 15.3584 34.036 14.9664 33.868C14.5744 33.692 14.2384 33.456 13.9584 33.16C13.6784 32.864 13.4584 32.52 13.2984 32.128C13.1464 31.728 13.0704 31.308 13.0704 30.868C13.0704 30.428 13.1464 30.012 13.2984 29.62C13.4584 29.228 13.6784 28.884 13.9584 28.588C14.2464 28.292 14.5864 28.06 14.9784 27.892C15.3704 27.716 15.8024 27.628 16.2744 27.628C16.7464 27.628 17.1744 27.716 17.5584 27.892C17.9504 28.068 18.2824 28.304 18.5544 28.6C18.8264 28.888 19.0344 29.228 19.1784 29.62C19.3304 30.004 19.4064 30.404 19.4064 30.82C19.4064 30.908 19.4024 30.988 19.3944 31.06C19.3944 31.132 19.3904 31.188 19.3824 31.228H14.1864C14.2104 31.54 14.2824 31.824 14.4024 32.08C14.5224 32.336 14.6784 32.556 14.8704 32.74C15.0624 32.924 15.2784 33.068 15.5184 33.172C15.7664 33.276 16.0264 33.328 16.2984 33.328C16.4904 33.328 16.6784 33.304 16.8624 33.256C17.0464 33.2 17.2184 33.128 17.3784 33.04C17.5384 32.952 17.6784 32.844 17.7984 32.716C17.9264 32.588 18.0224 32.444 18.0864 32.284L18.9984 32.536C18.8944 32.768 18.7504 32.98 18.5664 33.172C18.3904 33.364 18.1824 33.532 17.9424 33.676C17.7104 33.812 17.4504 33.92 17.1624 34C16.8744 34.08 16.5744 34.12 16.2624 34.12ZM18.4104 30.448C18.3864 30.152 18.3104 29.88 18.1824 29.632C18.0624 29.376 17.9064 29.16 17.7144 28.984C17.5304 28.808 17.3144 28.672 17.0664 28.576C16.8184 28.472 16.5544 28.42 16.2744 28.42C15.9944 28.42 15.7304 28.472 15.4824 28.576C15.2344 28.672 15.0144 28.812 14.8224 28.996C14.6384 29.172 14.4864 29.384 14.3664 29.632C14.2544 29.88 14.1864 30.152 14.1624 30.448H18.4104ZM22.3083 34.12C22.0123 34.12 21.7363 34.072 21.4803 33.976C21.2243 33.872 21.0003 33.732 20.8083 33.556C20.6243 33.38 20.4763 33.176 20.3643 32.944C20.2603 32.704 20.2083 32.444 20.2083 32.164C20.2083 31.876 20.2723 31.616 20.4003 31.384C20.5283 31.144 20.7083 30.94 20.9403 30.772C21.1803 30.604 21.4603 30.472 21.7803 30.376C22.1083 30.28 22.4643 30.232 22.8483 30.232C23.1523 30.232 23.4603 30.26 23.7723 30.316C24.0843 30.372 24.3603 30.448 24.6003 30.544V30.04C24.6003 29.528 24.4563 29.128 24.1683 28.84C23.8803 28.544 23.4723 28.396 22.9443 28.396C22.3123 28.396 21.6483 28.64 20.9523 29.128L20.6043 28.444C21.4123 27.9 22.2243 27.628 23.0403 27.628C23.8643 27.628 24.5043 27.848 24.9603 28.288C25.4243 28.728 25.6563 29.348 25.6563 30.148V32.704C25.6563 32.952 25.7683 33.08 25.9923 33.088V34C25.8803 34.016 25.7883 34.028 25.7163 34.036C25.6443 34.044 25.5683 34.048 25.4883 34.048C25.2803 34.048 25.1123 33.988 24.9843 33.868C24.8643 33.74 24.7923 33.588 24.7683 33.412L24.7443 32.968C24.4643 33.344 24.1083 33.632 23.6763 33.832C23.2523 34.024 22.7963 34.12 22.3083 34.12ZM22.5843 33.328C22.9603 33.328 23.3083 33.26 23.6283 33.124C23.9563 32.98 24.2043 32.792 24.3723 32.56C24.5243 32.408 24.6003 32.252 24.6003 32.092V31.168C24.0883 30.968 23.5563 30.868 23.0043 30.868C22.4763 30.868 22.0443 30.98 21.7083 31.204C21.3803 31.428 21.2163 31.72 21.2163 32.08C21.2163 32.256 21.2483 32.42 21.3123 32.572C21.3843 32.724 21.4803 32.856 21.6003 32.968C21.7283 33.08 21.8763 33.168 22.0443 33.232C22.2123 33.296 22.3923 33.328 22.5843 33.328ZM30.6579 33.688C30.5939 33.72 30.5099 33.76 30.4059 33.808C30.3019 33.848 30.1819 33.892 30.0459 33.94C29.9179 33.98 29.7739 34.012 29.6139 34.036C29.4619 34.068 29.3019 34.084 29.1339 34.084C28.7499 34.084 28.4179 33.98 28.1379 33.772C27.8579 33.556 27.7179 33.224 27.7179 32.776V28.564H26.8659V27.736H27.7179V25.648H28.7739V27.736H30.1779V28.564H28.7739V32.452C28.7899 32.684 28.8659 32.852 29.0019 32.956C29.1379 33.06 29.2979 33.112 29.4819 33.112C29.6899 33.112 29.8779 33.08 30.0459 33.016C30.2219 32.944 30.3419 32.888 30.4059 32.848L30.6579 33.688ZM34.4467 34.12C33.9747 34.12 33.5427 34.036 33.1507 33.868C32.7587 33.692 32.4227 33.456 32.1427 33.16C31.8627 32.864 31.6427 32.52 31.4827 32.128C31.3307 31.728 31.2547 31.308 31.2547 30.868C31.2547 30.428 31.3307 30.012 31.4827 29.62C31.6427 29.228 31.8627 28.884 32.1427 28.588C32.4307 28.292 32.7707 28.06 33.1627 27.892C33.5547 27.716 33.9867 27.628 34.4587 27.628C34.9307 27.628 35.3587 27.716 35.7427 27.892C36.1347 28.068 36.4667 28.304 36.7387 28.6C37.0107 28.888 37.2187 29.228 37.3627 29.62C37.5147 30.004 37.5907 30.404 37.5907 30.82C37.5907 30.908 37.5867 30.988 37.5787 31.06C37.5787 31.132 37.5747 31.188 37.5667 31.228H32.3707C32.3947 31.54 32.4667 31.824 32.5867 32.08C32.7067 32.336 32.8627 32.556 33.0547 32.74C33.2467 32.924 33.4627 33.068 33.7027 33.172C33.9507 33.276 34.2107 33.328 34.4827 33.328C34.6747 33.328 34.8627 33.304 35.0467 33.256C35.2307 33.2 35.4027 33.128 35.5627 33.04C35.7227 32.952 35.8627 32.844 35.9827 32.716C36.1107 32.588 36.2067 32.444 36.2707 32.284L37.1827 32.536C37.0787 32.768 36.9347 32.98 36.7507 33.172C36.5747 33.364 36.3667 33.532 36.1267 33.676C35.8947 33.812 35.6347 33.92 35.3467 34C35.0587 34.08 34.7587 34.12 34.4467 34.12ZM36.5947 30.448C36.5707 30.152 36.4947 29.88 36.3667 29.632C36.2467 29.376 36.0907 29.16 35.8987 28.984C35.7147 28.808 35.4987 28.672 35.2507 28.576C35.0027 28.472 34.7387 28.42 34.4587 28.42C34.1787 28.42 33.9147 28.472 33.6667 28.576C33.4187 28.672 33.1987 28.812 33.0067 28.996C32.8227 29.172 32.6707 29.384 32.5507 29.632C32.4387 29.88 32.3707 30.152 32.3467 30.448H36.5947ZM41.4645 34.12C41.0325 34.12 40.6325 34.032 40.2645 33.856C39.8965 33.68 39.5805 33.444 39.3165 33.148C39.0525 32.852 38.8445 32.508 38.6925 32.116C38.5485 31.724 38.4765 31.312 38.4765 30.88C38.4765 30.44 38.5445 30.024 38.6805 29.632C38.8245 29.232 39.0205 28.884 39.2685 28.588C39.5245 28.292 39.8245 28.06 40.1685 27.892C40.5205 27.716 40.9045 27.628 41.3205 27.628C41.8245 27.628 42.2725 27.76 42.6645 28.024C43.0645 28.288 43.3805 28.608 43.6125 28.984V25.24H44.6685V32.704C44.6685 32.952 44.7805 33.08 45.0045 33.088V34C44.8925 34.016 44.8005 34.028 44.7285 34.036C44.6645 34.044 44.6005 34.048 44.5365 34.048C44.3285 34.048 44.1445 33.98 43.9845 33.844C43.8325 33.7 43.7565 33.536 43.7565 33.352V32.824C43.5085 33.232 43.1765 33.552 42.7605 33.784C42.3525 34.008 41.9205 34.12 41.4645 34.12ZM41.7165 33.208C41.9085 33.208 42.1045 33.172 42.3045 33.1C42.5125 33.028 42.7045 32.928 42.8805 32.8C43.0645 32.672 43.2205 32.524 43.3485 32.356C43.4845 32.18 43.5725 31.996 43.6125 31.804V30.004C43.5405 29.804 43.4325 29.616 43.2885 29.44C43.1445 29.256 42.9805 29.1 42.7965 28.972C42.6205 28.836 42.4285 28.732 42.2205 28.66C42.0205 28.58 41.8205 28.54 41.6205 28.54C41.3085 28.54 41.0245 28.608 40.7685 28.744C40.5205 28.872 40.3045 29.048 40.1205 29.272C39.9445 29.488 39.8085 29.74 39.7125 30.028C39.6165 30.308 39.5685 30.596 39.5685 30.892C39.5685 31.204 39.6245 31.504 39.7365 31.792C39.8485 32.072 40.0005 32.316 40.1925 32.524C40.3845 32.732 40.6085 32.9 40.8645 33.028C41.1285 33.148 41.4125 33.208 41.7165 33.208ZM52.9225 34.12C52.4345 34.12 51.9905 34 51.5905 33.76C51.1905 33.52 50.8745 33.208 50.6425 32.824V34H49.7065V25.24H50.7625V28.984C51.0265 28.576 51.3505 28.248 51.7345 28C52.1185 27.752 52.5665 27.628 53.0785 27.628C53.5105 27.628 53.8985 27.72 54.2425 27.904C54.5865 28.088 54.8785 28.332 55.1185 28.636C55.3665 28.932 55.5545 29.28 55.6825 29.68C55.8185 30.072 55.8865 30.476 55.8865 30.892C55.8865 31.332 55.8105 31.748 55.6585 32.14C55.5065 32.532 55.2985 32.876 55.0345 33.172C54.7705 33.46 54.4545 33.692 54.0865 33.868C53.7265 34.036 53.3385 34.12 52.9225 34.12ZM52.6585 33.208C52.9705 33.208 53.2585 33.144 53.5225 33.016C53.7865 32.888 54.0145 32.716 54.2065 32.5C54.3985 32.284 54.5465 32.04 54.6505 31.768C54.7545 31.488 54.8065 31.196 54.8065 30.892C54.8065 30.588 54.7545 30.296 54.6505 30.016C54.5545 29.728 54.4145 29.476 54.2305 29.26C54.0545 29.044 53.8385 28.872 53.5825 28.744C53.3345 28.608 53.0585 28.54 52.7545 28.54C52.5305 28.54 52.3185 28.58 52.1185 28.66C51.9185 28.74 51.7305 28.848 51.5545 28.984C51.3865 29.112 51.2345 29.264 51.0985 29.44C50.9705 29.616 50.8585 29.804 50.7625 30.004V31.816C50.8025 32.016 50.8865 32.2 51.0145 32.368C51.1505 32.536 51.3065 32.684 51.4825 32.812C51.6665 32.932 51.8585 33.028 52.0585 33.1C52.2665 33.172 52.4665 33.208 52.6585 33.208ZM57.3802 35.704C57.4842 35.72 57.5882 35.732 57.6922 35.74C57.7962 35.748 57.8762 35.752 57.9322 35.752C58.0282 35.752 58.1122 35.728 58.1842 35.68C58.2642 35.64 58.3402 35.556 58.4122 35.428C58.4922 35.3 58.5802 35.12 58.6762 34.888C58.7722 34.664 58.8922 34.368 59.0362 34L56.3842 27.736H57.4762L59.6122 33.052L61.5562 27.736H62.5642L59.5162 35.644C59.4042 35.924 59.2162 36.168 58.9522 36.376C58.6962 36.592 58.3402 36.7 57.8842 36.7C57.8122 36.7 57.7362 36.696 57.6562 36.688C57.5842 36.68 57.4922 36.664 57.3802 36.64V35.704Z" fill="#627289"/>
<defs>
<clipPath id="clip0">
<rect width="156" height="45" fill="white" transform="translate(77)"/>
</clipPath>
</defs>
</svg>
