<svg width="487" height="386" viewBox="0 0 487 386" fill="none" xmlns="http://www.w3.org/2000/svg">
<g opacity="0.3">
<circle cx="4" cy="3" r="3" fill="#BECBDF"/>
<circle cx="24" cy="3" r="3" fill="#BECBDF"/>
<circle cx="44" cy="3" r="3" fill="#BECBDF"/>
<circle cx="64" cy="3" r="3" fill="#BECBDF"/>
<circle cx="84" cy="3" r="3" fill="#BECBDF"/>
<circle cx="104" cy="3" r="3" fill="#BECBDF"/>
<circle cx="124" cy="3" r="3" fill="#BECBDF"/>
<circle cx="144" cy="3" r="3" fill="#BECBDF"/>
<circle cx="164" cy="3" r="3" fill="#BECBDF"/>
<circle cx="184" cy="3" r="3" fill="#BECBDF"/>
<circle cx="204" cy="3" r="3" fill="#BECBDF"/>
<circle cx="224" cy="3" r="3" fill="#BECBDF"/>
<circle cx="244" cy="3" r="3" fill="#BECBDF"/>
<circle cx="264" cy="3" r="3" fill="#BECBDF"/>
<circle cx="284" cy="3" r="3" fill="#BECBDF"/>
<circle cx="304" cy="3" r="3" fill="#BECBDF"/>
<circle cx="324" cy="3" r="3" fill="#BECBDF"/>
<circle cx="344" cy="3" r="3" fill="#BECBDF"/>
<circle cx="364" cy="3" r="3" fill="#BECBDF"/>
<circle cx="384" cy="3" r="3" fill="#BECBDF"/>
<circle cx="404" cy="3" r="3" fill="#BECBDF"/>
<circle cx="424" cy="3" r="3" fill="#BECBDF"/>
<circle cx="444" cy="3" r="3" fill="#BECBDF"/>
<circle cx="464" cy="3" r="3" fill="#BECBDF"/>
<circle cx="484" cy="3" r="3" fill="#BECBDF"/>
<circle cx="4" cy="23" r="3" fill="#BECBDF"/>
<circle cx="24" cy="23" r="3" fill="#BECBDF"/>
<circle cx="44" cy="23" r="3" fill="#BECBDF"/>
<circle cx="64" cy="23" r="3" fill="#BECBDF"/>
<circle cx="84" cy="23" r="3" fill="#BECBDF"/>
<circle cx="104" cy="23" r="3" fill="#BECBDF"/>
<circle cx="124" cy="23" r="3" fill="#BECBDF"/>
<circle cx="144" cy="23" r="3" fill="#BECBDF"/>
<circle cx="164" cy="23" r="3" fill="#BECBDF"/>
<circle cx="184" cy="23" r="3" fill="#BECBDF"/>
<circle cx="204" cy="23" r="3" fill="#BECBDF"/>
<circle cx="224" cy="23" r="3" fill="#BECBDF"/>
<circle cx="244" cy="23" r="3" fill="#BECBDF"/>
<circle cx="264" cy="23" r="3" fill="#BECBDF"/>
<circle cx="284" cy="23" r="3" fill="#BECBDF"/>
<circle cx="304" cy="23" r="3" fill="#BECBDF"/>
<circle cx="324" cy="23" r="3" fill="#BECBDF"/>
<circle cx="344" cy="23" r="3" fill="#BECBDF"/>
<circle cx="364" cy="23" r="3" fill="#BECBDF"/>
<circle cx="384" cy="23" r="3" fill="#BECBDF"/>
<circle cx="404" cy="23" r="3" fill="#BECBDF"/>
<circle cx="424" cy="23" r="3" fill="#BECBDF"/>
<circle cx="444" cy="23" r="3" fill="#BECBDF"/>
<circle cx="464" cy="23" r="3" fill="#BECBDF"/>
<circle cx="484" cy="23" r="3" fill="#BECBDF"/>
<circle cx="4" cy="43" r="3" fill="#BECBDF"/>
<circle cx="24" cy="43" r="3" fill="#BECBDF"/>
<circle cx="44" cy="43" r="3" fill="#BECBDF"/>
<circle cx="64" cy="43" r="3" fill="#BECBDF"/>
<circle cx="84" cy="43" r="3" fill="#BECBDF"/>
<circle cx="104" cy="43" r="3" fill="#BECBDF"/>
<circle cx="124" cy="43" r="3" fill="#BECBDF"/>
<circle cx="144" cy="43" r="3" fill="#BECBDF"/>
<circle cx="164" cy="43" r="3" fill="#BECBDF"/>
<circle cx="184" cy="43" r="3" fill="#BECBDF"/>
<circle cx="204" cy="43" r="3" fill="#BECBDF"/>
<circle cx="224" cy="43" r="3" fill="#BECBDF"/>
<circle cx="244" cy="43" r="3" fill="#BECBDF"/>
<circle cx="264" cy="43" r="3" fill="#BECBDF"/>
<circle cx="284" cy="43" r="3" fill="#BECBDF"/>
<circle cx="304" cy="43" r="3" fill="#BECBDF"/>
<circle cx="324" cy="43" r="3" fill="#BECBDF"/>
<circle cx="344" cy="43" r="3" fill="#BECBDF"/>
<circle cx="364" cy="43" r="3" fill="#BECBDF"/>
<circle cx="384" cy="43" r="3" fill="#BECBDF"/>
<circle cx="404" cy="43" r="3" fill="#BECBDF"/>
<circle cx="424" cy="43" r="3" fill="#BECBDF"/>
<circle cx="444" cy="43" r="3" fill="#BECBDF"/>
<circle cx="464" cy="43" r="3" fill="#BECBDF"/>
<circle cx="484" cy="43" r="3" fill="#BECBDF"/>
<circle cx="4" cy="63" r="3" fill="#BECBDF"/>
<circle cx="24" cy="63" r="3" fill="#BECBDF"/>
<circle cx="44" cy="63" r="3" fill="#BECBDF"/>
<circle cx="64" cy="63" r="3" fill="#BECBDF"/>
<circle cx="84" cy="63" r="3" fill="#BECBDF"/>
<circle cx="104" cy="63" r="3" fill="#BECBDF"/>
<circle cx="124" cy="63" r="3" fill="#BECBDF"/>
<circle cx="144" cy="63" r="3" fill="#BECBDF"/>
<circle cx="164" cy="63" r="3" fill="#BECBDF"/>
<circle cx="184" cy="63" r="3" fill="#BECBDF"/>
<circle cx="204" cy="63" r="3" fill="#BECBDF"/>
<circle cx="224" cy="63" r="3" fill="#BECBDF"/>
<circle cx="244" cy="63" r="3" fill="#BECBDF"/>
<circle cx="264" cy="63" r="3" fill="#BECBDF"/>
<circle cx="284" cy="63" r="3" fill="#BECBDF"/>
<circle cx="304" cy="63" r="3" fill="#BECBDF"/>
<circle cx="324" cy="63" r="3" fill="#BECBDF"/>
<circle cx="344" cy="63" r="3" fill="#BECBDF"/>
<circle cx="364" cy="63" r="3" fill="#BECBDF"/>
<circle cx="384" cy="63" r="3" fill="#BECBDF"/>
<circle cx="404" cy="63" r="3" fill="#BECBDF"/>
<circle cx="424" cy="63" r="3" fill="#BECBDF"/>
<circle cx="444" cy="63" r="3" fill="#BECBDF"/>
<circle cx="464" cy="63" r="3" fill="#BECBDF"/>
<circle cx="484" cy="63" r="3" fill="#BECBDF"/>
<circle cx="4" cy="83" r="3" fill="#BECBDF"/>
<circle cx="24" cy="83" r="3" fill="#BECBDF"/>
<circle cx="44" cy="83" r="3" fill="#BECBDF"/>
<circle cx="64" cy="83" r="3" fill="#BECBDF"/>
<circle cx="84" cy="83" r="3" fill="#BECBDF"/>
<circle cx="104" cy="83" r="3" fill="#BECBDF"/>
<circle cx="124" cy="83" r="3" fill="#BECBDF"/>
<circle cx="144" cy="83" r="3" fill="#BECBDF"/>
<circle cx="164" cy="83" r="3" fill="#BECBDF"/>
<circle cx="184" cy="83" r="3" fill="#BECBDF"/>
<circle cx="204" cy="83" r="3" fill="#BECBDF"/>
<circle cx="224" cy="83" r="3" fill="#BECBDF"/>
<circle cx="244" cy="83" r="3" fill="#BECBDF"/>
<circle cx="264" cy="83" r="3" fill="#BECBDF"/>
<circle cx="284" cy="83" r="3" fill="#BECBDF"/>
<circle cx="304" cy="83" r="3" fill="#BECBDF"/>
<circle cx="324" cy="83" r="3" fill="#BECBDF"/>
<circle cx="344" cy="83" r="3" fill="#BECBDF"/>
<circle cx="364" cy="83" r="3" fill="#BECBDF"/>
<circle cx="384" cy="83" r="3" fill="#BECBDF"/>
<circle cx="404" cy="83" r="3" fill="#BECBDF"/>
<circle cx="424" cy="83" r="3" fill="#BECBDF"/>
<circle cx="444" cy="83" r="3" fill="#BECBDF"/>
<circle cx="464" cy="83" r="3" fill="#BECBDF"/>
<circle cx="484" cy="83" r="3" fill="#BECBDF"/>
<circle cx="4" cy="103" r="3" fill="#BECBDF"/>
<circle cx="24" cy="103" r="3" fill="#BECBDF"/>
<circle cx="44" cy="103" r="3" fill="#BECBDF"/>
<circle cx="64" cy="103" r="3" fill="#BECBDF"/>
<circle cx="84" cy="103" r="3" fill="#BECBDF"/>
<circle cx="104" cy="103" r="3" fill="#BECBDF"/>
<circle cx="124" cy="103" r="3" fill="#BECBDF"/>
<circle cx="144" cy="103" r="3" fill="#BECBDF"/>
<circle cx="164" cy="103" r="3" fill="#BECBDF"/>
<circle cx="184" cy="103" r="3" fill="#BECBDF"/>
<circle cx="204" cy="103" r="3" fill="#BECBDF"/>
<circle cx="224" cy="103" r="3" fill="#BECBDF"/>
<circle cx="244" cy="103" r="3" fill="#BECBDF"/>
<circle cx="264" cy="103" r="3" fill="#BECBDF"/>
<circle cx="284" cy="103" r="3" fill="#BECBDF"/>
<circle cx="304" cy="103" r="3" fill="#BECBDF"/>
<circle cx="324" cy="103" r="3" fill="#BECBDF"/>
<circle cx="344" cy="103" r="3" fill="#BECBDF"/>
<circle cx="364" cy="103" r="3" fill="#BECBDF"/>
<circle cx="384" cy="103" r="3" fill="#BECBDF"/>
<circle cx="404" cy="103" r="3" fill="#BECBDF"/>
<circle cx="424" cy="103" r="3" fill="#BECBDF"/>
<circle cx="444" cy="103" r="3" fill="#BECBDF"/>
<circle cx="464" cy="103" r="3" fill="#BECBDF"/>
<circle cx="484" cy="103" r="3" fill="#BECBDF"/>
<circle cx="4" cy="123" r="3" fill="#BECBDF"/>
<circle cx="24" cy="123" r="3" fill="#BECBDF"/>
<circle cx="44" cy="123" r="3" fill="#BECBDF"/>
<circle cx="64" cy="123" r="3" fill="#BECBDF"/>
<circle cx="84" cy="123" r="3" fill="#BECBDF"/>
<circle cx="104" cy="123" r="3" fill="#BECBDF"/>
<circle cx="124" cy="123" r="3" fill="#BECBDF"/>
<circle cx="144" cy="123" r="3" fill="#BECBDF"/>
<circle cx="164" cy="123" r="3" fill="#BECBDF"/>
<circle cx="184" cy="123" r="3" fill="#BECBDF"/>
<circle cx="204" cy="123" r="3" fill="#BECBDF"/>
<circle cx="224" cy="123" r="3" fill="#BECBDF"/>
<circle cx="244" cy="123" r="3" fill="#BECBDF"/>
<circle cx="264" cy="123" r="3" fill="#BECBDF"/>
<circle cx="284" cy="123" r="3" fill="#BECBDF"/>
<circle cx="304" cy="123" r="3" fill="#BECBDF"/>
<circle cx="324" cy="123" r="3" fill="#BECBDF"/>
<circle cx="344" cy="123" r="3" fill="#BECBDF"/>
<circle cx="364" cy="123" r="3" fill="#BECBDF"/>
<circle cx="384" cy="123" r="3" fill="#BECBDF"/>
<circle cx="404" cy="123" r="3" fill="#BECBDF"/>
<circle cx="424" cy="123" r="3" fill="#BECBDF"/>
<circle cx="444" cy="123" r="3" fill="#BECBDF"/>
<circle cx="464" cy="123" r="3" fill="#BECBDF"/>
<circle cx="484" cy="123" r="3" fill="#BECBDF"/>
<circle cx="4" cy="143" r="3" fill="#BECBDF"/>
<circle cx="24" cy="143" r="3" fill="#BECBDF"/>
<circle cx="44" cy="143" r="3" fill="#BECBDF"/>
<circle cx="64" cy="143" r="3" fill="#BECBDF"/>
<circle cx="84" cy="143" r="3" fill="#BECBDF"/>
<circle cx="104" cy="143" r="3" fill="#BECBDF"/>
<circle cx="124" cy="143" r="3" fill="#BECBDF"/>
<circle cx="144" cy="143" r="3" fill="#BECBDF"/>
<circle cx="164" cy="143" r="3" fill="#BECBDF"/>
<circle cx="184" cy="143" r="3" fill="#BECBDF"/>
<circle cx="204" cy="143" r="3" fill="#BECBDF"/>
<circle cx="224" cy="143" r="3" fill="#BECBDF"/>
<circle cx="244" cy="143" r="3" fill="#BECBDF"/>
<circle cx="264" cy="143" r="3" fill="#BECBDF"/>
<circle cx="284" cy="143" r="3" fill="#BECBDF"/>
<circle cx="304" cy="143" r="3" fill="#BECBDF"/>
<circle cx="324" cy="143" r="3" fill="#BECBDF"/>
<circle cx="344" cy="143" r="3" fill="#BECBDF"/>
<circle cx="364" cy="143" r="3" fill="#BECBDF"/>
<circle cx="384" cy="143" r="3" fill="#BECBDF"/>
<circle cx="404" cy="143" r="3" fill="#BECBDF"/>
<circle cx="424" cy="143" r="3" fill="#BECBDF"/>
<circle cx="444" cy="143" r="3" fill="#BECBDF"/>
<circle cx="464" cy="143" r="3" fill="#BECBDF"/>
<circle cx="484" cy="143" r="3" fill="#BECBDF"/>
<circle cx="4" cy="163" r="3" fill="#BECBDF"/>
<circle cx="24" cy="163" r="3" fill="#BECBDF"/>
<circle cx="44" cy="163" r="3" fill="#BECBDF"/>
<circle cx="64" cy="163" r="3" fill="#BECBDF"/>
<circle cx="84" cy="163" r="3" fill="#BECBDF"/>
<circle cx="104" cy="163" r="3" fill="#BECBDF"/>
<circle cx="124" cy="163" r="3" fill="#BECBDF"/>
<circle cx="144" cy="163" r="3" fill="#BECBDF"/>
<circle cx="164" cy="163" r="3" fill="#BECBDF"/>
<circle cx="184" cy="163" r="3" fill="#BECBDF"/>
<circle cx="204" cy="163" r="3" fill="#BECBDF"/>
<circle cx="224" cy="163" r="3" fill="#BECBDF"/>
<circle cx="244" cy="163" r="3" fill="#BECBDF"/>
<circle cx="264" cy="163" r="3" fill="#BECBDF"/>
<circle cx="284" cy="163" r="3" fill="#BECBDF"/>
<circle cx="304" cy="163" r="3" fill="#BECBDF"/>
<circle cx="324" cy="163" r="3" fill="#BECBDF"/>
<circle cx="344" cy="163" r="3" fill="#BECBDF"/>
<circle cx="364" cy="163" r="3" fill="#BECBDF"/>
<circle cx="384" cy="163" r="3" fill="#BECBDF"/>
<circle cx="404" cy="163" r="3" fill="#BECBDF"/>
<circle cx="424" cy="163" r="3" fill="#BECBDF"/>
<circle cx="444" cy="163" r="3" fill="#BECBDF"/>
<circle cx="464" cy="163" r="3" fill="#BECBDF"/>
<circle cx="484" cy="163" r="3" fill="#BECBDF"/>
<circle cx="4" cy="183" r="3" fill="#BECBDF"/>
<circle cx="24" cy="183" r="3" fill="#BECBDF"/>
<circle cx="44" cy="183" r="3" fill="#BECBDF"/>
<circle cx="64" cy="183" r="3" fill="#BECBDF"/>
<circle cx="84" cy="183" r="3" fill="#BECBDF"/>
<circle cx="104" cy="183" r="3" fill="#BECBDF"/>
<circle cx="124" cy="183" r="3" fill="#BECBDF"/>
<circle cx="144" cy="183" r="3" fill="#BECBDF"/>
<circle cx="164" cy="183" r="3" fill="#BECBDF"/>
<circle cx="184" cy="183" r="3" fill="#BECBDF"/>
<circle cx="204" cy="183" r="3" fill="#BECBDF"/>
<circle cx="224" cy="183" r="3" fill="#BECBDF"/>
<circle cx="244" cy="183" r="3" fill="#BECBDF"/>
<circle cx="264" cy="183" r="3" fill="#BECBDF"/>
<circle cx="284" cy="183" r="3" fill="#BECBDF"/>
<circle cx="304" cy="183" r="3" fill="#BECBDF"/>
<circle cx="324" cy="183" r="3" fill="#BECBDF"/>
<circle cx="344" cy="183" r="3" fill="#BECBDF"/>
<circle cx="364" cy="183" r="3" fill="#BECBDF"/>
<circle cx="384" cy="183" r="3" fill="#BECBDF"/>
<circle cx="404" cy="183" r="3" fill="#BECBDF"/>
<circle cx="424" cy="183" r="3" fill="#BECBDF"/>
<circle cx="444" cy="183" r="3" fill="#BECBDF"/>
<circle cx="464" cy="183" r="3" fill="#BECBDF"/>
<circle cx="484" cy="183" r="3" fill="#BECBDF"/>
<circle cx="4" cy="203" r="3" fill="#BECBDF"/>
<circle cx="24" cy="203" r="3" fill="#BECBDF"/>
<circle cx="44" cy="203" r="3" fill="#BECBDF"/>
<circle cx="64" cy="203" r="3" fill="#BECBDF"/>
<circle cx="84" cy="203" r="3" fill="#BECBDF"/>
<circle cx="104" cy="203" r="3" fill="#BECBDF"/>
<circle cx="124" cy="203" r="3" fill="#BECBDF"/>
<circle cx="144" cy="203" r="3" fill="#BECBDF"/>
<circle cx="164" cy="203" r="3" fill="#BECBDF"/>
<circle cx="184" cy="203" r="3" fill="#BECBDF"/>
<circle cx="204" cy="203" r="3" fill="#BECBDF"/>
<circle cx="224" cy="203" r="3" fill="#BECBDF"/>
<circle cx="244" cy="203" r="3" fill="#BECBDF"/>
<circle cx="264" cy="203" r="3" fill="#BECBDF"/>
<circle cx="284" cy="203" r="3" fill="#BECBDF"/>
<circle cx="304" cy="203" r="3" fill="#BECBDF"/>
<circle cx="324" cy="203" r="3" fill="#BECBDF"/>
<circle cx="344" cy="203" r="3" fill="#BECBDF"/>
<circle cx="364" cy="203" r="3" fill="#BECBDF"/>
<circle cx="384" cy="203" r="3" fill="#BECBDF"/>
<circle cx="404" cy="203" r="3" fill="#BECBDF"/>
<circle cx="424" cy="203" r="3" fill="#BECBDF"/>
<circle cx="444" cy="203" r="3" fill="#BECBDF"/>
<circle cx="464" cy="203" r="3" fill="#BECBDF"/>
<circle cx="484" cy="203" r="3" fill="#BECBDF"/>
<circle cx="4" cy="223" r="3" fill="#BECBDF"/>
<circle cx="24" cy="223" r="3" fill="#BECBDF"/>
<circle cx="44" cy="223" r="3" fill="#BECBDF"/>
<circle cx="64" cy="223" r="3" fill="#BECBDF"/>
<circle cx="84" cy="223" r="3" fill="#BECBDF"/>
<circle cx="104" cy="223" r="3" fill="#BECBDF"/>
<circle cx="124" cy="223" r="3" fill="#BECBDF"/>
<circle cx="144" cy="223" r="3" fill="#BECBDF"/>
<circle cx="164" cy="223" r="3" fill="#BECBDF"/>
<circle cx="184" cy="223" r="3" fill="#BECBDF"/>
<circle cx="204" cy="223" r="3" fill="#BECBDF"/>
<circle cx="224" cy="223" r="3" fill="#BECBDF"/>
<circle cx="244" cy="223" r="3" fill="#BECBDF"/>
<circle cx="264" cy="223" r="3" fill="#BECBDF"/>
<circle cx="284" cy="223" r="3" fill="#BECBDF"/>
<circle cx="304" cy="223" r="3" fill="#BECBDF"/>
<circle cx="324" cy="223" r="3" fill="#BECBDF"/>
<circle cx="344" cy="223" r="3" fill="#BECBDF"/>
<circle cx="364" cy="223" r="3" fill="#BECBDF"/>
<circle cx="384" cy="223" r="3" fill="#BECBDF"/>
<circle cx="404" cy="223" r="3" fill="#BECBDF"/>
<circle cx="424" cy="223" r="3" fill="#BECBDF"/>
<circle cx="444" cy="223" r="3" fill="#BECBDF"/>
<circle cx="464" cy="223" r="3" fill="#BECBDF"/>
<circle cx="484" cy="223" r="3" fill="#BECBDF"/>
<circle cx="4" cy="243" r="3" fill="#BECBDF"/>
<circle cx="24" cy="243" r="3" fill="#BECBDF"/>
<circle cx="44" cy="243" r="3" fill="#BECBDF"/>
<circle cx="64" cy="243" r="3" fill="#BECBDF"/>
<circle cx="84" cy="243" r="3" fill="#BECBDF"/>
<circle cx="104" cy="243" r="3" fill="#BECBDF"/>
<circle cx="124" cy="243" r="3" fill="#BECBDF"/>
<circle cx="144" cy="243" r="3" fill="#BECBDF"/>
<circle cx="164" cy="243" r="3" fill="#BECBDF"/>
<circle cx="184" cy="243" r="3" fill="#BECBDF"/>
<circle cx="204" cy="243" r="3" fill="#BECBDF"/>
<circle cx="224" cy="243" r="3" fill="#BECBDF"/>
<circle cx="244" cy="243" r="3" fill="#BECBDF"/>
<circle cx="264" cy="243" r="3" fill="#BECBDF"/>
<circle cx="284" cy="243" r="3" fill="#BECBDF"/>
<circle cx="304" cy="243" r="3" fill="#BECBDF"/>
<circle cx="324" cy="243" r="3" fill="#BECBDF"/>
<circle cx="344" cy="243" r="3" fill="#BECBDF"/>
<circle cx="364" cy="243" r="3" fill="#BECBDF"/>
<circle cx="384" cy="243" r="3" fill="#BECBDF"/>
<circle cx="404" cy="243" r="3" fill="#BECBDF"/>
<circle cx="424" cy="243" r="3" fill="#BECBDF"/>
<circle cx="444" cy="243" r="3" fill="#BECBDF"/>
<circle cx="464" cy="243" r="3" fill="#BECBDF"/>
<circle cx="484" cy="243" r="3" fill="#BECBDF"/>
<circle cx="4" cy="263" r="3" fill="#BECBDF"/>
<circle cx="24" cy="263" r="3" fill="#BECBDF"/>
<circle cx="44" cy="263" r="3" fill="#BECBDF"/>
<circle cx="64" cy="263" r="3" fill="#BECBDF"/>
<circle cx="84" cy="263" r="3" fill="#BECBDF"/>
<circle cx="104" cy="263" r="3" fill="#BECBDF"/>
<circle cx="124" cy="263" r="3" fill="#BECBDF"/>
<circle cx="144" cy="263" r="3" fill="#BECBDF"/>
<circle cx="164" cy="263" r="3" fill="#BECBDF"/>
<circle cx="184" cy="263" r="3" fill="#BECBDF"/>
<circle cx="204" cy="263" r="3" fill="#BECBDF"/>
<circle cx="224" cy="263" r="3" fill="#BECBDF"/>
<circle cx="244" cy="263" r="3" fill="#BECBDF"/>
<circle cx="264" cy="263" r="3" fill="#BECBDF"/>
<circle cx="284" cy="263" r="3" fill="#BECBDF"/>
<circle cx="304" cy="263" r="3" fill="#BECBDF"/>
<circle cx="324" cy="263" r="3" fill="#BECBDF"/>
<circle cx="344" cy="263" r="3" fill="#BECBDF"/>
<circle cx="364" cy="263" r="3" fill="#BECBDF"/>
<circle cx="384" cy="263" r="3" fill="#BECBDF"/>
<circle cx="404" cy="263" r="3" fill="#BECBDF"/>
<circle cx="424" cy="263" r="3" fill="#BECBDF"/>
<circle cx="444" cy="263" r="3" fill="#BECBDF"/>
<circle cx="464" cy="263" r="3" fill="#BECBDF"/>
<circle cx="484" cy="263" r="3" fill="#BECBDF"/>
<circle cx="4" cy="283" r="3" fill="#BECBDF"/>
<circle cx="24" cy="283" r="3" fill="#BECBDF"/>
<circle cx="44" cy="283" r="3" fill="#BECBDF"/>
<circle cx="64" cy="283" r="3" fill="#BECBDF"/>
<circle cx="84" cy="283" r="3" fill="#BECBDF"/>
<circle cx="104" cy="283" r="3" fill="#BECBDF"/>
<circle cx="124" cy="283" r="3" fill="#BECBDF"/>
<circle cx="144" cy="283" r="3" fill="#BECBDF"/>
<circle cx="164" cy="283" r="3" fill="#BECBDF"/>
<circle cx="184" cy="283" r="3" fill="#BECBDF"/>
<circle cx="204" cy="283" r="3" fill="#BECBDF"/>
<circle cx="224" cy="283" r="3" fill="#BECBDF"/>
<circle cx="244" cy="283" r="3" fill="#BECBDF"/>
<circle cx="264" cy="283" r="3" fill="#BECBDF"/>
<circle cx="284" cy="283" r="3" fill="#BECBDF"/>
<circle cx="304" cy="283" r="3" fill="#BECBDF"/>
<circle cx="324" cy="283" r="3" fill="#BECBDF"/>
<circle cx="344" cy="283" r="3" fill="#BECBDF"/>
<circle cx="364" cy="283" r="3" fill="#BECBDF"/>
<circle cx="384" cy="283" r="3" fill="#BECBDF"/>
<circle cx="404" cy="283" r="3" fill="#BECBDF"/>
<circle cx="424" cy="283" r="3" fill="#BECBDF"/>
<circle cx="444" cy="283" r="3" fill="#BECBDF"/>
<circle cx="464" cy="283" r="3" fill="#BECBDF"/>
<circle cx="484" cy="283" r="3" fill="#BECBDF"/>
<circle cx="4" cy="303" r="3" fill="#BECBDF"/>
<circle cx="24" cy="303" r="3" fill="#BECBDF"/>
<circle cx="44" cy="303" r="3" fill="#BECBDF"/>
<circle cx="64" cy="303" r="3" fill="#BECBDF"/>
<circle cx="84" cy="303" r="3" fill="#BECBDF"/>
<circle cx="104" cy="303" r="3" fill="#BECBDF"/>
<circle cx="124" cy="303" r="3" fill="#BECBDF"/>
<circle cx="144" cy="303" r="3" fill="#BECBDF"/>
<circle cx="164" cy="303" r="3" fill="#BECBDF"/>
<circle cx="184" cy="303" r="3" fill="#BECBDF"/>
<circle cx="204" cy="303" r="3" fill="#BECBDF"/>
<circle cx="224" cy="303" r="3" fill="#BECBDF"/>
<circle cx="244" cy="303" r="3" fill="#BECBDF"/>
<circle cx="264" cy="303" r="3" fill="#BECBDF"/>
<circle cx="284" cy="303" r="3" fill="#BECBDF"/>
<circle cx="304" cy="303" r="3" fill="#BECBDF"/>
<circle cx="324" cy="303" r="3" fill="#BECBDF"/>
<circle cx="344" cy="303" r="3" fill="#BECBDF"/>
<circle cx="364" cy="303" r="3" fill="#BECBDF"/>
<circle cx="384" cy="303" r="3" fill="#BECBDF"/>
<circle cx="404" cy="303" r="3" fill="#BECBDF"/>
<circle cx="424" cy="303" r="3" fill="#BECBDF"/>
<circle cx="444" cy="303" r="3" fill="#BECBDF"/>
<circle cx="464" cy="303" r="3" fill="#BECBDF"/>
<circle cx="484" cy="303" r="3" fill="#BECBDF"/>
<circle cx="4" cy="323" r="3" fill="#BECBDF"/>
<circle cx="24" cy="323" r="3" fill="#BECBDF"/>
<circle cx="44" cy="323" r="3" fill="#BECBDF"/>
<circle cx="64" cy="323" r="3" fill="#BECBDF"/>
<circle cx="84" cy="323" r="3" fill="#BECBDF"/>
<circle cx="104" cy="323" r="3" fill="#BECBDF"/>
<circle cx="124" cy="323" r="3" fill="#BECBDF"/>
<circle cx="144" cy="323" r="3" fill="#BECBDF"/>
<circle cx="164" cy="323" r="3" fill="#BECBDF"/>
<circle cx="184" cy="323" r="3" fill="#BECBDF"/>
<circle cx="204" cy="323" r="3" fill="#BECBDF"/>
<circle cx="224" cy="323" r="3" fill="#BECBDF"/>
<circle cx="244" cy="323" r="3" fill="#BECBDF"/>
<circle cx="264" cy="323" r="3" fill="#BECBDF"/>
<circle cx="284" cy="323" r="3" fill="#BECBDF"/>
<circle cx="304" cy="323" r="3" fill="#BECBDF"/>
<circle cx="324" cy="323" r="3" fill="#BECBDF"/>
<circle cx="344" cy="323" r="3" fill="#BECBDF"/>
<circle cx="364" cy="323" r="3" fill="#BECBDF"/>
<circle cx="384" cy="323" r="3" fill="#BECBDF"/>
<circle cx="404" cy="323" r="3" fill="#BECBDF"/>
<circle cx="424" cy="323" r="3" fill="#BECBDF"/>
<circle cx="444" cy="323" r="3" fill="#BECBDF"/>
<circle cx="464" cy="323" r="3" fill="#BECBDF"/>
<circle cx="484" cy="323" r="3" fill="#BECBDF"/>
<circle cx="4" cy="343" r="3" fill="#BECBDF"/>
<circle cx="24" cy="343" r="3" fill="#BECBDF"/>
<circle cx="44" cy="343" r="3" fill="#BECBDF"/>
<circle cx="64" cy="343" r="3" fill="#BECBDF"/>
<circle cx="84" cy="343" r="3" fill="#BECBDF"/>
<circle cx="104" cy="343" r="3" fill="#BECBDF"/>
<circle cx="124" cy="343" r="3" fill="#BECBDF"/>
<circle cx="144" cy="343" r="3" fill="#BECBDF"/>
<circle cx="164" cy="343" r="3" fill="#BECBDF"/>
<circle cx="184" cy="343" r="3" fill="#BECBDF"/>
<circle cx="204" cy="343" r="3" fill="#BECBDF"/>
<circle cx="224" cy="343" r="3" fill="#BECBDF"/>
<circle cx="244" cy="343" r="3" fill="#BECBDF"/>
<circle cx="264" cy="343" r="3" fill="#BECBDF"/>
<circle cx="284" cy="343" r="3" fill="#BECBDF"/>
<circle cx="304" cy="343" r="3" fill="#BECBDF"/>
<circle cx="324" cy="343" r="3" fill="#BECBDF"/>
<circle cx="344" cy="343" r="3" fill="#BECBDF"/>
<circle cx="364" cy="343" r="3" fill="#BECBDF"/>
<circle cx="384" cy="343" r="3" fill="#BECBDF"/>
<circle cx="404" cy="343" r="3" fill="#BECBDF"/>
<circle cx="424" cy="343" r="3" fill="#BECBDF"/>
<circle cx="444" cy="343" r="3" fill="#BECBDF"/>
<circle cx="464" cy="343" r="3" fill="#BECBDF"/>
<circle cx="484" cy="343" r="3" fill="#BECBDF"/>
<circle cx="4" cy="363" r="3" fill="#BECBDF"/>
<circle cx="24" cy="363" r="3" fill="#BECBDF"/>
<circle cx="44" cy="363" r="3" fill="#BECBDF"/>
<circle cx="64" cy="363" r="3" fill="#BECBDF"/>
<circle cx="84" cy="363" r="3" fill="#BECBDF"/>
<circle cx="104" cy="363" r="3" fill="#BECBDF"/>
<circle cx="124" cy="363" r="3" fill="#BECBDF"/>
<circle cx="144" cy="363" r="3" fill="#BECBDF"/>
<circle cx="164" cy="363" r="3" fill="#BECBDF"/>
<circle cx="184" cy="363" r="3" fill="#BECBDF"/>
<circle cx="204" cy="363" r="3" fill="#BECBDF"/>
<circle cx="224" cy="363" r="3" fill="#BECBDF"/>
<circle cx="244" cy="363" r="3" fill="#BECBDF"/>
<circle cx="264" cy="363" r="3" fill="#BECBDF"/>
<circle cx="284" cy="363" r="3" fill="#BECBDF"/>
<circle cx="304" cy="363" r="3" fill="#BECBDF"/>
<circle cx="324" cy="363" r="3" fill="#BECBDF"/>
<circle cx="344" cy="363" r="3" fill="#BECBDF"/>
<circle cx="364" cy="363" r="3" fill="#BECBDF"/>
<circle cx="384" cy="363" r="3" fill="#BECBDF"/>
<circle cx="404" cy="363" r="3" fill="#BECBDF"/>
<circle cx="424" cy="363" r="3" fill="#BECBDF"/>
<circle cx="444" cy="363" r="3" fill="#BECBDF"/>
<circle cx="464" cy="363" r="3" fill="#BECBDF"/>
<circle cx="484" cy="363" r="3" fill="#BECBDF"/>
<circle cx="4" cy="383" r="3" fill="#BECBDF"/>
<circle cx="24" cy="383" r="3" fill="#BECBDF"/>
<circle cx="44" cy="383" r="3" fill="#BECBDF"/>
<circle cx="64" cy="383" r="3" fill="#BECBDF"/>
<circle cx="84" cy="383" r="3" fill="#BECBDF"/>
<circle cx="104" cy="383" r="3" fill="#BECBDF"/>
<circle cx="124" cy="383" r="3" fill="#BECBDF"/>
<circle cx="144" cy="383" r="3" fill="#BECBDF"/>
<circle cx="164" cy="383" r="3" fill="#BECBDF"/>
<circle cx="184" cy="383" r="3" fill="#BECBDF"/>
<circle cx="204" cy="383" r="3" fill="#BECBDF"/>
<circle cx="224" cy="383" r="3" fill="#BECBDF"/>
<circle cx="244" cy="383" r="3" fill="#BECBDF"/>
<circle cx="264" cy="383" r="3" fill="#BECBDF"/>
<circle cx="284" cy="383" r="3" fill="#BECBDF"/>
<circle cx="304" cy="383" r="3" fill="#BECBDF"/>
<circle cx="324" cy="383" r="3" fill="#BECBDF"/>
<circle cx="344" cy="383" r="3" fill="#BECBDF"/>
<circle cx="364" cy="383" r="3" fill="#BECBDF"/>
<circle cx="384" cy="383" r="3" fill="#BECBDF"/>
<circle cx="404" cy="383" r="3" fill="#BECBDF"/>
<circle cx="424" cy="383" r="3" fill="#BECBDF"/>
<circle cx="444" cy="383" r="3" fill="#BECBDF"/>
<circle cx="464" cy="383" r="3" fill="#BECBDF"/>
<circle cx="484" cy="383" r="3" fill="#BECBDF"/>
</g>
</svg>
