<svg width="385" height="386" viewBox="0 0 385 386" fill="none" xmlns="http://www.w3.org/2000/svg">
<g opacity="0.3">
<circle cx="2" cy="3" r="3" fill="#BECBDF"/>
<circle cx="22" cy="3" r="3" fill="#BECBDF"/>
<circle cx="42" cy="3" r="3" fill="#BECBDF"/>
<circle cx="62" cy="3" r="3" fill="#BECBDF"/>
<circle cx="82" cy="3" r="3" fill="#BECBDF"/>
<circle cx="102" cy="3" r="3" fill="#BECBDF"/>
<circle cx="122" cy="3" r="3" fill="#BECBDF"/>
<circle cx="142" cy="3" r="3" fill="#BECBDF"/>
<circle cx="162" cy="3" r="3" fill="#BECBDF"/>
<circle cx="182" cy="3" r="3" fill="#BECBDF"/>
<circle cx="202" cy="3" r="3" fill="#BECBDF"/>
<circle cx="222" cy="3" r="3" fill="#BECBDF"/>
<circle cx="242" cy="3" r="3" fill="#BECBDF"/>
<circle cx="262" cy="3" r="3" fill="#BECBDF"/>
<circle cx="282" cy="3" r="3" fill="#BECBDF"/>
<circle cx="302" cy="3" r="3" fill="#BECBDF"/>
<circle cx="322" cy="3" r="3" fill="#BECBDF"/>
<circle cx="342" cy="3" r="3" fill="#BECBDF"/>
<circle cx="362" cy="3" r="3" fill="#BECBDF"/>
<circle cx="382" cy="3" r="3" fill="#BECBDF"/>
<circle cx="2" cy="23" r="3" fill="#BECBDF"/>
<circle cx="22" cy="23" r="3" fill="#BECBDF"/>
<circle cx="42" cy="23" r="3" fill="#BECBDF"/>
<circle cx="62" cy="23" r="3" fill="#BECBDF"/>
<circle cx="82" cy="23" r="3" fill="#BECBDF"/>
<circle cx="102" cy="23" r="3" fill="#BECBDF"/>
<circle cx="122" cy="23" r="3" fill="#BECBDF"/>
<circle cx="142" cy="23" r="3" fill="#BECBDF"/>
<circle cx="162" cy="23" r="3" fill="#BECBDF"/>
<circle cx="182" cy="23" r="3" fill="#BECBDF"/>
<circle cx="202" cy="23" r="3" fill="#BECBDF"/>
<circle cx="222" cy="23" r="3" fill="#BECBDF"/>
<circle cx="242" cy="23" r="3" fill="#BECBDF"/>
<circle cx="262" cy="23" r="3" fill="#BECBDF"/>
<circle cx="282" cy="23" r="3" fill="#BECBDF"/>
<circle cx="302" cy="23" r="3" fill="#BECBDF"/>
<circle cx="322" cy="23" r="3" fill="#BECBDF"/>
<circle cx="342" cy="23" r="3" fill="#BECBDF"/>
<circle cx="362" cy="23" r="3" fill="#BECBDF"/>
<circle cx="382" cy="23" r="3" fill="#BECBDF"/>
<circle cx="2" cy="43" r="3" fill="#BECBDF"/>
<circle cx="22" cy="43" r="3" fill="#BECBDF"/>
<circle cx="42" cy="43" r="3" fill="#BECBDF"/>
<circle cx="62" cy="43" r="3" fill="#BECBDF"/>
<circle cx="82" cy="43" r="3" fill="#BECBDF"/>
<circle cx="102" cy="43" r="3" fill="#BECBDF"/>
<circle cx="122" cy="43" r="3" fill="#BECBDF"/>
<circle cx="142" cy="43" r="3" fill="#BECBDF"/>
<circle cx="162" cy="43" r="3" fill="#BECBDF"/>
<circle cx="182" cy="43" r="3" fill="#BECBDF"/>
<circle cx="202" cy="43" r="3" fill="#BECBDF"/>
<circle cx="222" cy="43" r="3" fill="#BECBDF"/>
<circle cx="242" cy="43" r="3" fill="#BECBDF"/>
<circle cx="262" cy="43" r="3" fill="#BECBDF"/>
<circle cx="282" cy="43" r="3" fill="#BECBDF"/>
<circle cx="302" cy="43" r="3" fill="#BECBDF"/>
<circle cx="322" cy="43" r="3" fill="#BECBDF"/>
<circle cx="342" cy="43" r="3" fill="#BECBDF"/>
<circle cx="362" cy="43" r="3" fill="#BECBDF"/>
<circle cx="382" cy="43" r="3" fill="#BECBDF"/>
<circle cx="2" cy="63" r="3" fill="#BECBDF"/>
<circle cx="22" cy="63" r="3" fill="#BECBDF"/>
<circle cx="42" cy="63" r="3" fill="#BECBDF"/>
<circle cx="62" cy="63" r="3" fill="#BECBDF"/>
<circle cx="82" cy="63" r="3" fill="#BECBDF"/>
<circle cx="102" cy="63" r="3" fill="#BECBDF"/>
<circle cx="122" cy="63" r="3" fill="#BECBDF"/>
<circle cx="142" cy="63" r="3" fill="#BECBDF"/>
<circle cx="162" cy="63" r="3" fill="#BECBDF"/>
<circle cx="182" cy="63" r="3" fill="#BECBDF"/>
<circle cx="202" cy="63" r="3" fill="#BECBDF"/>
<circle cx="222" cy="63" r="3" fill="#BECBDF"/>
<circle cx="242" cy="63" r="3" fill="#BECBDF"/>
<circle cx="262" cy="63" r="3" fill="#BECBDF"/>
<circle cx="282" cy="63" r="3" fill="#BECBDF"/>
<circle cx="302" cy="63" r="3" fill="#BECBDF"/>
<circle cx="322" cy="63" r="3" fill="#BECBDF"/>
<circle cx="342" cy="63" r="3" fill="#BECBDF"/>
<circle cx="362" cy="63" r="3" fill="#BECBDF"/>
<circle cx="382" cy="63" r="3" fill="#BECBDF"/>
<circle cx="2" cy="83" r="3" fill="#BECBDF"/>
<circle cx="22" cy="83" r="3" fill="#BECBDF"/>
<circle cx="42" cy="83" r="3" fill="#BECBDF"/>
<circle cx="62" cy="83" r="3" fill="#BECBDF"/>
<circle cx="82" cy="83" r="3" fill="#BECBDF"/>
<circle cx="102" cy="83" r="3" fill="#BECBDF"/>
<circle cx="122" cy="83" r="3" fill="#BECBDF"/>
<circle cx="142" cy="83" r="3" fill="#BECBDF"/>
<circle cx="162" cy="83" r="3" fill="#BECBDF"/>
<circle cx="182" cy="83" r="3" fill="#BECBDF"/>
<circle cx="202" cy="83" r="3" fill="#BECBDF"/>
<circle cx="222" cy="83" r="3" fill="#BECBDF"/>
<circle cx="242" cy="83" r="3" fill="#BECBDF"/>
<circle cx="262" cy="83" r="3" fill="#BECBDF"/>
<circle cx="282" cy="83" r="3" fill="#BECBDF"/>
<circle cx="302" cy="83" r="3" fill="#BECBDF"/>
<circle cx="322" cy="83" r="3" fill="#BECBDF"/>
<circle cx="342" cy="83" r="3" fill="#BECBDF"/>
<circle cx="362" cy="83" r="3" fill="#BECBDF"/>
<circle cx="382" cy="83" r="3" fill="#BECBDF"/>
<circle cx="2" cy="103" r="3" fill="#BECBDF"/>
<circle cx="22" cy="103" r="3" fill="#BECBDF"/>
<circle cx="42" cy="103" r="3" fill="#BECBDF"/>
<circle cx="62" cy="103" r="3" fill="#BECBDF"/>
<circle cx="82" cy="103" r="3" fill="#BECBDF"/>
<circle cx="102" cy="103" r="3" fill="#BECBDF"/>
<circle cx="122" cy="103" r="3" fill="#BECBDF"/>
<circle cx="142" cy="103" r="3" fill="#BECBDF"/>
<circle cx="162" cy="103" r="3" fill="#BECBDF"/>
<circle cx="182" cy="103" r="3" fill="#BECBDF"/>
<circle cx="202" cy="103" r="3" fill="#BECBDF"/>
<circle cx="222" cy="103" r="3" fill="#BECBDF"/>
<circle cx="242" cy="103" r="3" fill="#BECBDF"/>
<circle cx="262" cy="103" r="3" fill="#BECBDF"/>
<circle cx="282" cy="103" r="3" fill="#BECBDF"/>
<circle cx="302" cy="103" r="3" fill="#BECBDF"/>
<circle cx="322" cy="103" r="3" fill="#BECBDF"/>
<circle cx="342" cy="103" r="3" fill="#BECBDF"/>
<circle cx="362" cy="103" r="3" fill="#BECBDF"/>
<circle cx="382" cy="103" r="3" fill="#BECBDF"/>
<circle cx="2" cy="123" r="3" fill="#BECBDF"/>
<circle cx="22" cy="123" r="3" fill="#BECBDF"/>
<circle cx="42" cy="123" r="3" fill="#BECBDF"/>
<circle cx="62" cy="123" r="3" fill="#BECBDF"/>
<circle cx="82" cy="123" r="3" fill="#BECBDF"/>
<circle cx="102" cy="123" r="3" fill="#BECBDF"/>
<circle cx="122" cy="123" r="3" fill="#BECBDF"/>
<circle cx="142" cy="123" r="3" fill="#BECBDF"/>
<circle cx="162" cy="123" r="3" fill="#BECBDF"/>
<circle cx="182" cy="123" r="3" fill="#BECBDF"/>
<circle cx="202" cy="123" r="3" fill="#BECBDF"/>
<circle cx="222" cy="123" r="3" fill="#BECBDF"/>
<circle cx="242" cy="123" r="3" fill="#BECBDF"/>
<circle cx="262" cy="123" r="3" fill="#BECBDF"/>
<circle cx="282" cy="123" r="3" fill="#BECBDF"/>
<circle cx="302" cy="123" r="3" fill="#BECBDF"/>
<circle cx="322" cy="123" r="3" fill="#BECBDF"/>
<circle cx="342" cy="123" r="3" fill="#BECBDF"/>
<circle cx="362" cy="123" r="3" fill="#BECBDF"/>
<circle cx="382" cy="123" r="3" fill="#BECBDF"/>
<circle cx="2" cy="143" r="3" fill="#BECBDF"/>
<circle cx="22" cy="143" r="3" fill="#BECBDF"/>
<circle cx="42" cy="143" r="3" fill="#BECBDF"/>
<circle cx="62" cy="143" r="3" fill="#BECBDF"/>
<circle cx="82" cy="143" r="3" fill="#BECBDF"/>
<circle cx="102" cy="143" r="3" fill="#BECBDF"/>
<circle cx="122" cy="143" r="3" fill="#BECBDF"/>
<circle cx="142" cy="143" r="3" fill="#BECBDF"/>
<circle cx="162" cy="143" r="3" fill="#BECBDF"/>
<circle cx="182" cy="143" r="3" fill="#BECBDF"/>
<circle cx="202" cy="143" r="3" fill="#BECBDF"/>
<circle cx="222" cy="143" r="3" fill="#BECBDF"/>
<circle cx="242" cy="143" r="3" fill="#BECBDF"/>
<circle cx="262" cy="143" r="3" fill="#BECBDF"/>
<circle cx="282" cy="143" r="3" fill="#BECBDF"/>
<circle cx="302" cy="143" r="3" fill="#BECBDF"/>
<circle cx="322" cy="143" r="3" fill="#BECBDF"/>
<circle cx="342" cy="143" r="3" fill="#BECBDF"/>
<circle cx="362" cy="143" r="3" fill="#BECBDF"/>
<circle cx="382" cy="143" r="3" fill="#BECBDF"/>
<circle cx="2" cy="163" r="3" fill="#BECBDF"/>
<circle cx="22" cy="163" r="3" fill="#BECBDF"/>
<circle cx="42" cy="163" r="3" fill="#BECBDF"/>
<circle cx="62" cy="163" r="3" fill="#BECBDF"/>
<circle cx="82" cy="163" r="3" fill="#BECBDF"/>
<circle cx="102" cy="163" r="3" fill="#BECBDF"/>
<circle cx="122" cy="163" r="3" fill="#BECBDF"/>
<circle cx="142" cy="163" r="3" fill="#BECBDF"/>
<circle cx="162" cy="163" r="3" fill="#BECBDF"/>
<circle cx="182" cy="163" r="3" fill="#BECBDF"/>
<circle cx="202" cy="163" r="3" fill="#BECBDF"/>
<circle cx="222" cy="163" r="3" fill="#BECBDF"/>
<circle cx="242" cy="163" r="3" fill="#BECBDF"/>
<circle cx="262" cy="163" r="3" fill="#BECBDF"/>
<circle cx="282" cy="163" r="3" fill="#BECBDF"/>
<circle cx="302" cy="163" r="3" fill="#BECBDF"/>
<circle cx="322" cy="163" r="3" fill="#BECBDF"/>
<circle cx="342" cy="163" r="3" fill="#BECBDF"/>
<circle cx="362" cy="163" r="3" fill="#BECBDF"/>
<circle cx="382" cy="163" r="3" fill="#BECBDF"/>
<circle cx="2" cy="183" r="3" fill="#BECBDF"/>
<circle cx="22" cy="183" r="3" fill="#BECBDF"/>
<circle cx="42" cy="183" r="3" fill="#BECBDF"/>
<circle cx="62" cy="183" r="3" fill="#BECBDF"/>
<circle cx="82" cy="183" r="3" fill="#BECBDF"/>
<circle cx="102" cy="183" r="3" fill="#BECBDF"/>
<circle cx="122" cy="183" r="3" fill="#BECBDF"/>
<circle cx="142" cy="183" r="3" fill="#BECBDF"/>
<circle cx="162" cy="183" r="3" fill="#BECBDF"/>
<circle cx="182" cy="183" r="3" fill="#BECBDF"/>
<circle cx="202" cy="183" r="3" fill="#BECBDF"/>
<circle cx="222" cy="183" r="3" fill="#BECBDF"/>
<circle cx="242" cy="183" r="3" fill="#BECBDF"/>
<circle cx="262" cy="183" r="3" fill="#BECBDF"/>
<circle cx="282" cy="183" r="3" fill="#BECBDF"/>
<circle cx="302" cy="183" r="3" fill="#BECBDF"/>
<circle cx="322" cy="183" r="3" fill="#BECBDF"/>
<circle cx="342" cy="183" r="3" fill="#BECBDF"/>
<circle cx="362" cy="183" r="3" fill="#BECBDF"/>
<circle cx="382" cy="183" r="3" fill="#BECBDF"/>
<circle cx="2" cy="203" r="3" fill="#BECBDF"/>
<circle cx="22" cy="203" r="3" fill="#BECBDF"/>
<circle cx="42" cy="203" r="3" fill="#BECBDF"/>
<circle cx="62" cy="203" r="3" fill="#BECBDF"/>
<circle cx="82" cy="203" r="3" fill="#BECBDF"/>
<circle cx="102" cy="203" r="3" fill="#BECBDF"/>
<circle cx="122" cy="203" r="3" fill="#BECBDF"/>
<circle cx="142" cy="203" r="3" fill="#BECBDF"/>
<circle cx="162" cy="203" r="3" fill="#BECBDF"/>
<circle cx="182" cy="203" r="3" fill="#BECBDF"/>
<circle cx="202" cy="203" r="3" fill="#BECBDF"/>
<circle cx="222" cy="203" r="3" fill="#BECBDF"/>
<circle cx="242" cy="203" r="3" fill="#BECBDF"/>
<circle cx="262" cy="203" r="3" fill="#BECBDF"/>
<circle cx="282" cy="203" r="3" fill="#BECBDF"/>
<circle cx="302" cy="203" r="3" fill="#BECBDF"/>
<circle cx="322" cy="203" r="3" fill="#BECBDF"/>
<circle cx="342" cy="203" r="3" fill="#BECBDF"/>
<circle cx="362" cy="203" r="3" fill="#BECBDF"/>
<circle cx="382" cy="203" r="3" fill="#BECBDF"/>
<circle cx="2" cy="223" r="3" fill="#BECBDF"/>
<circle cx="22" cy="223" r="3" fill="#BECBDF"/>
<circle cx="42" cy="223" r="3" fill="#BECBDF"/>
<circle cx="62" cy="223" r="3" fill="#BECBDF"/>
<circle cx="82" cy="223" r="3" fill="#BECBDF"/>
<circle cx="102" cy="223" r="3" fill="#BECBDF"/>
<circle cx="122" cy="223" r="3" fill="#BECBDF"/>
<circle cx="142" cy="223" r="3" fill="#BECBDF"/>
<circle cx="162" cy="223" r="3" fill="#BECBDF"/>
<circle cx="182" cy="223" r="3" fill="#BECBDF"/>
<circle cx="202" cy="223" r="3" fill="#BECBDF"/>
<circle cx="222" cy="223" r="3" fill="#BECBDF"/>
<circle cx="242" cy="223" r="3" fill="#BECBDF"/>
<circle cx="262" cy="223" r="3" fill="#BECBDF"/>
<circle cx="282" cy="223" r="3" fill="#BECBDF"/>
<circle cx="302" cy="223" r="3" fill="#BECBDF"/>
<circle cx="322" cy="223" r="3" fill="#BECBDF"/>
<circle cx="342" cy="223" r="3" fill="#BECBDF"/>
<circle cx="362" cy="223" r="3" fill="#BECBDF"/>
<circle cx="382" cy="223" r="3" fill="#BECBDF"/>
<circle cx="2" cy="243" r="3" fill="#BECBDF"/>
<circle cx="22" cy="243" r="3" fill="#BECBDF"/>
<circle cx="42" cy="243" r="3" fill="#BECBDF"/>
<circle cx="62" cy="243" r="3" fill="#BECBDF"/>
<circle cx="82" cy="243" r="3" fill="#BECBDF"/>
<circle cx="102" cy="243" r="3" fill="#BECBDF"/>
<circle cx="122" cy="243" r="3" fill="#BECBDF"/>
<circle cx="142" cy="243" r="3" fill="#BECBDF"/>
<circle cx="162" cy="243" r="3" fill="#BECBDF"/>
<circle cx="182" cy="243" r="3" fill="#BECBDF"/>
<circle cx="202" cy="243" r="3" fill="#BECBDF"/>
<circle cx="222" cy="243" r="3" fill="#BECBDF"/>
<circle cx="242" cy="243" r="3" fill="#BECBDF"/>
<circle cx="262" cy="243" r="3" fill="#BECBDF"/>
<circle cx="282" cy="243" r="3" fill="#BECBDF"/>
<circle cx="302" cy="243" r="3" fill="#BECBDF"/>
<circle cx="322" cy="243" r="3" fill="#BECBDF"/>
<circle cx="342" cy="243" r="3" fill="#BECBDF"/>
<circle cx="362" cy="243" r="3" fill="#BECBDF"/>
<circle cx="382" cy="243" r="3" fill="#BECBDF"/>
<circle cx="2" cy="263" r="3" fill="#BECBDF"/>
<circle cx="22" cy="263" r="3" fill="#BECBDF"/>
<circle cx="42" cy="263" r="3" fill="#BECBDF"/>
<circle cx="62" cy="263" r="3" fill="#BECBDF"/>
<circle cx="82" cy="263" r="3" fill="#BECBDF"/>
<circle cx="102" cy="263" r="3" fill="#BECBDF"/>
<circle cx="122" cy="263" r="3" fill="#BECBDF"/>
<circle cx="142" cy="263" r="3" fill="#BECBDF"/>
<circle cx="162" cy="263" r="3" fill="#BECBDF"/>
<circle cx="182" cy="263" r="3" fill="#BECBDF"/>
<circle cx="202" cy="263" r="3" fill="#BECBDF"/>
<circle cx="222" cy="263" r="3" fill="#BECBDF"/>
<circle cx="242" cy="263" r="3" fill="#BECBDF"/>
<circle cx="262" cy="263" r="3" fill="#BECBDF"/>
<circle cx="282" cy="263" r="3" fill="#BECBDF"/>
<circle cx="302" cy="263" r="3" fill="#BECBDF"/>
<circle cx="322" cy="263" r="3" fill="#BECBDF"/>
<circle cx="342" cy="263" r="3" fill="#BECBDF"/>
<circle cx="362" cy="263" r="3" fill="#BECBDF"/>
<circle cx="382" cy="263" r="3" fill="#BECBDF"/>
<circle cx="2" cy="283" r="3" fill="#BECBDF"/>
<circle cx="22" cy="283" r="3" fill="#BECBDF"/>
<circle cx="42" cy="283" r="3" fill="#BECBDF"/>
<circle cx="62" cy="283" r="3" fill="#BECBDF"/>
<circle cx="82" cy="283" r="3" fill="#BECBDF"/>
<circle cx="102" cy="283" r="3" fill="#BECBDF"/>
<circle cx="122" cy="283" r="3" fill="#BECBDF"/>
<circle cx="142" cy="283" r="3" fill="#BECBDF"/>
<circle cx="162" cy="283" r="3" fill="#BECBDF"/>
<circle cx="182" cy="283" r="3" fill="#BECBDF"/>
<circle cx="202" cy="283" r="3" fill="#BECBDF"/>
<circle cx="222" cy="283" r="3" fill="#BECBDF"/>
<circle cx="242" cy="283" r="3" fill="#BECBDF"/>
<circle cx="262" cy="283" r="3" fill="#BECBDF"/>
<circle cx="282" cy="283" r="3" fill="#BECBDF"/>
<circle cx="302" cy="283" r="3" fill="#BECBDF"/>
<circle cx="322" cy="283" r="3" fill="#BECBDF"/>
<circle cx="342" cy="283" r="3" fill="#BECBDF"/>
<circle cx="362" cy="283" r="3" fill="#BECBDF"/>
<circle cx="382" cy="283" r="3" fill="#BECBDF"/>
<circle cx="2" cy="303" r="3" fill="#BECBDF"/>
<circle cx="22" cy="303" r="3" fill="#BECBDF"/>
<circle cx="42" cy="303" r="3" fill="#BECBDF"/>
<circle cx="62" cy="303" r="3" fill="#BECBDF"/>
<circle cx="82" cy="303" r="3" fill="#BECBDF"/>
<circle cx="102" cy="303" r="3" fill="#BECBDF"/>
<circle cx="122" cy="303" r="3" fill="#BECBDF"/>
<circle cx="142" cy="303" r="3" fill="#BECBDF"/>
<circle cx="162" cy="303" r="3" fill="#BECBDF"/>
<circle cx="182" cy="303" r="3" fill="#BECBDF"/>
<circle cx="202" cy="303" r="3" fill="#BECBDF"/>
<circle cx="222" cy="303" r="3" fill="#BECBDF"/>
<circle cx="242" cy="303" r="3" fill="#BECBDF"/>
<circle cx="262" cy="303" r="3" fill="#BECBDF"/>
<circle cx="282" cy="303" r="3" fill="#BECBDF"/>
<circle cx="302" cy="303" r="3" fill="#BECBDF"/>
<circle cx="322" cy="303" r="3" fill="#BECBDF"/>
<circle cx="342" cy="303" r="3" fill="#BECBDF"/>
<circle cx="362" cy="303" r="3" fill="#BECBDF"/>
<circle cx="382" cy="303" r="3" fill="#BECBDF"/>
<circle cx="2" cy="323" r="3" fill="#BECBDF"/>
<circle cx="22" cy="323" r="3" fill="#BECBDF"/>
<circle cx="42" cy="323" r="3" fill="#BECBDF"/>
<circle cx="62" cy="323" r="3" fill="#BECBDF"/>
<circle cx="82" cy="323" r="3" fill="#BECBDF"/>
<circle cx="102" cy="323" r="3" fill="#BECBDF"/>
<circle cx="122" cy="323" r="3" fill="#BECBDF"/>
<circle cx="142" cy="323" r="3" fill="#BECBDF"/>
<circle cx="162" cy="323" r="3" fill="#BECBDF"/>
<circle cx="182" cy="323" r="3" fill="#BECBDF"/>
<circle cx="202" cy="323" r="3" fill="#BECBDF"/>
<circle cx="222" cy="323" r="3" fill="#BECBDF"/>
<circle cx="242" cy="323" r="3" fill="#BECBDF"/>
<circle cx="262" cy="323" r="3" fill="#BECBDF"/>
<circle cx="282" cy="323" r="3" fill="#BECBDF"/>
<circle cx="302" cy="323" r="3" fill="#BECBDF"/>
<circle cx="322" cy="323" r="3" fill="#BECBDF"/>
<circle cx="342" cy="323" r="3" fill="#BECBDF"/>
<circle cx="362" cy="323" r="3" fill="#BECBDF"/>
<circle cx="382" cy="323" r="3" fill="#BECBDF"/>
<circle cx="2" cy="343" r="3" fill="#BECBDF"/>
<circle cx="22" cy="343" r="3" fill="#BECBDF"/>
<circle cx="42" cy="343" r="3" fill="#BECBDF"/>
<circle cx="62" cy="343" r="3" fill="#BECBDF"/>
<circle cx="82" cy="343" r="3" fill="#BECBDF"/>
<circle cx="102" cy="343" r="3" fill="#BECBDF"/>
<circle cx="122" cy="343" r="3" fill="#BECBDF"/>
<circle cx="142" cy="343" r="3" fill="#BECBDF"/>
<circle cx="162" cy="343" r="3" fill="#BECBDF"/>
<circle cx="182" cy="343" r="3" fill="#BECBDF"/>
<circle cx="202" cy="343" r="3" fill="#BECBDF"/>
<circle cx="222" cy="343" r="3" fill="#BECBDF"/>
<circle cx="242" cy="343" r="3" fill="#BECBDF"/>
<circle cx="262" cy="343" r="3" fill="#BECBDF"/>
<circle cx="282" cy="343" r="3" fill="#BECBDF"/>
<circle cx="302" cy="343" r="3" fill="#BECBDF"/>
<circle cx="322" cy="343" r="3" fill="#BECBDF"/>
<circle cx="342" cy="343" r="3" fill="#BECBDF"/>
<circle cx="362" cy="343" r="3" fill="#BECBDF"/>
<circle cx="382" cy="343" r="3" fill="#BECBDF"/>
<circle cx="2" cy="363" r="3" fill="#BECBDF"/>
<circle cx="22" cy="363" r="3" fill="#BECBDF"/>
<circle cx="42" cy="363" r="3" fill="#BECBDF"/>
<circle cx="62" cy="363" r="3" fill="#BECBDF"/>
<circle cx="82" cy="363" r="3" fill="#BECBDF"/>
<circle cx="102" cy="363" r="3" fill="#BECBDF"/>
<circle cx="122" cy="363" r="3" fill="#BECBDF"/>
<circle cx="142" cy="363" r="3" fill="#BECBDF"/>
<circle cx="162" cy="363" r="3" fill="#BECBDF"/>
<circle cx="182" cy="363" r="3" fill="#BECBDF"/>
<circle cx="202" cy="363" r="3" fill="#BECBDF"/>
<circle cx="222" cy="363" r="3" fill="#BECBDF"/>
<circle cx="242" cy="363" r="3" fill="#BECBDF"/>
<circle cx="262" cy="363" r="3" fill="#BECBDF"/>
<circle cx="282" cy="363" r="3" fill="#BECBDF"/>
<circle cx="302" cy="363" r="3" fill="#BECBDF"/>
<circle cx="322" cy="363" r="3" fill="#BECBDF"/>
<circle cx="342" cy="363" r="3" fill="#BECBDF"/>
<circle cx="362" cy="363" r="3" fill="#BECBDF"/>
<circle cx="382" cy="363" r="3" fill="#BECBDF"/>
<circle cx="2" cy="383" r="3" fill="#BECBDF"/>
<circle cx="22" cy="383" r="3" fill="#BECBDF"/>
<circle cx="42" cy="383" r="3" fill="#BECBDF"/>
<circle cx="62" cy="383" r="3" fill="#BECBDF"/>
<circle cx="82" cy="383" r="3" fill="#BECBDF"/>
<circle cx="102" cy="383" r="3" fill="#BECBDF"/>
<circle cx="122" cy="383" r="3" fill="#BECBDF"/>
<circle cx="142" cy="383" r="3" fill="#BECBDF"/>
<circle cx="162" cy="383" r="3" fill="#BECBDF"/>
<circle cx="182" cy="383" r="3" fill="#BECBDF"/>
<circle cx="202" cy="383" r="3" fill="#BECBDF"/>
<circle cx="222" cy="383" r="3" fill="#BECBDF"/>
<circle cx="242" cy="383" r="3" fill="#BECBDF"/>
<circle cx="262" cy="383" r="3" fill="#BECBDF"/>
<circle cx="282" cy="383" r="3" fill="#BECBDF"/>
<circle cx="302" cy="383" r="3" fill="#BECBDF"/>
<circle cx="322" cy="383" r="3" fill="#BECBDF"/>
<circle cx="342" cy="383" r="3" fill="#BECBDF"/>
<circle cx="362" cy="383" r="3" fill="#BECBDF"/>
<circle cx="382" cy="383" r="3" fill="#BECBDF"/>
</g>
</svg>
