<svg width="140" height="16" viewBox="0 0 140 16" fill="none" xmlns="http://www.w3.org/2000/svg">
<g clip-path="url(#clip0)">
<path d="M114.8 16C108.3 16 105 12.5 102.1 9.4C99.3 6.5 97 4 92.2 4C87.4 4 85.1 6.5 82.4 9.4C79.5 12.5 76.2 16 69.7 16C63.2 16 59.9 12.5 57 9.4C54.3 6.5 52 4 47.2 4C42.4 4 40 6.5 37.3 9.4C34.4 12.5 31.1 16 24.6 16C18.1 16 14.8 12.5 11.9 9.4C9.1 6.5 6.8 4 2 4C0.9 4 0 3.1 0 2C0 0.9 0.9 0 2 0C8.5 0 11.8 3.5 14.7 6.6C17.4 9.5 19.7 12 24.5 12C29.3 12 31.6 9.5 34.3 6.6C37.3 3.5 40.6 0 47.1 0C53.6 0 56.9 3.5 59.8 6.6C62.5 9.5 64.8 12 69.6 12C74.4 12 76.7 9.5 79.4 6.6C82.4 3.5 85.7 0 92.2 0C98.7 0 102 3.5 105 6.6C107.7 9.5 110 12 114.8 12C119.6 12 121.9 9.5 124.6 6.6C127.5 3.5 130.8 0 137.3 0C138.4 0 139.3 0.9 139.3 2C139.3 3.1 138.4 4 137.3 4C132.5 4 130.2 6.5 127.5 9.4C124.6 12.5 121.3 16 114.8 16Z" fill="url(#paint0_linear)"/>
</g>
<defs>
<linearGradient id="paint0_linear" x1="-38.9697" y1="12.7529" x2="302.793" y2="-40.7684" gradientUnits="userSpaceOnUse">
<stop stop-color="#6E2AFF"/>
<stop offset="1" stop-color="#7ADBEE"/>
</linearGradient>
<clipPath id="clip0">
<rect width="139.3" height="16" fill="white"/>
</clipPath>
</defs>
</svg>
