<svg width="129" height="14" viewBox="0 0 129 14" fill="none" xmlns="http://www.w3.org/2000/svg">
<g clip-path="url(#clip0)">
<path d="M106 14C100.1 14 97.1 11 94.4 8.4C92 6.1 89.9 4 85.7 4C81.5 4 79.3 6.1 76.9 8.4C74.2 11 71.2 14 65.3 14C59.4 14 56.4 11 53.7 8.4C51.3 6.1 49.3 4 45 4C40.7 4 38.7 6.1 36.2 8.4C33.5 11 30.5 14 24.6 14C18.7 14 15.7 11 13 8.4C10.7 6.1 8.60001 4 4.3 4C0 4 -2 6.1 -4.5 8.4C-7.1 11 -10.1 14 -16 14C-21.9 14 -24.9 11 -27.6 8.4C-30 6.1 -32.1 4 -36.3 4C-40.6 4 -42.6 6.1 -45.1 8.4C-47.8 11 -50.8 14 -56.7 14C-62.6 14 -65.6 11 -68.3 8.4C-70.7 6.1 -72.7 4 -77 4C-78.1 4 -79 3.1 -79 2C-79 0.9 -78.1 0 -77 0C-71.1 0 -68.1 3 -65.4 5.6C-63 7.9 -60.9 10 -56.7 10C-52.4 10 -50.4 7.9 -47.9 5.6C-45.2 3 -42.2 0 -36.3 0C-30.4 0 -27.4 3 -24.7 5.6C-22.4 7.9 -20.3 10 -16 10C-11.7 10 -9.7 7.9 -7.2 5.6C-4.6 3 -1.6 0 4.3 0C10.2 0 13.2 3 15.9 5.6C18.3 8 20.4 10 24.7 10C29 10 31 7.9 33.5 5.6C36.1 3 39.1 0 45 0C50.9 0 53.9 3 56.6 5.6C59 8 61.1 10 65.4 10C69.7 10 71.7 7.9 74.2 5.6C76.7 3 79.8 0 85.7 0C91.6 0 94.6 3 97.3 5.6C99.7 8 101.8 10 106.1 10C110.4 10 112.5 7.9 114.9 5.6C117.4 3 120.4 0 126.3 0C127.4 0 128.3 0.9 128.3 2C128.3 3.1 127.4 4 126.3 4C122 4 119.9 6.1 117.5 8.4C114.9 11 111.9 14 106 14Z" fill="url(#paint0_linear)"/>
</g>
<defs>
<linearGradient id="paint0_linear" x1="-136.993" y1="11.1588" x2="349.561" y2="-118.432" gradientUnits="userSpaceOnUse">
<stop stop-color="#6E2AFF"/>
<stop offset="1" stop-color="#7ADBEE"/>
</linearGradient>
<clipPath id="clip0">
<rect width="207.3" height="14" fill="white" transform="translate(-79)"/>
</clipPath>
</defs>
</svg>
