<svg width="427" height="386" viewBox="0 0 427 386" fill="none" xmlns="http://www.w3.org/2000/svg">
<g opacity="0.3">
<circle r="3" transform="matrix(-1 0 0 1 424 3)" fill="#BECBDF"/>
<circle r="3" transform="matrix(-1 0 0 1 404 3)" fill="#BECBDF"/>
<circle r="3" transform="matrix(-1 0 0 1 384 3)" fill="#BECBDF"/>
<circle r="3" transform="matrix(-1 0 0 1 364 3)" fill="#BECBDF"/>
<circle r="3" transform="matrix(-1 0 0 1 344 3)" fill="#BECBDF"/>
<circle r="3" transform="matrix(-1 0 0 1 324 3)" fill="#BECBDF"/>
<circle r="3" transform="matrix(-1 0 0 1 304 3)" fill="#BECBDF"/>
<circle r="3" transform="matrix(-1 0 0 1 284 3)" fill="#BECBDF"/>
<circle r="3" transform="matrix(-1 0 0 1 264 3)" fill="#BECBDF"/>
<circle r="3" transform="matrix(-1 0 0 1 244 3)" fill="#BECBDF"/>
<circle r="3" transform="matrix(-1 0 0 1 224 3)" fill="#BECBDF"/>
<circle r="3" transform="matrix(-1 0 0 1 204 3)" fill="#BECBDF"/>
<circle r="3" transform="matrix(-1 0 0 1 184 3)" fill="#BECBDF"/>
<circle r="3" transform="matrix(-1 0 0 1 164 3)" fill="#BECBDF"/>
<circle r="3" transform="matrix(-1 0 0 1 144 3)" fill="#BECBDF"/>
<circle r="3" transform="matrix(-1 0 0 1 124 3)" fill="#BECBDF"/>
<circle r="3" transform="matrix(-1 0 0 1 104 3)" fill="#BECBDF"/>
<circle r="3" transform="matrix(-1 0 0 1 84 3)" fill="#BECBDF"/>
<circle r="3" transform="matrix(-1 0 0 1 64 3)" fill="#BECBDF"/>
<circle r="3" transform="matrix(-1 0 0 1 44 3)" fill="#BECBDF"/>
<circle r="3" transform="matrix(-1 0 0 1 24 3)" fill="#BECBDF"/>
<circle r="3" transform="matrix(-1 0 0 1 4 3)" fill="#BECBDF"/>
<circle r="3" transform="matrix(-1 0 0 1 424 23)" fill="#BECBDF"/>
<circle r="3" transform="matrix(-1 0 0 1 404 23)" fill="#BECBDF"/>
<circle r="3" transform="matrix(-1 0 0 1 384 23)" fill="#BECBDF"/>
<circle r="3" transform="matrix(-1 0 0 1 364 23)" fill="#BECBDF"/>
<circle r="3" transform="matrix(-1 0 0 1 344 23)" fill="#BECBDF"/>
<circle r="3" transform="matrix(-1 0 0 1 324 23)" fill="#BECBDF"/>
<circle r="3" transform="matrix(-1 0 0 1 304 23)" fill="#BECBDF"/>
<circle r="3" transform="matrix(-1 0 0 1 284 23)" fill="#BECBDF"/>
<circle r="3" transform="matrix(-1 0 0 1 264 23)" fill="#BECBDF"/>
<circle r="3" transform="matrix(-1 0 0 1 244 23)" fill="#BECBDF"/>
<circle r="3" transform="matrix(-1 0 0 1 224 23)" fill="#BECBDF"/>
<circle r="3" transform="matrix(-1 0 0 1 204 23)" fill="#BECBDF"/>
<circle r="3" transform="matrix(-1 0 0 1 184 23)" fill="#BECBDF"/>
<circle r="3" transform="matrix(-1 0 0 1 164 23)" fill="#BECBDF"/>
<circle r="3" transform="matrix(-1 0 0 1 144 23)" fill="#BECBDF"/>
<circle r="3" transform="matrix(-1 0 0 1 124 23)" fill="#BECBDF"/>
<circle r="3" transform="matrix(-1 0 0 1 104 23)" fill="#BECBDF"/>
<circle r="3" transform="matrix(-1 0 0 1 84 23)" fill="#BECBDF"/>
<circle r="3" transform="matrix(-1 0 0 1 64 23)" fill="#BECBDF"/>
<circle r="3" transform="matrix(-1 0 0 1 44 23)" fill="#BECBDF"/>
<circle r="3" transform="matrix(-1 0 0 1 24 23)" fill="#BECBDF"/>
<circle r="3" transform="matrix(-1 0 0 1 4 23)" fill="#BECBDF"/>
<circle r="3" transform="matrix(-1 0 0 1 424 43)" fill="#BECBDF"/>
<circle r="3" transform="matrix(-1 0 0 1 404 43)" fill="#BECBDF"/>
<circle r="3" transform="matrix(-1 0 0 1 384 43)" fill="#BECBDF"/>
<circle r="3" transform="matrix(-1 0 0 1 364 43)" fill="#BECBDF"/>
<circle r="3" transform="matrix(-1 0 0 1 344 43)" fill="#BECBDF"/>
<circle r="3" transform="matrix(-1 0 0 1 324 43)" fill="#BECBDF"/>
<circle r="3" transform="matrix(-1 0 0 1 304 43)" fill="#BECBDF"/>
<circle r="3" transform="matrix(-1 0 0 1 284 43)" fill="#BECBDF"/>
<circle r="3" transform="matrix(-1 0 0 1 264 43)" fill="#BECBDF"/>
<circle r="3" transform="matrix(-1 0 0 1 244 43)" fill="#BECBDF"/>
<circle r="3" transform="matrix(-1 0 0 1 224 43)" fill="#BECBDF"/>
<circle r="3" transform="matrix(-1 0 0 1 204 43)" fill="#BECBDF"/>
<circle r="3" transform="matrix(-1 0 0 1 184 43)" fill="#BECBDF"/>
<circle r="3" transform="matrix(-1 0 0 1 164 43)" fill="#BECBDF"/>
<circle r="3" transform="matrix(-1 0 0 1 144 43)" fill="#BECBDF"/>
<circle r="3" transform="matrix(-1 0 0 1 124 43)" fill="#BECBDF"/>
<circle r="3" transform="matrix(-1 0 0 1 104 43)" fill="#BECBDF"/>
<circle r="3" transform="matrix(-1 0 0 1 84 43)" fill="#BECBDF"/>
<circle r="3" transform="matrix(-1 0 0 1 64 43)" fill="#BECBDF"/>
<circle r="3" transform="matrix(-1 0 0 1 44 43)" fill="#BECBDF"/>
<circle r="3" transform="matrix(-1 0 0 1 24 43)" fill="#BECBDF"/>
<circle r="3" transform="matrix(-1 0 0 1 4 43)" fill="#BECBDF"/>
<circle r="3" transform="matrix(-1 0 0 1 424 63)" fill="#BECBDF"/>
<circle r="3" transform="matrix(-1 0 0 1 404 63)" fill="#BECBDF"/>
<circle r="3" transform="matrix(-1 0 0 1 384 63)" fill="#BECBDF"/>
<circle r="3" transform="matrix(-1 0 0 1 364 63)" fill="#BECBDF"/>
<circle r="3" transform="matrix(-1 0 0 1 344 63)" fill="#BECBDF"/>
<circle r="3" transform="matrix(-1 0 0 1 324 63)" fill="#BECBDF"/>
<circle r="3" transform="matrix(-1 0 0 1 304 63)" fill="#BECBDF"/>
<circle r="3" transform="matrix(-1 0 0 1 284 63)" fill="#BECBDF"/>
<circle r="3" transform="matrix(-1 0 0 1 264 63)" fill="#BECBDF"/>
<circle r="3" transform="matrix(-1 0 0 1 244 63)" fill="#BECBDF"/>
<circle r="3" transform="matrix(-1 0 0 1 224 63)" fill="#BECBDF"/>
<circle r="3" transform="matrix(-1 0 0 1 204 63)" fill="#BECBDF"/>
<circle r="3" transform="matrix(-1 0 0 1 184 63)" fill="#BECBDF"/>
<circle r="3" transform="matrix(-1 0 0 1 164 63)" fill="#BECBDF"/>
<circle r="3" transform="matrix(-1 0 0 1 144 63)" fill="#BECBDF"/>
<circle r="3" transform="matrix(-1 0 0 1 124 63)" fill="#BECBDF"/>
<circle r="3" transform="matrix(-1 0 0 1 104 63)" fill="#BECBDF"/>
<circle r="3" transform="matrix(-1 0 0 1 84 63)" fill="#BECBDF"/>
<circle r="3" transform="matrix(-1 0 0 1 64 63)" fill="#BECBDF"/>
<circle r="3" transform="matrix(-1 0 0 1 44 63)" fill="#BECBDF"/>
<circle r="3" transform="matrix(-1 0 0 1 24 63)" fill="#BECBDF"/>
<circle r="3" transform="matrix(-1 0 0 1 4 63)" fill="#BECBDF"/>
<circle r="3" transform="matrix(-1 0 0 1 424 83)" fill="#BECBDF"/>
<circle r="3" transform="matrix(-1 0 0 1 404 83)" fill="#BECBDF"/>
<circle r="3" transform="matrix(-1 0 0 1 384 83)" fill="#BECBDF"/>
<circle r="3" transform="matrix(-1 0 0 1 364 83)" fill="#BECBDF"/>
<circle r="3" transform="matrix(-1 0 0 1 344 83)" fill="#BECBDF"/>
<circle r="3" transform="matrix(-1 0 0 1 324 83)" fill="#BECBDF"/>
<circle r="3" transform="matrix(-1 0 0 1 304 83)" fill="#BECBDF"/>
<circle r="3" transform="matrix(-1 0 0 1 284 83)" fill="#BECBDF"/>
<circle r="3" transform="matrix(-1 0 0 1 264 83)" fill="#BECBDF"/>
<circle r="3" transform="matrix(-1 0 0 1 244 83)" fill="#BECBDF"/>
<circle r="3" transform="matrix(-1 0 0 1 224 83)" fill="#BECBDF"/>
<circle r="3" transform="matrix(-1 0 0 1 204 83)" fill="#BECBDF"/>
<circle r="3" transform="matrix(-1 0 0 1 184 83)" fill="#BECBDF"/>
<circle r="3" transform="matrix(-1 0 0 1 164 83)" fill="#BECBDF"/>
<circle r="3" transform="matrix(-1 0 0 1 144 83)" fill="#BECBDF"/>
<circle r="3" transform="matrix(-1 0 0 1 124 83)" fill="#BECBDF"/>
<circle r="3" transform="matrix(-1 0 0 1 104 83)" fill="#BECBDF"/>
<circle r="3" transform="matrix(-1 0 0 1 84 83)" fill="#BECBDF"/>
<circle r="3" transform="matrix(-1 0 0 1 64 83)" fill="#BECBDF"/>
<circle r="3" transform="matrix(-1 0 0 1 44 83)" fill="#BECBDF"/>
<circle r="3" transform="matrix(-1 0 0 1 24 83)" fill="#BECBDF"/>
<circle r="3" transform="matrix(-1 0 0 1 4 83)" fill="#BECBDF"/>
<circle r="3" transform="matrix(-1 0 0 1 424 103)" fill="#BECBDF"/>
<circle r="3" transform="matrix(-1 0 0 1 404 103)" fill="#BECBDF"/>
<circle r="3" transform="matrix(-1 0 0 1 384 103)" fill="#BECBDF"/>
<circle r="3" transform="matrix(-1 0 0 1 364 103)" fill="#BECBDF"/>
<circle r="3" transform="matrix(-1 0 0 1 344 103)" fill="#BECBDF"/>
<circle r="3" transform="matrix(-1 0 0 1 324 103)" fill="#BECBDF"/>
<circle r="3" transform="matrix(-1 0 0 1 304 103)" fill="#BECBDF"/>
<circle r="3" transform="matrix(-1 0 0 1 284 103)" fill="#BECBDF"/>
<circle r="3" transform="matrix(-1 0 0 1 264 103)" fill="#BECBDF"/>
<circle r="3" transform="matrix(-1 0 0 1 244 103)" fill="#BECBDF"/>
<circle r="3" transform="matrix(-1 0 0 1 224 103)" fill="#BECBDF"/>
<circle r="3" transform="matrix(-1 0 0 1 204 103)" fill="#BECBDF"/>
<circle r="3" transform="matrix(-1 0 0 1 184 103)" fill="#BECBDF"/>
<circle r="3" transform="matrix(-1 0 0 1 164 103)" fill="#BECBDF"/>
<circle r="3" transform="matrix(-1 0 0 1 144 103)" fill="#BECBDF"/>
<circle r="3" transform="matrix(-1 0 0 1 124 103)" fill="#BECBDF"/>
<circle r="3" transform="matrix(-1 0 0 1 104 103)" fill="#BECBDF"/>
<circle r="3" transform="matrix(-1 0 0 1 84 103)" fill="#BECBDF"/>
<circle r="3" transform="matrix(-1 0 0 1 64 103)" fill="#BECBDF"/>
<circle r="3" transform="matrix(-1 0 0 1 44 103)" fill="#BECBDF"/>
<circle r="3" transform="matrix(-1 0 0 1 24 103)" fill="#BECBDF"/>
<circle r="3" transform="matrix(-1 0 0 1 4 103)" fill="#BECBDF"/>
<circle r="3" transform="matrix(-1 0 0 1 424 123)" fill="#BECBDF"/>
<circle r="3" transform="matrix(-1 0 0 1 404 123)" fill="#BECBDF"/>
<circle r="3" transform="matrix(-1 0 0 1 384 123)" fill="#BECBDF"/>
<circle r="3" transform="matrix(-1 0 0 1 364 123)" fill="#BECBDF"/>
<circle r="3" transform="matrix(-1 0 0 1 344 123)" fill="#BECBDF"/>
<circle r="3" transform="matrix(-1 0 0 1 324 123)" fill="#BECBDF"/>
<circle r="3" transform="matrix(-1 0 0 1 304 123)" fill="#BECBDF"/>
<circle r="3" transform="matrix(-1 0 0 1 284 123)" fill="#BECBDF"/>
<circle r="3" transform="matrix(-1 0 0 1 264 123)" fill="#BECBDF"/>
<circle r="3" transform="matrix(-1 0 0 1 244 123)" fill="#BECBDF"/>
<circle r="3" transform="matrix(-1 0 0 1 224 123)" fill="#BECBDF"/>
<circle r="3" transform="matrix(-1 0 0 1 204 123)" fill="#BECBDF"/>
<circle r="3" transform="matrix(-1 0 0 1 184 123)" fill="#BECBDF"/>
<circle r="3" transform="matrix(-1 0 0 1 164 123)" fill="#BECBDF"/>
<circle r="3" transform="matrix(-1 0 0 1 144 123)" fill="#BECBDF"/>
<circle r="3" transform="matrix(-1 0 0 1 124 123)" fill="#BECBDF"/>
<circle r="3" transform="matrix(-1 0 0 1 104 123)" fill="#BECBDF"/>
<circle r="3" transform="matrix(-1 0 0 1 84 123)" fill="#BECBDF"/>
<circle r="3" transform="matrix(-1 0 0 1 64 123)" fill="#BECBDF"/>
<circle r="3" transform="matrix(-1 0 0 1 44 123)" fill="#BECBDF"/>
<circle r="3" transform="matrix(-1 0 0 1 24 123)" fill="#BECBDF"/>
<circle r="3" transform="matrix(-1 0 0 1 4 123)" fill="#BECBDF"/>
<circle r="3" transform="matrix(-1 0 0 1 424 143)" fill="#BECBDF"/>
<circle r="3" transform="matrix(-1 0 0 1 404 143)" fill="#BECBDF"/>
<circle r="3" transform="matrix(-1 0 0 1 384 143)" fill="#BECBDF"/>
<circle r="3" transform="matrix(-1 0 0 1 364 143)" fill="#BECBDF"/>
<circle r="3" transform="matrix(-1 0 0 1 344 143)" fill="#BECBDF"/>
<circle r="3" transform="matrix(-1 0 0 1 324 143)" fill="#BECBDF"/>
<circle r="3" transform="matrix(-1 0 0 1 304 143)" fill="#BECBDF"/>
<circle r="3" transform="matrix(-1 0 0 1 284 143)" fill="#BECBDF"/>
<circle r="3" transform="matrix(-1 0 0 1 264 143)" fill="#BECBDF"/>
<circle r="3" transform="matrix(-1 0 0 1 244 143)" fill="#BECBDF"/>
<circle r="3" transform="matrix(-1 0 0 1 224 143)" fill="#BECBDF"/>
<circle r="3" transform="matrix(-1 0 0 1 204 143)" fill="#BECBDF"/>
<circle r="3" transform="matrix(-1 0 0 1 184 143)" fill="#BECBDF"/>
<circle r="3" transform="matrix(-1 0 0 1 164 143)" fill="#BECBDF"/>
<circle r="3" transform="matrix(-1 0 0 1 144 143)" fill="#BECBDF"/>
<circle r="3" transform="matrix(-1 0 0 1 124 143)" fill="#BECBDF"/>
<circle r="3" transform="matrix(-1 0 0 1 104 143)" fill="#BECBDF"/>
<circle r="3" transform="matrix(-1 0 0 1 84 143)" fill="#BECBDF"/>
<circle r="3" transform="matrix(-1 0 0 1 64 143)" fill="#BECBDF"/>
<circle r="3" transform="matrix(-1 0 0 1 44 143)" fill="#BECBDF"/>
<circle r="3" transform="matrix(-1 0 0 1 24 143)" fill="#BECBDF"/>
<circle r="3" transform="matrix(-1 0 0 1 4 143)" fill="#BECBDF"/>
<circle r="3" transform="matrix(-1 0 0 1 424 163)" fill="#BECBDF"/>
<circle r="3" transform="matrix(-1 0 0 1 404 163)" fill="#BECBDF"/>
<circle r="3" transform="matrix(-1 0 0 1 384 163)" fill="#BECBDF"/>
<circle r="3" transform="matrix(-1 0 0 1 364 163)" fill="#BECBDF"/>
<circle r="3" transform="matrix(-1 0 0 1 344 163)" fill="#BECBDF"/>
<circle r="3" transform="matrix(-1 0 0 1 324 163)" fill="#BECBDF"/>
<circle r="3" transform="matrix(-1 0 0 1 304 163)" fill="#BECBDF"/>
<circle r="3" transform="matrix(-1 0 0 1 284 163)" fill="#BECBDF"/>
<circle r="3" transform="matrix(-1 0 0 1 264 163)" fill="#BECBDF"/>
<circle r="3" transform="matrix(-1 0 0 1 244 163)" fill="#BECBDF"/>
<circle r="3" transform="matrix(-1 0 0 1 224 163)" fill="#BECBDF"/>
<circle r="3" transform="matrix(-1 0 0 1 204 163)" fill="#BECBDF"/>
<circle r="3" transform="matrix(-1 0 0 1 184 163)" fill="#BECBDF"/>
<circle r="3" transform="matrix(-1 0 0 1 164 163)" fill="#BECBDF"/>
<circle r="3" transform="matrix(-1 0 0 1 144 163)" fill="#BECBDF"/>
<circle r="3" transform="matrix(-1 0 0 1 124 163)" fill="#BECBDF"/>
<circle r="3" transform="matrix(-1 0 0 1 104 163)" fill="#BECBDF"/>
<circle r="3" transform="matrix(-1 0 0 1 84 163)" fill="#BECBDF"/>
<circle r="3" transform="matrix(-1 0 0 1 64 163)" fill="#BECBDF"/>
<circle r="3" transform="matrix(-1 0 0 1 44 163)" fill="#BECBDF"/>
<circle r="3" transform="matrix(-1 0 0 1 24 163)" fill="#BECBDF"/>
<circle r="3" transform="matrix(-1 0 0 1 4 163)" fill="#BECBDF"/>
<circle r="3" transform="matrix(-1 0 0 1 424 183)" fill="#BECBDF"/>
<circle r="3" transform="matrix(-1 0 0 1 404 183)" fill="#BECBDF"/>
<circle r="3" transform="matrix(-1 0 0 1 384 183)" fill="#BECBDF"/>
<circle r="3" transform="matrix(-1 0 0 1 364 183)" fill="#BECBDF"/>
<circle r="3" transform="matrix(-1 0 0 1 344 183)" fill="#BECBDF"/>
<circle r="3" transform="matrix(-1 0 0 1 324 183)" fill="#BECBDF"/>
<circle r="3" transform="matrix(-1 0 0 1 304 183)" fill="#BECBDF"/>
<circle r="3" transform="matrix(-1 0 0 1 284 183)" fill="#BECBDF"/>
<circle r="3" transform="matrix(-1 0 0 1 264 183)" fill="#BECBDF"/>
<circle r="3" transform="matrix(-1 0 0 1 244 183)" fill="#BECBDF"/>
<circle r="3" transform="matrix(-1 0 0 1 224 183)" fill="#BECBDF"/>
<circle r="3" transform="matrix(-1 0 0 1 204 183)" fill="#BECBDF"/>
<circle r="3" transform="matrix(-1 0 0 1 184 183)" fill="#BECBDF"/>
<circle r="3" transform="matrix(-1 0 0 1 164 183)" fill="#BECBDF"/>
<circle r="3" transform="matrix(-1 0 0 1 144 183)" fill="#BECBDF"/>
<circle r="3" transform="matrix(-1 0 0 1 124 183)" fill="#BECBDF"/>
<circle r="3" transform="matrix(-1 0 0 1 104 183)" fill="#BECBDF"/>
<circle r="3" transform="matrix(-1 0 0 1 84 183)" fill="#BECBDF"/>
<circle r="3" transform="matrix(-1 0 0 1 64 183)" fill="#BECBDF"/>
<circle r="3" transform="matrix(-1 0 0 1 44 183)" fill="#BECBDF"/>
<circle r="3" transform="matrix(-1 0 0 1 24 183)" fill="#BECBDF"/>
<circle r="3" transform="matrix(-1 0 0 1 4 183)" fill="#BECBDF"/>
<circle r="3" transform="matrix(-1 0 0 1 424 203)" fill="#BECBDF"/>
<circle r="3" transform="matrix(-1 0 0 1 404 203)" fill="#BECBDF"/>
<circle r="3" transform="matrix(-1 0 0 1 384 203)" fill="#BECBDF"/>
<circle r="3" transform="matrix(-1 0 0 1 364 203)" fill="#BECBDF"/>
<circle r="3" transform="matrix(-1 0 0 1 344 203)" fill="#BECBDF"/>
<circle r="3" transform="matrix(-1 0 0 1 324 203)" fill="#BECBDF"/>
<circle r="3" transform="matrix(-1 0 0 1 304 203)" fill="#BECBDF"/>
<circle r="3" transform="matrix(-1 0 0 1 284 203)" fill="#BECBDF"/>
<circle r="3" transform="matrix(-1 0 0 1 264 203)" fill="#BECBDF"/>
<circle r="3" transform="matrix(-1 0 0 1 244 203)" fill="#BECBDF"/>
<circle r="3" transform="matrix(-1 0 0 1 224 203)" fill="#BECBDF"/>
<circle r="3" transform="matrix(-1 0 0 1 204 203)" fill="#BECBDF"/>
<circle r="3" transform="matrix(-1 0 0 1 184 203)" fill="#BECBDF"/>
<circle r="3" transform="matrix(-1 0 0 1 164 203)" fill="#BECBDF"/>
<circle r="3" transform="matrix(-1 0 0 1 144 203)" fill="#BECBDF"/>
<circle r="3" transform="matrix(-1 0 0 1 124 203)" fill="#BECBDF"/>
<circle r="3" transform="matrix(-1 0 0 1 104 203)" fill="#BECBDF"/>
<circle r="3" transform="matrix(-1 0 0 1 84 203)" fill="#BECBDF"/>
<circle r="3" transform="matrix(-1 0 0 1 64 203)" fill="#BECBDF"/>
<circle r="3" transform="matrix(-1 0 0 1 44 203)" fill="#BECBDF"/>
<circle r="3" transform="matrix(-1 0 0 1 24 203)" fill="#BECBDF"/>
<circle r="3" transform="matrix(-1 0 0 1 4 203)" fill="#BECBDF"/>
<circle r="3" transform="matrix(-1 0 0 1 424 223)" fill="#BECBDF"/>
<circle r="3" transform="matrix(-1 0 0 1 404 223)" fill="#BECBDF"/>
<circle r="3" transform="matrix(-1 0 0 1 384 223)" fill="#BECBDF"/>
<circle r="3" transform="matrix(-1 0 0 1 364 223)" fill="#BECBDF"/>
<circle r="3" transform="matrix(-1 0 0 1 344 223)" fill="#BECBDF"/>
<circle r="3" transform="matrix(-1 0 0 1 324 223)" fill="#BECBDF"/>
<circle r="3" transform="matrix(-1 0 0 1 304 223)" fill="#BECBDF"/>
<circle r="3" transform="matrix(-1 0 0 1 284 223)" fill="#BECBDF"/>
<circle r="3" transform="matrix(-1 0 0 1 264 223)" fill="#BECBDF"/>
<circle r="3" transform="matrix(-1 0 0 1 244 223)" fill="#BECBDF"/>
<circle r="3" transform="matrix(-1 0 0 1 224 223)" fill="#BECBDF"/>
<circle r="3" transform="matrix(-1 0 0 1 204 223)" fill="#BECBDF"/>
<circle r="3" transform="matrix(-1 0 0 1 184 223)" fill="#BECBDF"/>
<circle r="3" transform="matrix(-1 0 0 1 164 223)" fill="#BECBDF"/>
<circle r="3" transform="matrix(-1 0 0 1 144 223)" fill="#BECBDF"/>
<circle r="3" transform="matrix(-1 0 0 1 124 223)" fill="#BECBDF"/>
<circle r="3" transform="matrix(-1 0 0 1 104 223)" fill="#BECBDF"/>
<circle r="3" transform="matrix(-1 0 0 1 84 223)" fill="#BECBDF"/>
<circle r="3" transform="matrix(-1 0 0 1 64 223)" fill="#BECBDF"/>
<circle r="3" transform="matrix(-1 0 0 1 44 223)" fill="#BECBDF"/>
<circle r="3" transform="matrix(-1 0 0 1 24 223)" fill="#BECBDF"/>
<circle r="3" transform="matrix(-1 0 0 1 4 223)" fill="#BECBDF"/>
<circle r="3" transform="matrix(-1 0 0 1 424 243)" fill="#BECBDF"/>
<circle r="3" transform="matrix(-1 0 0 1 404 243)" fill="#BECBDF"/>
<circle r="3" transform="matrix(-1 0 0 1 384 243)" fill="#BECBDF"/>
<circle r="3" transform="matrix(-1 0 0 1 364 243)" fill="#BECBDF"/>
<circle r="3" transform="matrix(-1 0 0 1 344 243)" fill="#BECBDF"/>
<circle r="3" transform="matrix(-1 0 0 1 324 243)" fill="#BECBDF"/>
<circle r="3" transform="matrix(-1 0 0 1 304 243)" fill="#BECBDF"/>
<circle r="3" transform="matrix(-1 0 0 1 284 243)" fill="#BECBDF"/>
<circle r="3" transform="matrix(-1 0 0 1 264 243)" fill="#BECBDF"/>
<circle r="3" transform="matrix(-1 0 0 1 244 243)" fill="#BECBDF"/>
<circle r="3" transform="matrix(-1 0 0 1 224 243)" fill="#BECBDF"/>
<circle r="3" transform="matrix(-1 0 0 1 204 243)" fill="#BECBDF"/>
<circle r="3" transform="matrix(-1 0 0 1 184 243)" fill="#BECBDF"/>
<circle r="3" transform="matrix(-1 0 0 1 164 243)" fill="#BECBDF"/>
<circle r="3" transform="matrix(-1 0 0 1 144 243)" fill="#BECBDF"/>
<circle r="3" transform="matrix(-1 0 0 1 124 243)" fill="#BECBDF"/>
<circle r="3" transform="matrix(-1 0 0 1 104 243)" fill="#BECBDF"/>
<circle r="3" transform="matrix(-1 0 0 1 84 243)" fill="#BECBDF"/>
<circle r="3" transform="matrix(-1 0 0 1 64 243)" fill="#BECBDF"/>
<circle r="3" transform="matrix(-1 0 0 1 44 243)" fill="#BECBDF"/>
<circle r="3" transform="matrix(-1 0 0 1 24 243)" fill="#BECBDF"/>
<circle r="3" transform="matrix(-1 0 0 1 4 243)" fill="#BECBDF"/>
<circle r="3" transform="matrix(-1 0 0 1 424 263)" fill="#BECBDF"/>
<circle r="3" transform="matrix(-1 0 0 1 404 263)" fill="#BECBDF"/>
<circle r="3" transform="matrix(-1 0 0 1 384 263)" fill="#BECBDF"/>
<circle r="3" transform="matrix(-1 0 0 1 364 263)" fill="#BECBDF"/>
<circle r="3" transform="matrix(-1 0 0 1 344 263)" fill="#BECBDF"/>
<circle r="3" transform="matrix(-1 0 0 1 324 263)" fill="#BECBDF"/>
<circle r="3" transform="matrix(-1 0 0 1 304 263)" fill="#BECBDF"/>
<circle r="3" transform="matrix(-1 0 0 1 284 263)" fill="#BECBDF"/>
<circle r="3" transform="matrix(-1 0 0 1 264 263)" fill="#BECBDF"/>
<circle r="3" transform="matrix(-1 0 0 1 244 263)" fill="#BECBDF"/>
<circle r="3" transform="matrix(-1 0 0 1 224 263)" fill="#BECBDF"/>
<circle r="3" transform="matrix(-1 0 0 1 204 263)" fill="#BECBDF"/>
<circle r="3" transform="matrix(-1 0 0 1 184 263)" fill="#BECBDF"/>
<circle r="3" transform="matrix(-1 0 0 1 164 263)" fill="#BECBDF"/>
<circle r="3" transform="matrix(-1 0 0 1 144 263)" fill="#BECBDF"/>
<circle r="3" transform="matrix(-1 0 0 1 124 263)" fill="#BECBDF"/>
<circle r="3" transform="matrix(-1 0 0 1 104 263)" fill="#BECBDF"/>
<circle r="3" transform="matrix(-1 0 0 1 84 263)" fill="#BECBDF"/>
<circle r="3" transform="matrix(-1 0 0 1 64 263)" fill="#BECBDF"/>
<circle r="3" transform="matrix(-1 0 0 1 44 263)" fill="#BECBDF"/>
<circle r="3" transform="matrix(-1 0 0 1 24 263)" fill="#BECBDF"/>
<circle r="3" transform="matrix(-1 0 0 1 4 263)" fill="#BECBDF"/>
<circle r="3" transform="matrix(-1 0 0 1 424 283)" fill="#BECBDF"/>
<circle r="3" transform="matrix(-1 0 0 1 404 283)" fill="#BECBDF"/>
<circle r="3" transform="matrix(-1 0 0 1 384 283)" fill="#BECBDF"/>
<circle r="3" transform="matrix(-1 0 0 1 364 283)" fill="#BECBDF"/>
<circle r="3" transform="matrix(-1 0 0 1 344 283)" fill="#BECBDF"/>
<circle r="3" transform="matrix(-1 0 0 1 324 283)" fill="#BECBDF"/>
<circle r="3" transform="matrix(-1 0 0 1 304 283)" fill="#BECBDF"/>
<circle r="3" transform="matrix(-1 0 0 1 284 283)" fill="#BECBDF"/>
<circle r="3" transform="matrix(-1 0 0 1 264 283)" fill="#BECBDF"/>
<circle r="3" transform="matrix(-1 0 0 1 244 283)" fill="#BECBDF"/>
<circle r="3" transform="matrix(-1 0 0 1 224 283)" fill="#BECBDF"/>
<circle r="3" transform="matrix(-1 0 0 1 204 283)" fill="#BECBDF"/>
<circle r="3" transform="matrix(-1 0 0 1 184 283)" fill="#BECBDF"/>
<circle r="3" transform="matrix(-1 0 0 1 164 283)" fill="#BECBDF"/>
<circle r="3" transform="matrix(-1 0 0 1 144 283)" fill="#BECBDF"/>
<circle r="3" transform="matrix(-1 0 0 1 124 283)" fill="#BECBDF"/>
<circle r="3" transform="matrix(-1 0 0 1 104 283)" fill="#BECBDF"/>
<circle r="3" transform="matrix(-1 0 0 1 84 283)" fill="#BECBDF"/>
<circle r="3" transform="matrix(-1 0 0 1 64 283)" fill="#BECBDF"/>
<circle r="3" transform="matrix(-1 0 0 1 44 283)" fill="#BECBDF"/>
<circle r="3" transform="matrix(-1 0 0 1 24 283)" fill="#BECBDF"/>
<circle r="3" transform="matrix(-1 0 0 1 4 283)" fill="#BECBDF"/>
<circle r="3" transform="matrix(-1 0 0 1 424 303)" fill="#BECBDF"/>
<circle r="3" transform="matrix(-1 0 0 1 404 303)" fill="#BECBDF"/>
<circle r="3" transform="matrix(-1 0 0 1 384 303)" fill="#BECBDF"/>
<circle r="3" transform="matrix(-1 0 0 1 364 303)" fill="#BECBDF"/>
<circle r="3" transform="matrix(-1 0 0 1 344 303)" fill="#BECBDF"/>
<circle r="3" transform="matrix(-1 0 0 1 324 303)" fill="#BECBDF"/>
<circle r="3" transform="matrix(-1 0 0 1 304 303)" fill="#BECBDF"/>
<circle r="3" transform="matrix(-1 0 0 1 284 303)" fill="#BECBDF"/>
<circle r="3" transform="matrix(-1 0 0 1 264 303)" fill="#BECBDF"/>
<circle r="3" transform="matrix(-1 0 0 1 244 303)" fill="#BECBDF"/>
<circle r="3" transform="matrix(-1 0 0 1 224 303)" fill="#BECBDF"/>
<circle r="3" transform="matrix(-1 0 0 1 204 303)" fill="#BECBDF"/>
<circle r="3" transform="matrix(-1 0 0 1 184 303)" fill="#BECBDF"/>
<circle r="3" transform="matrix(-1 0 0 1 164 303)" fill="#BECBDF"/>
<circle r="3" transform="matrix(-1 0 0 1 144 303)" fill="#BECBDF"/>
<circle r="3" transform="matrix(-1 0 0 1 124 303)" fill="#BECBDF"/>
<circle r="3" transform="matrix(-1 0 0 1 104 303)" fill="#BECBDF"/>
<circle r="3" transform="matrix(-1 0 0 1 84 303)" fill="#BECBDF"/>
<circle r="3" transform="matrix(-1 0 0 1 64 303)" fill="#BECBDF"/>
<circle r="3" transform="matrix(-1 0 0 1 44 303)" fill="#BECBDF"/>
<circle r="3" transform="matrix(-1 0 0 1 24 303)" fill="#BECBDF"/>
<circle r="3" transform="matrix(-1 0 0 1 4 303)" fill="#BECBDF"/>
<circle r="3" transform="matrix(-1 0 0 1 424 323)" fill="#BECBDF"/>
<circle r="3" transform="matrix(-1 0 0 1 404 323)" fill="#BECBDF"/>
<circle r="3" transform="matrix(-1 0 0 1 384 323)" fill="#BECBDF"/>
<circle r="3" transform="matrix(-1 0 0 1 364 323)" fill="#BECBDF"/>
<circle r="3" transform="matrix(-1 0 0 1 344 323)" fill="#BECBDF"/>
<circle r="3" transform="matrix(-1 0 0 1 324 323)" fill="#BECBDF"/>
<circle r="3" transform="matrix(-1 0 0 1 304 323)" fill="#BECBDF"/>
<circle r="3" transform="matrix(-1 0 0 1 284 323)" fill="#BECBDF"/>
<circle r="3" transform="matrix(-1 0 0 1 264 323)" fill="#BECBDF"/>
<circle r="3" transform="matrix(-1 0 0 1 244 323)" fill="#BECBDF"/>
<circle r="3" transform="matrix(-1 0 0 1 224 323)" fill="#BECBDF"/>
<circle r="3" transform="matrix(-1 0 0 1 204 323)" fill="#BECBDF"/>
<circle r="3" transform="matrix(-1 0 0 1 184 323)" fill="#BECBDF"/>
<circle r="3" transform="matrix(-1 0 0 1 164 323)" fill="#BECBDF"/>
<circle r="3" transform="matrix(-1 0 0 1 144 323)" fill="#BECBDF"/>
<circle r="3" transform="matrix(-1 0 0 1 124 323)" fill="#BECBDF"/>
<circle r="3" transform="matrix(-1 0 0 1 104 323)" fill="#BECBDF"/>
<circle r="3" transform="matrix(-1 0 0 1 84 323)" fill="#BECBDF"/>
<circle r="3" transform="matrix(-1 0 0 1 64 323)" fill="#BECBDF"/>
<circle r="3" transform="matrix(-1 0 0 1 44 323)" fill="#BECBDF"/>
<circle r="3" transform="matrix(-1 0 0 1 24 323)" fill="#BECBDF"/>
<circle r="3" transform="matrix(-1 0 0 1 4 323)" fill="#BECBDF"/>
<circle r="3" transform="matrix(-1 0 0 1 424 343)" fill="#BECBDF"/>
<circle r="3" transform="matrix(-1 0 0 1 404 343)" fill="#BECBDF"/>
<circle r="3" transform="matrix(-1 0 0 1 384 343)" fill="#BECBDF"/>
<circle r="3" transform="matrix(-1 0 0 1 364 343)" fill="#BECBDF"/>
<circle r="3" transform="matrix(-1 0 0 1 344 343)" fill="#BECBDF"/>
<circle r="3" transform="matrix(-1 0 0 1 324 343)" fill="#BECBDF"/>
<circle r="3" transform="matrix(-1 0 0 1 304 343)" fill="#BECBDF"/>
<circle r="3" transform="matrix(-1 0 0 1 284 343)" fill="#BECBDF"/>
<circle r="3" transform="matrix(-1 0 0 1 264 343)" fill="#BECBDF"/>
<circle r="3" transform="matrix(-1 0 0 1 244 343)" fill="#BECBDF"/>
<circle r="3" transform="matrix(-1 0 0 1 224 343)" fill="#BECBDF"/>
<circle r="3" transform="matrix(-1 0 0 1 204 343)" fill="#BECBDF"/>
<circle r="3" transform="matrix(-1 0 0 1 184 343)" fill="#BECBDF"/>
<circle r="3" transform="matrix(-1 0 0 1 164 343)" fill="#BECBDF"/>
<circle r="3" transform="matrix(-1 0 0 1 144 343)" fill="#BECBDF"/>
<circle r="3" transform="matrix(-1 0 0 1 124 343)" fill="#BECBDF"/>
<circle r="3" transform="matrix(-1 0 0 1 104 343)" fill="#BECBDF"/>
<circle r="3" transform="matrix(-1 0 0 1 84 343)" fill="#BECBDF"/>
<circle r="3" transform="matrix(-1 0 0 1 64 343)" fill="#BECBDF"/>
<circle r="3" transform="matrix(-1 0 0 1 44 343)" fill="#BECBDF"/>
<circle r="3" transform="matrix(-1 0 0 1 24 343)" fill="#BECBDF"/>
<circle r="3" transform="matrix(-1 0 0 1 4 343)" fill="#BECBDF"/>
<circle r="3" transform="matrix(-1 0 0 1 424 363)" fill="#BECBDF"/>
<circle r="3" transform="matrix(-1 0 0 1 404 363)" fill="#BECBDF"/>
<circle r="3" transform="matrix(-1 0 0 1 384 363)" fill="#BECBDF"/>
<circle r="3" transform="matrix(-1 0 0 1 364 363)" fill="#BECBDF"/>
<circle r="3" transform="matrix(-1 0 0 1 344 363)" fill="#BECBDF"/>
<circle r="3" transform="matrix(-1 0 0 1 324 363)" fill="#BECBDF"/>
<circle r="3" transform="matrix(-1 0 0 1 304 363)" fill="#BECBDF"/>
<circle r="3" transform="matrix(-1 0 0 1 284 363)" fill="#BECBDF"/>
<circle r="3" transform="matrix(-1 0 0 1 264 363)" fill="#BECBDF"/>
<circle r="3" transform="matrix(-1 0 0 1 244 363)" fill="#BECBDF"/>
<circle r="3" transform="matrix(-1 0 0 1 224 363)" fill="#BECBDF"/>
<circle r="3" transform="matrix(-1 0 0 1 204 363)" fill="#BECBDF"/>
<circle r="3" transform="matrix(-1 0 0 1 184 363)" fill="#BECBDF"/>
<circle r="3" transform="matrix(-1 0 0 1 164 363)" fill="#BECBDF"/>
<circle r="3" transform="matrix(-1 0 0 1 144 363)" fill="#BECBDF"/>
<circle r="3" transform="matrix(-1 0 0 1 124 363)" fill="#BECBDF"/>
<circle r="3" transform="matrix(-1 0 0 1 104 363)" fill="#BECBDF"/>
<circle r="3" transform="matrix(-1 0 0 1 84 363)" fill="#BECBDF"/>
<circle r="3" transform="matrix(-1 0 0 1 64 363)" fill="#BECBDF"/>
<circle r="3" transform="matrix(-1 0 0 1 44 363)" fill="#BECBDF"/>
<circle r="3" transform="matrix(-1 0 0 1 24 363)" fill="#BECBDF"/>
<circle r="3" transform="matrix(-1 0 0 1 4 363)" fill="#BECBDF"/>
<circle r="3" transform="matrix(-1 0 0 1 424 383)" fill="#BECBDF"/>
<circle r="3" transform="matrix(-1 0 0 1 404 383)" fill="#BECBDF"/>
<circle r="3" transform="matrix(-1 0 0 1 384 383)" fill="#BECBDF"/>
<circle r="3" transform="matrix(-1 0 0 1 364 383)" fill="#BECBDF"/>
<circle r="3" transform="matrix(-1 0 0 1 344 383)" fill="#BECBDF"/>
<circle r="3" transform="matrix(-1 0 0 1 324 383)" fill="#BECBDF"/>
<circle r="3" transform="matrix(-1 0 0 1 304 383)" fill="#BECBDF"/>
<circle r="3" transform="matrix(-1 0 0 1 284 383)" fill="#BECBDF"/>
<circle r="3" transform="matrix(-1 0 0 1 264 383)" fill="#BECBDF"/>
<circle r="3" transform="matrix(-1 0 0 1 244 383)" fill="#BECBDF"/>
<circle r="3" transform="matrix(-1 0 0 1 224 383)" fill="#BECBDF"/>
<circle r="3" transform="matrix(-1 0 0 1 204 383)" fill="#BECBDF"/>
<circle r="3" transform="matrix(-1 0 0 1 184 383)" fill="#BECBDF"/>
<circle r="3" transform="matrix(-1 0 0 1 164 383)" fill="#BECBDF"/>
<circle r="3" transform="matrix(-1 0 0 1 144 383)" fill="#BECBDF"/>
<circle r="3" transform="matrix(-1 0 0 1 124 383)" fill="#BECBDF"/>
<circle r="3" transform="matrix(-1 0 0 1 104 383)" fill="#BECBDF"/>
<circle r="3" transform="matrix(-1 0 0 1 84 383)" fill="#BECBDF"/>
<circle r="3" transform="matrix(-1 0 0 1 64 383)" fill="#BECBDF"/>
<circle r="3" transform="matrix(-1 0 0 1 44 383)" fill="#BECBDF"/>
<circle r="3" transform="matrix(-1 0 0 1 24 383)" fill="#BECBDF"/>
<circle r="3" transform="matrix(-1 0 0 1 4 383)" fill="#BECBDF"/>
</g>
</svg>
