<svg width="371" height="386" viewBox="0 0 371 386" fill="none" xmlns="http://www.w3.org/2000/svg">
<g opacity="0.3">
<circle r="3" transform="matrix(-1 0 0 1 363 3)" fill="#BECBDF"/>
<circle r="3" transform="matrix(-1 0 0 1 343 3)" fill="#BECBDF"/>
<circle r="3" transform="matrix(-1 0 0 1 323 3)" fill="#BECBDF"/>
<circle r="3" transform="matrix(-1 0 0 1 303 3)" fill="#BECBDF"/>
<circle r="3" transform="matrix(-1 0 0 1 283 3)" fill="#BECBDF"/>
<circle r="3" transform="matrix(-1 0 0 1 263 3)" fill="#BECBDF"/>
<circle r="3" transform="matrix(-1 0 0 1 243 3)" fill="#BECBDF"/>
<circle r="3" transform="matrix(-1 0 0 1 223 3)" fill="#BECBDF"/>
<circle r="3" transform="matrix(-1 0 0 1 203 3)" fill="#BECBDF"/>
<circle r="3" transform="matrix(-1 0 0 1 183 3)" fill="#BECBDF"/>
<circle r="3" transform="matrix(-1 0 0 1 163 3)" fill="#BECBDF"/>
<circle r="3" transform="matrix(-1 0 0 1 143 3)" fill="#BECBDF"/>
<circle r="3" transform="matrix(-1 0 0 1 123 3)" fill="#BECBDF"/>
<circle r="3" transform="matrix(-1 0 0 1 103 3)" fill="#BECBDF"/>
<circle r="3" transform="matrix(-1 0 0 1 83 3)" fill="#BECBDF"/>
<circle r="3" transform="matrix(-1 0 0 1 63 3)" fill="#BECBDF"/>
<circle r="3" transform="matrix(-1 0 0 1 43 3)" fill="#BECBDF"/>
<circle r="3" transform="matrix(-1 0 0 1 23 3)" fill="#BECBDF"/>
<circle r="3" transform="matrix(-1 0 0 1 3 3)" fill="#BECBDF"/>
<circle r="3" transform="matrix(-1 0 0 1 363 23)" fill="#BECBDF"/>
<circle r="3" transform="matrix(-1 0 0 1 343 23)" fill="#BECBDF"/>
<circle r="3" transform="matrix(-1 0 0 1 323 23)" fill="#BECBDF"/>
<circle r="3" transform="matrix(-1 0 0 1 303 23)" fill="#BECBDF"/>
<circle r="3" transform="matrix(-1 0 0 1 283 23)" fill="#BECBDF"/>
<circle r="3" transform="matrix(-1 0 0 1 263 23)" fill="#BECBDF"/>
<circle r="3" transform="matrix(-1 0 0 1 243 23)" fill="#BECBDF"/>
<circle r="3" transform="matrix(-1 0 0 1 223 23)" fill="#BECBDF"/>
<circle r="3" transform="matrix(-1 0 0 1 203 23)" fill="#BECBDF"/>
<circle r="3" transform="matrix(-1 0 0 1 183 23)" fill="#BECBDF"/>
<circle r="3" transform="matrix(-1 0 0 1 163 23)" fill="#BECBDF"/>
<circle r="3" transform="matrix(-1 0 0 1 143 23)" fill="#BECBDF"/>
<circle r="3" transform="matrix(-1 0 0 1 123 23)" fill="#BECBDF"/>
<circle r="3" transform="matrix(-1 0 0 1 103 23)" fill="#BECBDF"/>
<circle r="3" transform="matrix(-1 0 0 1 83 23)" fill="#BECBDF"/>
<circle r="3" transform="matrix(-1 0 0 1 63 23)" fill="#BECBDF"/>
<circle r="3" transform="matrix(-1 0 0 1 43 23)" fill="#BECBDF"/>
<circle r="3" transform="matrix(-1 0 0 1 23 23)" fill="#BECBDF"/>
<circle r="3" transform="matrix(-1 0 0 1 3 23)" fill="#BECBDF"/>
<circle r="3" transform="matrix(-1 0 0 1 363 43)" fill="#BECBDF"/>
<circle r="3" transform="matrix(-1 0 0 1 343 43)" fill="#BECBDF"/>
<circle r="3" transform="matrix(-1 0 0 1 323 43)" fill="#BECBDF"/>
<circle r="3" transform="matrix(-1 0 0 1 303 43)" fill="#BECBDF"/>
<circle r="3" transform="matrix(-1 0 0 1 283 43)" fill="#BECBDF"/>
<circle r="3" transform="matrix(-1 0 0 1 263 43)" fill="#BECBDF"/>
<circle r="3" transform="matrix(-1 0 0 1 243 43)" fill="#BECBDF"/>
<circle r="3" transform="matrix(-1 0 0 1 223 43)" fill="#BECBDF"/>
<circle r="3" transform="matrix(-1 0 0 1 203 43)" fill="#BECBDF"/>
<circle r="3" transform="matrix(-1 0 0 1 183 43)" fill="#BECBDF"/>
<circle r="3" transform="matrix(-1 0 0 1 163 43)" fill="#BECBDF"/>
<circle r="3" transform="matrix(-1 0 0 1 143 43)" fill="#BECBDF"/>
<circle r="3" transform="matrix(-1 0 0 1 123 43)" fill="#BECBDF"/>
<circle r="3" transform="matrix(-1 0 0 1 103 43)" fill="#BECBDF"/>
<circle r="3" transform="matrix(-1 0 0 1 83 43)" fill="#BECBDF"/>
<circle r="3" transform="matrix(-1 0 0 1 63 43)" fill="#BECBDF"/>
<circle r="3" transform="matrix(-1 0 0 1 43 43)" fill="#BECBDF"/>
<circle r="3" transform="matrix(-1 0 0 1 23 43)" fill="#BECBDF"/>
<circle r="3" transform="matrix(-1 0 0 1 3 43)" fill="#BECBDF"/>
<circle r="3" transform="matrix(-1 0 0 1 363 63)" fill="#BECBDF"/>
<circle r="3" transform="matrix(-1 0 0 1 343 63)" fill="#BECBDF"/>
<circle r="3" transform="matrix(-1 0 0 1 323 63)" fill="#BECBDF"/>
<circle r="3" transform="matrix(-1 0 0 1 303 63)" fill="#BECBDF"/>
<circle r="3" transform="matrix(-1 0 0 1 283 63)" fill="#BECBDF"/>
<circle r="3" transform="matrix(-1 0 0 1 263 63)" fill="#BECBDF"/>
<circle r="3" transform="matrix(-1 0 0 1 243 63)" fill="#BECBDF"/>
<circle r="3" transform="matrix(-1 0 0 1 223 63)" fill="#BECBDF"/>
<circle r="3" transform="matrix(-1 0 0 1 203 63)" fill="#BECBDF"/>
<circle r="3" transform="matrix(-1 0 0 1 183 63)" fill="#BECBDF"/>
<circle r="3" transform="matrix(-1 0 0 1 163 63)" fill="#BECBDF"/>
<circle r="3" transform="matrix(-1 0 0 1 143 63)" fill="#BECBDF"/>
<circle r="3" transform="matrix(-1 0 0 1 123 63)" fill="#BECBDF"/>
<circle r="3" transform="matrix(-1 0 0 1 103 63)" fill="#BECBDF"/>
<circle r="3" transform="matrix(-1 0 0 1 83 63)" fill="#BECBDF"/>
<circle r="3" transform="matrix(-1 0 0 1 63 63)" fill="#BECBDF"/>
<circle r="3" transform="matrix(-1 0 0 1 43 63)" fill="#BECBDF"/>
<circle r="3" transform="matrix(-1 0 0 1 23 63)" fill="#BECBDF"/>
<circle r="3" transform="matrix(-1 0 0 1 3 63)" fill="#BECBDF"/>
<circle r="3" transform="matrix(-1 0 0 1 363 83)" fill="#BECBDF"/>
<circle r="3" transform="matrix(-1 0 0 1 343 83)" fill="#BECBDF"/>
<circle r="3" transform="matrix(-1 0 0 1 323 83)" fill="#BECBDF"/>
<circle r="3" transform="matrix(-1 0 0 1 303 83)" fill="#BECBDF"/>
<circle r="3" transform="matrix(-1 0 0 1 283 83)" fill="#BECBDF"/>
<circle r="3" transform="matrix(-1 0 0 1 263 83)" fill="#BECBDF"/>
<circle r="3" transform="matrix(-1 0 0 1 243 83)" fill="#BECBDF"/>
<circle r="3" transform="matrix(-1 0 0 1 223 83)" fill="#BECBDF"/>
<circle r="3" transform="matrix(-1 0 0 1 203 83)" fill="#BECBDF"/>
<circle r="3" transform="matrix(-1 0 0 1 183 83)" fill="#BECBDF"/>
<circle r="3" transform="matrix(-1 0 0 1 163 83)" fill="#BECBDF"/>
<circle r="3" transform="matrix(-1 0 0 1 143 83)" fill="#BECBDF"/>
<circle r="3" transform="matrix(-1 0 0 1 123 83)" fill="#BECBDF"/>
<circle r="3" transform="matrix(-1 0 0 1 103 83)" fill="#BECBDF"/>
<circle r="3" transform="matrix(-1 0 0 1 83 83)" fill="#BECBDF"/>
<circle r="3" transform="matrix(-1 0 0 1 63 83)" fill="#BECBDF"/>
<circle r="3" transform="matrix(-1 0 0 1 43 83)" fill="#BECBDF"/>
<circle r="3" transform="matrix(-1 0 0 1 23 83)" fill="#BECBDF"/>
<circle r="3" transform="matrix(-1 0 0 1 3 83)" fill="#BECBDF"/>
<circle r="3" transform="matrix(-1 0 0 1 363 103)" fill="#BECBDF"/>
<circle r="3" transform="matrix(-1 0 0 1 343 103)" fill="#BECBDF"/>
<circle r="3" transform="matrix(-1 0 0 1 323 103)" fill="#BECBDF"/>
<circle r="3" transform="matrix(-1 0 0 1 303 103)" fill="#BECBDF"/>
<circle r="3" transform="matrix(-1 0 0 1 283 103)" fill="#BECBDF"/>
<circle r="3" transform="matrix(-1 0 0 1 263 103)" fill="#BECBDF"/>
<circle r="3" transform="matrix(-1 0 0 1 243 103)" fill="#BECBDF"/>
<circle r="3" transform="matrix(-1 0 0 1 223 103)" fill="#BECBDF"/>
<circle r="3" transform="matrix(-1 0 0 1 203 103)" fill="#BECBDF"/>
<circle r="3" transform="matrix(-1 0 0 1 183 103)" fill="#BECBDF"/>
<circle r="3" transform="matrix(-1 0 0 1 163 103)" fill="#BECBDF"/>
<circle r="3" transform="matrix(-1 0 0 1 143 103)" fill="#BECBDF"/>
<circle r="3" transform="matrix(-1 0 0 1 123 103)" fill="#BECBDF"/>
<circle r="3" transform="matrix(-1 0 0 1 103 103)" fill="#BECBDF"/>
<circle r="3" transform="matrix(-1 0 0 1 83 103)" fill="#BECBDF"/>
<circle r="3" transform="matrix(-1 0 0 1 63 103)" fill="#BECBDF"/>
<circle r="3" transform="matrix(-1 0 0 1 43 103)" fill="#BECBDF"/>
<circle r="3" transform="matrix(-1 0 0 1 23 103)" fill="#BECBDF"/>
<circle r="3" transform="matrix(-1 0 0 1 3 103)" fill="#BECBDF"/>
<circle r="3" transform="matrix(-1 0 0 1 363 123)" fill="#BECBDF"/>
<circle r="3" transform="matrix(-1 0 0 1 343 123)" fill="#BECBDF"/>
<circle r="3" transform="matrix(-1 0 0 1 323 123)" fill="#BECBDF"/>
<circle r="3" transform="matrix(-1 0 0 1 303 123)" fill="#BECBDF"/>
<circle r="3" transform="matrix(-1 0 0 1 283 123)" fill="#BECBDF"/>
<circle r="3" transform="matrix(-1 0 0 1 263 123)" fill="#BECBDF"/>
<circle r="3" transform="matrix(-1 0 0 1 243 123)" fill="#BECBDF"/>
<circle r="3" transform="matrix(-1 0 0 1 223 123)" fill="#BECBDF"/>
<circle r="3" transform="matrix(-1 0 0 1 203 123)" fill="#BECBDF"/>
<circle r="3" transform="matrix(-1 0 0 1 183 123)" fill="#BECBDF"/>
<circle r="3" transform="matrix(-1 0 0 1 163 123)" fill="#BECBDF"/>
<circle r="3" transform="matrix(-1 0 0 1 143 123)" fill="#BECBDF"/>
<circle r="3" transform="matrix(-1 0 0 1 123 123)" fill="#BECBDF"/>
<circle r="3" transform="matrix(-1 0 0 1 103 123)" fill="#BECBDF"/>
<circle r="3" transform="matrix(-1 0 0 1 83 123)" fill="#BECBDF"/>
<circle r="3" transform="matrix(-1 0 0 1 63 123)" fill="#BECBDF"/>
<circle r="3" transform="matrix(-1 0 0 1 43 123)" fill="#BECBDF"/>
<circle r="3" transform="matrix(-1 0 0 1 23 123)" fill="#BECBDF"/>
<circle r="3" transform="matrix(-1 0 0 1 3 123)" fill="#BECBDF"/>
<circle r="3" transform="matrix(-1 0 0 1 363 143)" fill="#BECBDF"/>
<circle r="3" transform="matrix(-1 0 0 1 343 143)" fill="#BECBDF"/>
<circle r="3" transform="matrix(-1 0 0 1 323 143)" fill="#BECBDF"/>
<circle r="3" transform="matrix(-1 0 0 1 303 143)" fill="#BECBDF"/>
<circle r="3" transform="matrix(-1 0 0 1 283 143)" fill="#BECBDF"/>
<circle r="3" transform="matrix(-1 0 0 1 263 143)" fill="#BECBDF"/>
<circle r="3" transform="matrix(-1 0 0 1 243 143)" fill="#BECBDF"/>
<circle r="3" transform="matrix(-1 0 0 1 223 143)" fill="#BECBDF"/>
<circle r="3" transform="matrix(-1 0 0 1 203 143)" fill="#BECBDF"/>
<circle r="3" transform="matrix(-1 0 0 1 183 143)" fill="#BECBDF"/>
<circle r="3" transform="matrix(-1 0 0 1 163 143)" fill="#BECBDF"/>
<circle r="3" transform="matrix(-1 0 0 1 143 143)" fill="#BECBDF"/>
<circle r="3" transform="matrix(-1 0 0 1 123 143)" fill="#BECBDF"/>
<circle r="3" transform="matrix(-1 0 0 1 103 143)" fill="#BECBDF"/>
<circle r="3" transform="matrix(-1 0 0 1 83 143)" fill="#BECBDF"/>
<circle r="3" transform="matrix(-1 0 0 1 63 143)" fill="#BECBDF"/>
<circle r="3" transform="matrix(-1 0 0 1 43 143)" fill="#BECBDF"/>
<circle r="3" transform="matrix(-1 0 0 1 23 143)" fill="#BECBDF"/>
<circle r="3" transform="matrix(-1 0 0 1 3 143)" fill="#BECBDF"/>
<circle r="3" transform="matrix(-1 0 0 1 363 163)" fill="#BECBDF"/>
<circle r="3" transform="matrix(-1 0 0 1 343 163)" fill="#BECBDF"/>
<circle r="3" transform="matrix(-1 0 0 1 323 163)" fill="#BECBDF"/>
<circle r="3" transform="matrix(-1 0 0 1 303 163)" fill="#BECBDF"/>
<circle r="3" transform="matrix(-1 0 0 1 283 163)" fill="#BECBDF"/>
<circle r="3" transform="matrix(-1 0 0 1 263 163)" fill="#BECBDF"/>
<circle r="3" transform="matrix(-1 0 0 1 243 163)" fill="#BECBDF"/>
<circle r="3" transform="matrix(-1 0 0 1 223 163)" fill="#BECBDF"/>
<circle r="3" transform="matrix(-1 0 0 1 203 163)" fill="#BECBDF"/>
<circle r="3" transform="matrix(-1 0 0 1 183 163)" fill="#BECBDF"/>
<circle r="3" transform="matrix(-1 0 0 1 163 163)" fill="#BECBDF"/>
<circle r="3" transform="matrix(-1 0 0 1 143 163)" fill="#BECBDF"/>
<circle r="3" transform="matrix(-1 0 0 1 123 163)" fill="#BECBDF"/>
<circle r="3" transform="matrix(-1 0 0 1 103 163)" fill="#BECBDF"/>
<circle r="3" transform="matrix(-1 0 0 1 83 163)" fill="#BECBDF"/>
<circle r="3" transform="matrix(-1 0 0 1 63 163)" fill="#BECBDF"/>
<circle r="3" transform="matrix(-1 0 0 1 43 163)" fill="#BECBDF"/>
<circle r="3" transform="matrix(-1 0 0 1 23 163)" fill="#BECBDF"/>
<circle r="3" transform="matrix(-1 0 0 1 3 163)" fill="#BECBDF"/>
<circle r="3" transform="matrix(-1 0 0 1 363 183)" fill="#BECBDF"/>
<circle r="3" transform="matrix(-1 0 0 1 343 183)" fill="#BECBDF"/>
<circle r="3" transform="matrix(-1 0 0 1 323 183)" fill="#BECBDF"/>
<circle r="3" transform="matrix(-1 0 0 1 303 183)" fill="#BECBDF"/>
<circle r="3" transform="matrix(-1 0 0 1 283 183)" fill="#BECBDF"/>
<circle r="3" transform="matrix(-1 0 0 1 263 183)" fill="#BECBDF"/>
<circle r="3" transform="matrix(-1 0 0 1 243 183)" fill="#BECBDF"/>
<circle r="3" transform="matrix(-1 0 0 1 223 183)" fill="#BECBDF"/>
<circle r="3" transform="matrix(-1 0 0 1 203 183)" fill="#BECBDF"/>
<circle r="3" transform="matrix(-1 0 0 1 183 183)" fill="#BECBDF"/>
<circle r="3" transform="matrix(-1 0 0 1 163 183)" fill="#BECBDF"/>
<circle r="3" transform="matrix(-1 0 0 1 143 183)" fill="#BECBDF"/>
<circle r="3" transform="matrix(-1 0 0 1 123 183)" fill="#BECBDF"/>
<circle r="3" transform="matrix(-1 0 0 1 103 183)" fill="#BECBDF"/>
<circle r="3" transform="matrix(-1 0 0 1 83 183)" fill="#BECBDF"/>
<circle r="3" transform="matrix(-1 0 0 1 63 183)" fill="#BECBDF"/>
<circle r="3" transform="matrix(-1 0 0 1 43 183)" fill="#BECBDF"/>
<circle r="3" transform="matrix(-1 0 0 1 23 183)" fill="#BECBDF"/>
<circle r="3" transform="matrix(-1 0 0 1 3 183)" fill="#BECBDF"/>
<circle r="3" transform="matrix(-1 0 0 1 363 203)" fill="#BECBDF"/>
<circle r="3" transform="matrix(-1 0 0 1 343 203)" fill="#BECBDF"/>
<circle r="3" transform="matrix(-1 0 0 1 323 203)" fill="#BECBDF"/>
<circle r="3" transform="matrix(-1 0 0 1 303 203)" fill="#BECBDF"/>
<circle r="3" transform="matrix(-1 0 0 1 283 203)" fill="#BECBDF"/>
<circle r="3" transform="matrix(-1 0 0 1 263 203)" fill="#BECBDF"/>
<circle r="3" transform="matrix(-1 0 0 1 243 203)" fill="#BECBDF"/>
<circle r="3" transform="matrix(-1 0 0 1 223 203)" fill="#BECBDF"/>
<circle r="3" transform="matrix(-1 0 0 1 203 203)" fill="#BECBDF"/>
<circle r="3" transform="matrix(-1 0 0 1 183 203)" fill="#BECBDF"/>
<circle r="3" transform="matrix(-1 0 0 1 163 203)" fill="#BECBDF"/>
<circle r="3" transform="matrix(-1 0 0 1 143 203)" fill="#BECBDF"/>
<circle r="3" transform="matrix(-1 0 0 1 123 203)" fill="#BECBDF"/>
<circle r="3" transform="matrix(-1 0 0 1 103 203)" fill="#BECBDF"/>
<circle r="3" transform="matrix(-1 0 0 1 83 203)" fill="#BECBDF"/>
<circle r="3" transform="matrix(-1 0 0 1 63 203)" fill="#BECBDF"/>
<circle r="3" transform="matrix(-1 0 0 1 43 203)" fill="#BECBDF"/>
<circle r="3" transform="matrix(-1 0 0 1 23 203)" fill="#BECBDF"/>
<circle r="3" transform="matrix(-1 0 0 1 3 203)" fill="#BECBDF"/>
<circle r="3" transform="matrix(-1 0 0 1 363 223)" fill="#BECBDF"/>
<circle r="3" transform="matrix(-1 0 0 1 343 223)" fill="#BECBDF"/>
<circle r="3" transform="matrix(-1 0 0 1 323 223)" fill="#BECBDF"/>
<circle r="3" transform="matrix(-1 0 0 1 303 223)" fill="#BECBDF"/>
<circle r="3" transform="matrix(-1 0 0 1 283 223)" fill="#BECBDF"/>
<circle r="3" transform="matrix(-1 0 0 1 263 223)" fill="#BECBDF"/>
<circle r="3" transform="matrix(-1 0 0 1 243 223)" fill="#BECBDF"/>
<circle r="3" transform="matrix(-1 0 0 1 223 223)" fill="#BECBDF"/>
<circle r="3" transform="matrix(-1 0 0 1 203 223)" fill="#BECBDF"/>
<circle r="3" transform="matrix(-1 0 0 1 183 223)" fill="#BECBDF"/>
<circle r="3" transform="matrix(-1 0 0 1 163 223)" fill="#BECBDF"/>
<circle r="3" transform="matrix(-1 0 0 1 143 223)" fill="#BECBDF"/>
<circle r="3" transform="matrix(-1 0 0 1 123 223)" fill="#BECBDF"/>
<circle r="3" transform="matrix(-1 0 0 1 103 223)" fill="#BECBDF"/>
<circle r="3" transform="matrix(-1 0 0 1 83 223)" fill="#BECBDF"/>
<circle r="3" transform="matrix(-1 0 0 1 63 223)" fill="#BECBDF"/>
<circle r="3" transform="matrix(-1 0 0 1 43 223)" fill="#BECBDF"/>
<circle r="3" transform="matrix(-1 0 0 1 23 223)" fill="#BECBDF"/>
<circle r="3" transform="matrix(-1 0 0 1 3 223)" fill="#BECBDF"/>
<circle r="3" transform="matrix(-1 0 0 1 363 243)" fill="#BECBDF"/>
<circle r="3" transform="matrix(-1 0 0 1 343 243)" fill="#BECBDF"/>
<circle r="3" transform="matrix(-1 0 0 1 323 243)" fill="#BECBDF"/>
<circle r="3" transform="matrix(-1 0 0 1 303 243)" fill="#BECBDF"/>
<circle r="3" transform="matrix(-1 0 0 1 283 243)" fill="#BECBDF"/>
<circle r="3" transform="matrix(-1 0 0 1 263 243)" fill="#BECBDF"/>
<circle r="3" transform="matrix(-1 0 0 1 243 243)" fill="#BECBDF"/>
<circle r="3" transform="matrix(-1 0 0 1 223 243)" fill="#BECBDF"/>
<circle r="3" transform="matrix(-1 0 0 1 203 243)" fill="#BECBDF"/>
<circle r="3" transform="matrix(-1 0 0 1 183 243)" fill="#BECBDF"/>
<circle r="3" transform="matrix(-1 0 0 1 163 243)" fill="#BECBDF"/>
<circle r="3" transform="matrix(-1 0 0 1 143 243)" fill="#BECBDF"/>
<circle r="3" transform="matrix(-1 0 0 1 123 243)" fill="#BECBDF"/>
<circle r="3" transform="matrix(-1 0 0 1 103 243)" fill="#BECBDF"/>
<circle r="3" transform="matrix(-1 0 0 1 83 243)" fill="#BECBDF"/>
<circle r="3" transform="matrix(-1 0 0 1 63 243)" fill="#BECBDF"/>
<circle r="3" transform="matrix(-1 0 0 1 43 243)" fill="#BECBDF"/>
<circle r="3" transform="matrix(-1 0 0 1 23 243)" fill="#BECBDF"/>
<circle r="3" transform="matrix(-1 0 0 1 3 243)" fill="#BECBDF"/>
<circle r="3" transform="matrix(-1 0 0 1 363 263)" fill="#BECBDF"/>
<circle r="3" transform="matrix(-1 0 0 1 343 263)" fill="#BECBDF"/>
<circle r="3" transform="matrix(-1 0 0 1 323 263)" fill="#BECBDF"/>
<circle r="3" transform="matrix(-1 0 0 1 303 263)" fill="#BECBDF"/>
<circle r="3" transform="matrix(-1 0 0 1 283 263)" fill="#BECBDF"/>
<circle r="3" transform="matrix(-1 0 0 1 263 263)" fill="#BECBDF"/>
<circle r="3" transform="matrix(-1 0 0 1 243 263)" fill="#BECBDF"/>
<circle r="3" transform="matrix(-1 0 0 1 223 263)" fill="#BECBDF"/>
<circle r="3" transform="matrix(-1 0 0 1 203 263)" fill="#BECBDF"/>
<circle r="3" transform="matrix(-1 0 0 1 183 263)" fill="#BECBDF"/>
<circle r="3" transform="matrix(-1 0 0 1 163 263)" fill="#BECBDF"/>
<circle r="3" transform="matrix(-1 0 0 1 143 263)" fill="#BECBDF"/>
<circle r="3" transform="matrix(-1 0 0 1 123 263)" fill="#BECBDF"/>
<circle r="3" transform="matrix(-1 0 0 1 103 263)" fill="#BECBDF"/>
<circle r="3" transform="matrix(-1 0 0 1 83 263)" fill="#BECBDF"/>
<circle r="3" transform="matrix(-1 0 0 1 63 263)" fill="#BECBDF"/>
<circle r="3" transform="matrix(-1 0 0 1 43 263)" fill="#BECBDF"/>
<circle r="3" transform="matrix(-1 0 0 1 23 263)" fill="#BECBDF"/>
<circle r="3" transform="matrix(-1 0 0 1 3 263)" fill="#BECBDF"/>
<circle r="3" transform="matrix(-1 0 0 1 363 283)" fill="#BECBDF"/>
<circle r="3" transform="matrix(-1 0 0 1 343 283)" fill="#BECBDF"/>
<circle r="3" transform="matrix(-1 0 0 1 323 283)" fill="#BECBDF"/>
<circle r="3" transform="matrix(-1 0 0 1 303 283)" fill="#BECBDF"/>
<circle r="3" transform="matrix(-1 0 0 1 283 283)" fill="#BECBDF"/>
<circle r="3" transform="matrix(-1 0 0 1 263 283)" fill="#BECBDF"/>
<circle r="3" transform="matrix(-1 0 0 1 243 283)" fill="#BECBDF"/>
<circle r="3" transform="matrix(-1 0 0 1 223 283)" fill="#BECBDF"/>
<circle r="3" transform="matrix(-1 0 0 1 203 283)" fill="#BECBDF"/>
<circle r="3" transform="matrix(-1 0 0 1 183 283)" fill="#BECBDF"/>
<circle r="3" transform="matrix(-1 0 0 1 163 283)" fill="#BECBDF"/>
<circle r="3" transform="matrix(-1 0 0 1 143 283)" fill="#BECBDF"/>
<circle r="3" transform="matrix(-1 0 0 1 123 283)" fill="#BECBDF"/>
<circle r="3" transform="matrix(-1 0 0 1 103 283)" fill="#BECBDF"/>
<circle r="3" transform="matrix(-1 0 0 1 83 283)" fill="#BECBDF"/>
<circle r="3" transform="matrix(-1 0 0 1 63 283)" fill="#BECBDF"/>
<circle r="3" transform="matrix(-1 0 0 1 43 283)" fill="#BECBDF"/>
<circle r="3" transform="matrix(-1 0 0 1 23 283)" fill="#BECBDF"/>
<circle r="3" transform="matrix(-1 0 0 1 3 283)" fill="#BECBDF"/>
<circle r="3" transform="matrix(-1 0 0 1 363 303)" fill="#BECBDF"/>
<circle r="3" transform="matrix(-1 0 0 1 343 303)" fill="#BECBDF"/>
<circle r="3" transform="matrix(-1 0 0 1 323 303)" fill="#BECBDF"/>
<circle r="3" transform="matrix(-1 0 0 1 303 303)" fill="#BECBDF"/>
<circle r="3" transform="matrix(-1 0 0 1 283 303)" fill="#BECBDF"/>
<circle r="3" transform="matrix(-1 0 0 1 263 303)" fill="#BECBDF"/>
<circle r="3" transform="matrix(-1 0 0 1 243 303)" fill="#BECBDF"/>
<circle r="3" transform="matrix(-1 0 0 1 223 303)" fill="#BECBDF"/>
<circle r="3" transform="matrix(-1 0 0 1 203 303)" fill="#BECBDF"/>
<circle r="3" transform="matrix(-1 0 0 1 183 303)" fill="#BECBDF"/>
<circle r="3" transform="matrix(-1 0 0 1 163 303)" fill="#BECBDF"/>
<circle r="3" transform="matrix(-1 0 0 1 143 303)" fill="#BECBDF"/>
<circle r="3" transform="matrix(-1 0 0 1 123 303)" fill="#BECBDF"/>
<circle r="3" transform="matrix(-1 0 0 1 103 303)" fill="#BECBDF"/>
<circle r="3" transform="matrix(-1 0 0 1 83 303)" fill="#BECBDF"/>
<circle r="3" transform="matrix(-1 0 0 1 63 303)" fill="#BECBDF"/>
<circle r="3" transform="matrix(-1 0 0 1 43 303)" fill="#BECBDF"/>
<circle r="3" transform="matrix(-1 0 0 1 23 303)" fill="#BECBDF"/>
<circle r="3" transform="matrix(-1 0 0 1 3 303)" fill="#BECBDF"/>
<circle r="3" transform="matrix(-1 0 0 1 363 323)" fill="#BECBDF"/>
<circle r="3" transform="matrix(-1 0 0 1 343 323)" fill="#BECBDF"/>
<circle r="3" transform="matrix(-1 0 0 1 323 323)" fill="#BECBDF"/>
<circle r="3" transform="matrix(-1 0 0 1 303 323)" fill="#BECBDF"/>
<circle r="3" transform="matrix(-1 0 0 1 283 323)" fill="#BECBDF"/>
<circle r="3" transform="matrix(-1 0 0 1 263 323)" fill="#BECBDF"/>
<circle r="3" transform="matrix(-1 0 0 1 243 323)" fill="#BECBDF"/>
<circle r="3" transform="matrix(-1 0 0 1 223 323)" fill="#BECBDF"/>
<circle r="3" transform="matrix(-1 0 0 1 203 323)" fill="#BECBDF"/>
<circle r="3" transform="matrix(-1 0 0 1 183 323)" fill="#BECBDF"/>
<circle r="3" transform="matrix(-1 0 0 1 163 323)" fill="#BECBDF"/>
<circle r="3" transform="matrix(-1 0 0 1 143 323)" fill="#BECBDF"/>
<circle r="3" transform="matrix(-1 0 0 1 123 323)" fill="#BECBDF"/>
<circle r="3" transform="matrix(-1 0 0 1 103 323)" fill="#BECBDF"/>
<circle r="3" transform="matrix(-1 0 0 1 83 323)" fill="#BECBDF"/>
<circle r="3" transform="matrix(-1 0 0 1 63 323)" fill="#BECBDF"/>
<circle r="3" transform="matrix(-1 0 0 1 43 323)" fill="#BECBDF"/>
<circle r="3" transform="matrix(-1 0 0 1 23 323)" fill="#BECBDF"/>
<circle r="3" transform="matrix(-1 0 0 1 3 323)" fill="#BECBDF"/>
<circle r="3" transform="matrix(-1 0 0 1 363 343)" fill="#BECBDF"/>
<circle r="3" transform="matrix(-1 0 0 1 343 343)" fill="#BECBDF"/>
<circle r="3" transform="matrix(-1 0 0 1 323 343)" fill="#BECBDF"/>
<circle r="3" transform="matrix(-1 0 0 1 303 343)" fill="#BECBDF"/>
<circle r="3" transform="matrix(-1 0 0 1 283 343)" fill="#BECBDF"/>
<circle r="3" transform="matrix(-1 0 0 1 263 343)" fill="#BECBDF"/>
<circle r="3" transform="matrix(-1 0 0 1 243 343)" fill="#BECBDF"/>
<circle r="3" transform="matrix(-1 0 0 1 223 343)" fill="#BECBDF"/>
<circle r="3" transform="matrix(-1 0 0 1 203 343)" fill="#BECBDF"/>
<circle r="3" transform="matrix(-1 0 0 1 183 343)" fill="#BECBDF"/>
<circle r="3" transform="matrix(-1 0 0 1 163 343)" fill="#BECBDF"/>
<circle r="3" transform="matrix(-1 0 0 1 143 343)" fill="#BECBDF"/>
<circle r="3" transform="matrix(-1 0 0 1 123 343)" fill="#BECBDF"/>
<circle r="3" transform="matrix(-1 0 0 1 103 343)" fill="#BECBDF"/>
<circle r="3" transform="matrix(-1 0 0 1 83 343)" fill="#BECBDF"/>
<circle r="3" transform="matrix(-1 0 0 1 63 343)" fill="#BECBDF"/>
<circle r="3" transform="matrix(-1 0 0 1 43 343)" fill="#BECBDF"/>
<circle r="3" transform="matrix(-1 0 0 1 23 343)" fill="#BECBDF"/>
<circle r="3" transform="matrix(-1 0 0 1 3 343)" fill="#BECBDF"/>
<circle r="3" transform="matrix(-1 0 0 1 363 363)" fill="#BECBDF"/>
<circle r="3" transform="matrix(-1 0 0 1 343 363)" fill="#BECBDF"/>
<circle r="3" transform="matrix(-1 0 0 1 323 363)" fill="#BECBDF"/>
<circle r="3" transform="matrix(-1 0 0 1 303 363)" fill="#BECBDF"/>
<circle r="3" transform="matrix(-1 0 0 1 283 363)" fill="#BECBDF"/>
<circle r="3" transform="matrix(-1 0 0 1 263 363)" fill="#BECBDF"/>
<circle r="3" transform="matrix(-1 0 0 1 243 363)" fill="#BECBDF"/>
<circle r="3" transform="matrix(-1 0 0 1 223 363)" fill="#BECBDF"/>
<circle r="3" transform="matrix(-1 0 0 1 203 363)" fill="#BECBDF"/>
<circle r="3" transform="matrix(-1 0 0 1 183 363)" fill="#BECBDF"/>
<circle r="3" transform="matrix(-1 0 0 1 163 363)" fill="#BECBDF"/>
<circle r="3" transform="matrix(-1 0 0 1 143 363)" fill="#BECBDF"/>
<circle r="3" transform="matrix(-1 0 0 1 123 363)" fill="#BECBDF"/>
<circle r="3" transform="matrix(-1 0 0 1 103 363)" fill="#BECBDF"/>
<circle r="3" transform="matrix(-1 0 0 1 83 363)" fill="#BECBDF"/>
<circle r="3" transform="matrix(-1 0 0 1 63 363)" fill="#BECBDF"/>
<circle r="3" transform="matrix(-1 0 0 1 43 363)" fill="#BECBDF"/>
<circle r="3" transform="matrix(-1 0 0 1 23 363)" fill="#BECBDF"/>
<circle r="3" transform="matrix(-1 0 0 1 3 363)" fill="#BECBDF"/>
<circle r="3" transform="matrix(-1 0 0 1 363 383)" fill="#BECBDF"/>
<circle r="3" transform="matrix(-1 0 0 1 343 383)" fill="#BECBDF"/>
<circle r="3" transform="matrix(-1 0 0 1 323 383)" fill="#BECBDF"/>
<circle r="3" transform="matrix(-1 0 0 1 303 383)" fill="#BECBDF"/>
<circle r="3" transform="matrix(-1 0 0 1 283 383)" fill="#BECBDF"/>
<circle r="3" transform="matrix(-1 0 0 1 263 383)" fill="#BECBDF"/>
<circle r="3" transform="matrix(-1 0 0 1 243 383)" fill="#BECBDF"/>
<circle r="3" transform="matrix(-1 0 0 1 223 383)" fill="#BECBDF"/>
<circle r="3" transform="matrix(-1 0 0 1 203 383)" fill="#BECBDF"/>
<circle r="3" transform="matrix(-1 0 0 1 183 383)" fill="#BECBDF"/>
<circle r="3" transform="matrix(-1 0 0 1 163 383)" fill="#BECBDF"/>
<circle r="3" transform="matrix(-1 0 0 1 143 383)" fill="#BECBDF"/>
<circle r="3" transform="matrix(-1 0 0 1 123 383)" fill="#BECBDF"/>
<circle r="3" transform="matrix(-1 0 0 1 103 383)" fill="#BECBDF"/>
<circle r="3" transform="matrix(-1 0 0 1 83 383)" fill="#BECBDF"/>
<circle r="3" transform="matrix(-1 0 0 1 63 383)" fill="#BECBDF"/>
<circle r="3" transform="matrix(-1 0 0 1 43 383)" fill="#BECBDF"/>
<circle r="3" transform="matrix(-1 0 0 1 23 383)" fill="#BECBDF"/>
<circle r="3" transform="matrix(-1 0 0 1 3 383)" fill="#BECBDF"/>
</g>
</svg>
