<svg width="108" height="16" viewBox="0 0 108 16" fill="none" xmlns="http://www.w3.org/2000/svg">
<g clip-path="url(#clip0)">
<path d="M-7.50002 16C-1.00002 16 2.29999 12.5 5.19999 9.4C7.99999 6.5 10.3 4 15.1 4C19.9 4 22.2 6.5 24.9 9.4C27.8 12.5 31.1 16 37.6 16C44.1 16 47.4 12.5 50.3 9.4C53 6.5 55.3 4 60.1 4C64.9 4 67.3 6.5 70 9.4C72.9 12.5 76.2 16 82.7 16C89.2 16 92.5 12.5 95.4 9.4C98.2 6.5 100.5 4 105.3 4C106.4 4 107.3 3.1 107.3 2C107.3 0.9 106.4 0 105.3 0C98.8 0 95.5 3.5 92.6 6.6C89.9 9.5 87.6 12 82.8 12C78 12 75.7 9.5 73 6.6C70 3.5 66.7 0 60.2 0C53.7 0 50.4 3.5 47.5 6.6C44.8 9.5 42.5 12 37.7 12C32.9 12 30.6 9.5 27.9 6.6C24.9 3.5 21.6 0 15.1 0C8.59999 0 5.29999 3.5 2.29999 6.6C-0.400009 9.5 -2.70001 12 -7.50002 12C-12.3 12 -14.6 9.5 -17.3 6.6C-20.2 3.5 -23.5 0 -30 0C-31.1 0 -32 0.9 -32 2C-32 3.1 -31.1 4 -30 4C-25.2 4 -22.9 6.5 -20.2 9.4C-17.3 12.5 -14 16 -7.50002 16Z" fill="url(#paint0_linear)"/>
</g>
<defs>
<linearGradient id="paint0_linear" x1="146.27" y1="12.7529" x2="-195.493" y2="-40.7684" gradientUnits="userSpaceOnUse">
<stop stop-color="#6E2AFF"/>
<stop offset="1" stop-color="#7ADBEE"/>
</linearGradient>
<clipPath id="clip0">
<rect width="139.3" height="16" fill="white" transform="matrix(-1 0 0 1 107.3 0)"/>
</clipPath>
</defs>
</svg>
