<svg width="85" height="16" viewBox="0 0 85 16" fill="none" xmlns="http://www.w3.org/2000/svg">
<g clip-path="url(#clip0)">
<path d="M25.2 16C31.7 16 35 12.5 37.9 9.4C40.7 6.5 43 4 47.8 4C52.6 4 54.9 6.5 57.6 9.4C60.5 12.5 63.8 16 70.3 16C76.8 16 80.1 12.5 83 9.4C85.7 6.5 88 4 92.8 4C97.6 4 100 6.5 102.7 9.4C105.6 12.5 108.9 16 115.4 16C121.9 16 125.2 12.5 128.1 9.4C130.9 6.5 133.2 4 138 4C139.1 4 140 3.1 140 2C140 0.9 139.1 0 138 0C131.5 0 128.2 3.5 125.3 6.6C122.6 9.5 120.3 12 115.5 12C110.7 12 108.4 9.5 105.7 6.6C102.7 3.5 99.4 0 92.9 0C86.4 0 83.1 3.5 80.2 6.6C77.5 9.5 75.2 12 70.4 12C65.6 12 63.3 9.5 60.6 6.6C57.6 3.5 54.3 0 47.8 0C41.3 0 38 3.5 35 6.6C32.3 9.5 30 12 25.2 12C20.4 12 18.1 9.5 15.4 6.6C12.5 3.5 9.2 0 2.7 0C1.59999 0 0.699997 0.9 0.699997 2C0.699997 3.1 1.59999 4 2.7 4C7.5 4 9.8 6.5 12.5 9.4C15.4 12.5 18.7 16 25.2 16Z" fill="url(#paint0_linear)"/>
</g>
<defs>
<linearGradient id="paint0_linear" x1="178.97" y1="12.7529" x2="-162.793" y2="-40.7684" gradientUnits="userSpaceOnUse">
<stop stop-color="#6E2AFF"/>
<stop offset="1" stop-color="#7ADBEE"/>
</linearGradient>
<clipPath id="clip0">
<rect width="139.3" height="16" fill="white" transform="matrix(-1 0 0 1 140 0)"/>
</clipPath>
</defs>
</svg>
