<svg width="268" height="40" viewBox="0 0 268 40" fill="none" xmlns="http://www.w3.org/2000/svg">
<g clip-path="url(#clip0)">
<path fill-rule="evenodd" clip-rule="evenodd" d="M23.9817 11.0526L24.6819 8.94737H32.9092L27.8328 24.5614H19.6055L21.531 18.0702H13.3037L8.5774 24.5614H0L17.855 0H43.4121C43.4997 0 43.631 0.0438601 43.7622 0.08772C43.8935 0.131579 44.0248 0.175439 44.1123 0.175439C44.4624 0.350877 44.6375 0.526316 44.8125 0.877193C44.9876 1.22807 45.1626 1.57895 45.1626 1.92982C45.3377 2.2807 45.3377 2.63158 45.1626 2.98246L43.9373 7.01754H25.2071H22.9314H21.531L18.5552 11.0526H23.9817ZM149.317 8.94737L149.492 8.77193L152.293 0H144.24L136.188 24.5614H144.415L147.216 15.7895H154.743L151.767 24.5614H159.995L165.071 8.94737H149.317ZM194.304 2.2807C194.304 1.75439 194.129 1.40351 193.779 1.05263C193.429 0.701754 193.254 0.526316 192.904 0.350877C192.554 0 192.204 0 191.854 0H162.971C162.62 0 162.095 0 161.57 0.175439C161.045 0.350877 160.695 0.526316 160.17 0.877193C159.995 1.14035 159.776 1.35965 159.557 1.57895C159.338 1.79825 159.12 2.01754 158.944 2.2807C158.594 2.80702 158.244 3.33333 158.069 3.85965L157.019 7.01754H165.071H183.276H184.852L181.526 17.3684H173.123L175.924 8.94737H167.872L164.021 20.7018C163.846 21.2281 163.671 21.9298 163.846 22.2807C163.846 22.807 164.021 23.1579 164.371 23.5088C164.546 23.8596 164.896 24.0351 165.246 24.2105C165.421 24.5614 165.771 24.5614 166.297 24.5614H183.801C184.152 24.5614 184.677 24.5614 185.202 24.386C185.727 24.2105 186.077 24.0351 186.602 23.6842C187.127 23.3333 187.477 22.9825 187.828 22.4561C188.178 21.9298 188.528 21.4035 188.703 20.8772L194.129 4.03509C194.304 3.33333 194.479 2.63158 194.304 2.2807ZM264.849 8.77193H252.946L255.747 0H247.694L242.618 15.614H258.897L258.197 17.5439H231.765L235.091 7.19298H242.093L244.368 0.175439H218.636H210.759H201.481C201.131 0.175439 200.606 0.175439 200.081 0.350877C199.556 0.526316 199.206 0.701754 198.681 1.05263C198.155 1.40351 197.805 1.75439 197.455 2.2807C197.105 2.80702 196.755 3.33333 196.58 3.85965L191.153 20.7018C190.978 21.2281 190.803 21.9298 190.978 22.2807C190.978 22.807 191.153 23.1579 191.504 23.5088C191.679 23.8596 192.029 24.0351 192.379 24.2105C192.729 24.386 193.079 24.386 193.604 24.386H210.584C210.934 24.386 211.459 24.386 211.984 24.2105C212.509 24.0351 212.86 23.8596 213.385 23.5088C213.91 23.1579 214.26 22.807 214.61 22.2807L214.61 22.2806C214.96 21.7543 215.31 21.228 215.485 20.7018L217.586 14.2105H209.359L208.308 17.5439H200.431L203.757 7.19298H207.258H208.483H211.634H219.862H226.863L222.487 20.8772C221.787 22.807 223.362 24.7368 225.288 24.7368H262.398C262.749 24.7368 263.274 24.386 263.799 24.0351C264.324 23.6842 264.674 23.1579 264.849 22.807L267.475 14.9123C267.475 14.8421 267.531 14.6878 267.609 14.4718L267.609 14.4716C267.727 14.1474 267.895 13.6842 268 13.1579C268.525 10.8772 266.95 8.77193 264.849 8.77193ZM136.888 12.807V13.8596C136.888 13.9937 136.863 14.1021 136.841 14.1947C136.806 14.3446 136.78 14.453 136.888 14.5614L134.263 22.4561C134.087 22.807 133.737 23.3333 133.212 23.6842C132.687 24.0351 132.162 24.386 131.812 24.386H102.404C100.478 24.386 98.9026 22.4561 99.6028 20.5263L101.878 13.3333L90.5003 24.5614H82.273L87.8746 7.01754H78.0718L73.3455 21.5789C72.8203 23.3333 71.2449 24.5614 69.3194 24.5614H46.0379L47.2632 20.8772C47.6133 20 47.4382 19.1228 47.0881 18.2456L45.6878 15.7895H41.4866L38.6858 24.5614H30.6335L35.5349 8.94737H43.7622H46.2129H47.7883L51.2893 5.96491C51.9895 5.4386 52.5147 4.5614 52.8648 3.68421L54.0901 0H62.3174L61.6172 2.2807C60.3919 5.78947 58.4663 8.59649 55.6655 10.8772L53.3899 12.6316L54.2652 13.8596C55.1404 14.9123 55.6655 16.3158 55.8406 17.5439H66.6936L70.0196 7.01754H63.0176L65.2932 0H90.1502H92.7759H98.3775L94.8765 10.8772L106.08 0H114.307L108.705 17.5439H119.558H122.709H127.611L128.311 15.614H122.709H120.259H112.031L113.607 10.5263L114.132 8.94737L117.108 0H136.188C136.538 0 136.713 0 136.888 0.175439L137.413 0.701754C137.413 0.774423 137.443 0.847093 137.479 0.93223C137.528 1.05263 137.588 1.19797 137.588 1.40351C137.714 1.65587 137.659 1.90823 137.618 2.09532C137.602 2.16835 137.588 2.23144 137.588 2.2807L135.488 8.77193C135.838 9.82456 136.188 10.5263 136.538 11.2281C136.713 11.7544 136.888 12.2807 136.888 12.807ZM127.086 8.94737H127.261L127.786 7.01754H126.91H123.059L122.534 8.94737H127.086Z" fill="url(#paint0_linear)"/>
<path d="M2.10059 39.6491C1.57544 39.4737 1.22534 39.1228 0.875244 38.5965C0.525146 38.0702 0.525146 37.7193 0.525146 37.0175C0.525146 36.3158 0.700195 35.614 1.05029 34.9123C1.40039 34.2105 1.92554 33.8596 2.45069 33.5088C2.97583 33.1579 3.85108 32.9825 4.55127 32.9825C5.07642 32.9825 5.60157 33.1579 6.12671 33.3333C6.65186 33.5088 7.00196 33.8596 7.17701 34.2105L6.12671 35.0877C5.77662 34.5614 5.25147 34.386 4.55127 34.386C4.02613 34.386 3.67603 34.5614 3.32593 34.7368C2.97583 34.9123 2.62573 35.2632 2.45069 35.614C2.27564 35.9649 2.10059 36.4912 2.10059 36.8421C2.10059 37.3684 2.27564 37.7193 2.62573 38.0702C2.80078 38.4211 3.32593 38.5965 3.85108 38.5965C4.55127 38.5965 5.07642 38.4211 5.60157 37.8947L6.47681 38.7719C5.77662 39.4737 4.90137 40 3.67603 40C3.15088 40 2.62573 39.8246 2.10059 39.6491Z" fill="#627289"/>
<path d="M16.6296 33.1579L15.2293 39.8246H13.8289L14.8792 34.386H11.9033L10.853 39.8246H9.27759L10.678 33.1579H16.6296Z" fill="#627289"/>
<path d="M20.6558 39.6491C20.1306 39.4737 19.7805 39.1228 19.6055 38.5965C19.4304 38.0702 19.2554 37.7193 19.2554 37.0175C19.2554 36.3158 19.4304 35.614 19.7805 34.9123C20.1306 34.2105 20.6558 33.8596 21.1809 33.5088C21.7061 33.1579 22.5813 32.9825 23.2815 32.9825C23.9817 32.9825 24.5068 33.1579 25.032 33.3333C25.5571 33.5088 25.9072 33.8596 26.0823 34.386C26.2573 34.7368 26.4324 35.2632 26.4324 35.9649C26.4324 36.6667 26.2573 37.3684 25.9072 38.0702C25.5571 38.7719 25.032 39.1228 24.5068 39.4737C23.9817 39.8246 23.1064 40 22.4063 40C21.7061 40 21.0059 39.8246 20.6558 39.6491ZM23.8066 38.2456C24.1567 38.0702 24.5068 37.7193 24.6819 37.3684C24.8569 37.0175 25.032 36.4912 25.032 36.1403C25.032 35.614 24.8569 35.2632 24.5068 34.9123C24.1567 34.5614 23.8066 34.386 23.1064 34.386C22.5813 34.386 22.2312 34.5614 21.8811 34.7368C21.531 34.9123 21.1809 35.2632 21.0059 35.614C20.8308 35.9649 20.6558 36.4912 20.6558 36.8421C20.6558 37.3684 20.8308 37.7193 21.1809 38.0702C21.531 38.4211 21.8811 38.5965 22.5813 38.5965C22.9314 38.5965 23.2815 38.5965 23.8066 38.2456Z" fill="#627289"/>
<path d="M34.6597 33.6842C35.1848 34.0351 35.3599 34.5614 35.3599 35.2632C35.3599 35.7895 35.1848 36.3158 35.0098 36.6667C34.6597 37.0175 34.3096 37.3684 33.9595 37.5439C33.4343 37.7193 32.9092 37.8947 32.209 37.8947H30.8086L30.4585 39.6491H28.8831L30.2834 32.9825H32.9092C33.6094 33.1579 34.3096 33.3333 34.6597 33.6842ZM33.4343 36.3158C33.7844 36.1404 33.7844 35.7895 33.7844 35.2632C33.7844 34.9123 33.6094 34.7368 33.4343 34.5614C33.2593 34.386 32.9092 34.386 32.5591 34.386H31.5088L30.9836 36.6667H32.209C32.7341 36.6667 33.0842 36.6667 33.4343 36.3158Z" fill="#627289"/>
<path d="M43.5872 34.386H41.4866L40.4363 39.8246H38.8609L39.9112 34.386H37.8106L37.9857 33.1579H43.7623L43.5872 34.386Z" fill="#627289"/>
<path d="M46.7381 33.1579H48.3135L47.4383 37.5439L51.4644 33.1579H52.8648L51.4644 39.8246H49.889L50.7642 35.4386L46.7381 39.8246H45.3377L46.7381 33.1579Z" fill="#627289"/>
<path d="M61.2672 36.8421C61.4422 37.0175 61.4422 37.3684 61.4422 37.7193C61.4422 38.4211 61.0921 38.9474 60.567 39.2982C60.0418 39.6491 59.3416 39.8246 58.4664 39.8246H54.9654L56.3658 33.1579H59.5167C60.2169 33.1579 60.742 33.3333 61.0921 33.5088C61.4422 33.8597 61.6173 34.2105 61.6173 34.5614C61.6173 34.9123 61.4422 35.2632 61.2672 35.614C61.0921 35.9649 60.742 36.1404 60.3919 36.3158C60.9171 36.4912 61.0921 36.6667 61.2672 36.8421ZM59.6917 38.4211C59.8668 38.2456 60.0418 38.0702 60.0418 37.7193C60.0418 37.193 59.6917 37.0175 58.9915 37.0175H57.066L56.8909 38.5965H58.6414C58.9915 38.5965 59.3416 38.5965 59.6917 38.4211ZM57.5911 34.386L57.241 35.9649H58.8165C59.1666 35.9649 59.5167 35.9649 59.6917 35.7895C59.8668 35.614 60.0418 35.4386 60.0418 35.0877C60.0418 34.7368 59.6917 34.386 58.9915 34.386H57.5911Z" fill="#627289"/>
<path d="M71.7701 33.1579L70.3697 39.8246H68.7943L69.3194 37.193H66.3436L65.8184 39.8246H64.243L65.6434 33.1579H67.2188L66.6937 35.7895H69.6695L70.1947 33.1579H71.7701Z" fill="#627289"/>
<path d="M75.6212 39.6491C75.096 39.4737 74.7459 39.1228 74.5709 38.5965C74.3958 38.0702 74.2208 37.7193 74.2208 37.0175C74.2208 36.3158 74.3958 35.614 74.7459 34.9123C75.096 34.2105 75.6212 33.8596 76.1463 33.5088C76.6714 33.1579 77.5467 32.9825 78.2469 32.9825C78.9471 32.9825 79.4722 33.1579 79.9974 33.3333C80.5225 33.5088 80.8726 33.8596 81.0477 34.386C81.2227 34.7368 81.3978 35.2632 81.3978 35.9649C81.3978 36.6667 81.2227 37.3684 80.8726 38.0702C80.5225 38.7719 79.9974 39.1228 79.4722 39.4737C78.9471 39.8246 78.0718 40 77.3716 40C76.6714 40 76.1463 39.8246 75.6212 39.6491ZM78.772 38.2456C79.1221 38.0702 79.4722 37.7193 79.6473 37.3684C79.8223 37.0175 79.9974 36.4912 79.9974 36.1403C79.9974 35.614 79.8223 35.2632 79.4722 34.9123C79.1221 34.5614 78.772 34.386 78.0718 34.386C77.5467 34.386 77.1966 34.5614 76.8465 34.7368C76.4964 34.9123 76.1463 35.2632 75.9713 35.614C75.7962 35.9649 75.6212 36.4912 75.6212 36.8421C75.6212 37.3684 75.7962 37.7193 76.1463 38.0702C76.4964 38.4211 76.8465 38.5965 77.5467 38.5965C77.8968 38.5965 78.4219 38.5965 78.772 38.2456Z" fill="#627289"/>
<path d="M86.4742 34.386L86.1241 35.7895H89.275L89.0999 37.0175H85.949L85.5989 38.5965H89.275L89.0999 39.8246H84.0235L85.4239 33.1579H90.5003L90.3253 34.386H86.4742Z" fill="#627289"/>
<path d="M102.754 33.6842C103.279 34.0351 103.454 34.5614 103.454 35.2632C103.454 35.7895 103.279 36.3158 103.104 36.6667C102.754 37.0175 102.404 37.3684 102.054 37.5439C101.528 37.7193 101.003 37.8947 100.303 37.8947H98.9026L98.5526 39.6491H96.9771L98.3775 32.9825H101.003C101.528 33.1579 102.229 33.3333 102.754 33.6842ZM101.353 36.3158C101.703 36.1404 101.703 35.7895 101.703 35.2632C101.703 34.9123 101.528 34.7368 101.353 34.5614C101.178 34.386 100.828 34.386 100.478 34.386H99.2527L98.7276 36.6667H99.9529C100.653 36.6667 101.178 36.6667 101.353 36.3158Z" fill="#627289"/>
<path d="M110.106 38.4211H106.955L106.08 39.8246H104.504L108.88 33.1579H110.281L111.856 39.8246H110.281L110.106 38.4211ZM109.756 37.193L109.231 34.5614L107.655 37.193H109.756Z" fill="#627289"/>
<path d="M119.909 36.8421C120.084 37.0175 120.084 37.3684 120.084 37.7193C120.084 38.0702 119.909 38.5965 119.558 38.9474C119.208 39.2982 118.858 39.4737 118.333 39.6491C117.808 39.8246 117.283 40 116.758 40C116.232 40 115.882 40 115.357 39.8246C114.832 39.6491 114.482 39.4737 114.132 39.2982L114.832 38.2456C115.007 38.421 115.357 38.5965 115.707 38.5965C116.057 38.7719 116.408 38.7719 116.758 38.7719C117.283 38.7719 117.633 38.5965 117.983 38.421C118.333 38.2456 118.508 37.8947 118.508 37.7193C118.508 37.3684 118.158 37.0175 117.458 37.0175H115.882L116.057 35.7895H117.633C117.983 35.7895 118.158 35.7895 118.508 35.614C118.858 35.4386 118.858 35.2632 118.858 35.0877C118.858 34.9123 118.683 34.7368 118.508 34.5614C118.333 34.386 117.983 34.386 117.633 34.386C117.283 34.386 117.108 34.386 116.758 34.5614C116.408 34.7368 116.057 34.7368 115.707 34.9123L115.532 33.5088C116.232 33.1579 117.108 32.9825 117.808 32.9825C118.333 32.9825 118.683 32.9825 119.033 33.1579C119.383 33.3333 119.733 33.5088 119.909 33.6842C120.084 33.8596 120.259 34.2105 120.259 34.5614C120.259 34.9123 120.084 35.2632 119.909 35.614C119.733 35.9649 119.383 36.1403 119.033 36.3158C119.383 36.4912 119.733 36.6667 119.909 36.8421Z" fill="#627289"/>
<path d="M129.011 36.8421C129.186 37.0175 129.186 37.3684 129.186 37.7193C129.186 38.4211 128.836 38.9474 128.311 39.2982C127.786 39.6491 127.086 39.8246 126.21 39.8246H122.709L124.11 33.1579H127.261C127.961 33.1579 128.486 33.3333 128.836 33.5088C129.186 33.8597 129.361 34.2105 129.361 34.5614C129.361 34.9123 129.186 35.2632 129.011 35.614C128.836 35.9649 128.486 36.1404 128.136 36.3158C128.661 36.4912 128.836 36.6667 129.011 36.8421ZM127.436 38.4211C127.611 38.2456 127.786 38.0702 127.786 37.7193C127.786 37.193 127.436 37.0175 126.735 37.0175H124.81L124.635 38.5965H126.385C126.735 38.5965 127.086 38.5965 127.436 38.4211ZM125.51 34.386L125.16 35.9649H126.735C127.086 35.9649 127.436 35.9649 127.611 35.7895C127.786 35.614 127.961 35.4386 127.961 35.0877C127.961 34.7368 127.611 34.386 126.911 34.386H125.51Z" fill="#627289"/>
<path d="M133.387 33.1579H134.788L133.912 37.5439L137.939 33.1579H139.339L137.939 39.8246H136.363L137.238 35.4386L133.212 39.8246H131.812L133.387 33.1579Z" fill="#627289"/>
<path d="M147.916 34.386H145.816L144.766 39.8246H143.19L144.24 34.386H142.14L142.315 33.1579H148.091L147.916 34.386Z" fill="#627289"/>
<path d="M151.067 33.1579H152.643L151.767 37.5439L155.794 33.1579H157.194L155.794 39.8246H154.218L155.093 35.4386L151.067 39.8246H149.667L151.067 33.1579Z" fill="#627289"/>
<path d="M161.92 34.386L161.57 35.7895H164.721L164.546 37.0175H161.395L161.22 38.5965H164.896L164.546 39.8246H159.295L160.695 33.1579H165.771L165.596 34.386H161.92Z" fill="#627289"/>
</g>
<defs>
<linearGradient id="paint0_linear" x1="4.23891e-08" y1="12" x2="261.122" y2="-30.3782" gradientUnits="userSpaceOnUse">
<stop stop-color="#6E2AFF"/>
<stop offset="1" stop-color="#7ADBEE"/>
</linearGradient>
<clipPath id="clip0">
<rect width="268" height="40" fill="white"/>
</clipPath>
</defs>
</svg>
