<svg width="375" height="563" viewBox="0 0 375 563" fill="none" xmlns="http://www.w3.org/2000/svg">
<mask id="path-1-inside-1" fill="white">
<path d="M169.831 355.511C169.831 363.033 169.461 370.555 169.954 378.077C170.57 386.832 171.68 395.587 172.912 404.219C173.652 409.522 171.31 411.618 166.379 412.111C164.161 412.358 162.065 412.974 160.093 413.344C160.71 426.539 162.558 439.487 161.696 452.188C160.71 466.246 157.751 480.057 154.793 493.868C152.698 503.609 154.793 512.365 157.998 521.49C160.586 529.012 161.572 537.274 162.558 545.289C162.805 546.769 159.847 549.975 157.998 550.221C152.205 551.085 146.165 550.961 140.249 551.208C134.332 551.455 128.416 551.578 122.5 551.825C110.913 552.441 99.2039 553.181 87.6176 553.674C83.6734 553.798 80.4686 552.811 82.3175 547.509C82.8105 546.152 81.3315 544.179 81.7012 542.823C82.4408 540.603 83.5501 537.397 85.2757 536.657C97.6015 532.095 108.695 525.559 119.295 517.667C121.39 516.064 124.472 515.694 128.662 514.091C128.169 507.432 128.046 500.033 127.06 492.881C123.609 467.725 122.376 442.569 125.704 417.414C125.828 416.674 125.581 415.811 125.458 414.947C122.007 414.454 118.802 413.591 115.597 413.591C110.667 413.468 109.558 411.248 109.681 406.685C109.927 394.971 109.434 383.379 109.804 371.665C110.174 357.484 111.16 343.426 111.653 329.245C112.023 318.64 111.899 307.912 112.392 297.307C112.639 293.114 113.379 289.292 111.16 285.099C109.681 282.263 110.913 278.07 110.913 273.754C105.49 276.097 102.409 274.248 100.56 269.685C100.19 268.822 99.4504 267.835 98.5876 267.465C88.9734 263.643 83.6734 255.134 77.2639 247.982C70.4848 240.583 64.1986 232.691 57.9125 224.922C55.2008 221.593 52.7356 218.017 50.517 214.318C41.1494 198.657 43.6145 189.655 58.652 179.79C65.4312 175.351 72.9499 170.788 77.757 164.623C84.6594 155.621 94.8898 150.811 102.039 142.18C109.311 133.424 119.665 128.985 131.744 127.875C146.042 126.519 153.561 117.394 149.863 100.253C147.767 100.5 145.672 100.747 145.302 100.747C142.467 96.8005 140.249 93.9643 138.4 90.8815C136.304 87.4287 134.332 83.8527 132.114 79.9067C131.251 80.03 129.525 80.3999 128.169 80.5232C126.074 71.3981 123.855 62.3963 122.13 53.2711C121.76 51.2981 123.116 48.9552 123.239 46.7355C123.362 44.5159 122.993 42.4196 122.869 40.2C122.869 39.3368 122.869 37.857 123.362 37.4871C128.416 33.911 128.169 27.2521 131.744 22.5662C134.949 18.2503 139.139 14.6742 142.591 10.8515C145.795 7.15214 151.342 4.43926 156.149 3.57607C163.175 2.34294 170.447 0.493251 177.966 3.20613C181.17 4.31595 185.854 1.35644 190.415 0C189.305 1.72638 188.443 3.08282 186.963 5.30245C190.168 4.8092 193.126 4.31595 196.947 3.69938C195.099 5.05582 193.866 6.04232 192.88 6.65889C195.961 8.87852 199.043 11.2215 202.741 13.811C201.138 14.5509 200.275 15.0442 200.152 15.0442C202.74 19.73 205.699 24.2926 207.794 29.2251C209.52 33.2944 210.382 37.857 211.492 41.6797C207.301 39.9533 207.424 43.1595 208.534 46.4889C211.985 56.3539 212.108 66.3423 211.369 76.8238C210.876 84.4692 206.315 88.4152 201.878 92.9778C199.782 95.1974 197.194 97.1704 195.838 99.76C191.647 107.529 195.592 116.407 204.589 118.504C209.273 119.613 214.327 119.737 219.257 119.737C232.322 119.737 243.662 123.806 253.523 132.438C257.344 135.767 261.658 138.604 265.849 141.563C277.805 150.442 290.254 158.827 301.717 168.322C309.975 175.104 311.331 184.969 305.168 193.724C298.389 203.343 290.5 212.468 282.119 220.853C271.642 231.211 260.055 240.46 248.962 250.325C241.937 256.614 235.034 263.149 227.885 269.438C226.406 270.795 224.434 271.535 222.092 272.768C222.955 274.987 224.187 277.33 224.804 279.797C225.42 281.893 226.283 285.222 225.42 286.086C220.736 290.402 224.064 294.841 224.311 299.28C225.05 311.118 225.543 322.956 226.653 334.671C227.022 339.48 227.392 344.906 229.98 348.605C234.295 354.771 232.446 361.43 233.801 367.719C234.911 372.528 235.527 377.46 236.02 382.27C236.267 384.366 235.527 386.585 235.157 388.805C234.788 391.518 233.308 394.601 234.048 397.067C237.006 407.055 235.527 408.535 224.064 411.865C224.557 414.577 224.557 417.537 225.543 420.127C231.213 435.664 229.98 451.571 228.625 467.602C227.515 481.66 226.776 495.841 226.653 510.022C226.529 517.914 227.885 525.806 228.871 533.698C228.994 535.177 229.98 536.78 231.09 537.767C236.39 542.576 237.129 548.865 236.267 555.277C236.02 557.374 233.678 560.21 231.706 560.826C222.462 563.786 213.094 563.663 203.85 560.826C197.564 558.977 196.578 553.428 197.317 548.372C198.426 539.987 201.385 531.725 202.371 523.339C203.357 515.077 203.727 506.692 202.741 498.43C200.892 481.783 197.81 465.259 195.468 448.612C194.605 442.569 194.482 436.404 193.989 430.238C193.373 423.086 192.017 416.797 183.759 414.084C181.663 413.344 180.061 408.042 180.184 404.836C180.677 387.695 178.582 371.048 169.831 355.511ZM269.423 184.229C265.849 182.503 261.904 178.68 258.576 179.173C253.276 179.913 250.688 177.57 247.36 174.857C242.923 171.281 239.102 166.226 233.185 167.829C229.487 179.79 226.16 190.888 222.462 201.863C217.901 215.674 213.957 229.485 217.408 244.159C223.201 242.31 229.118 240.583 234.788 238.364C237.129 237.5 239.718 235.774 240.95 233.678C250.688 217.277 259.932 200.753 269.423 184.229ZM113.009 180.9C101.546 187.559 89.4665 194.588 77.3872 201.616C83.9199 213.824 90.4525 225.662 96.4922 237.624C100.067 244.776 105.243 248.229 113.009 247.735C113.009 225.169 113.009 202.603 113.009 180.9Z"/>
</mask>
<path d="M169.831 355.511C169.831 363.033 169.461 370.555 169.954 378.077C170.57 386.832 171.68 395.587 172.912 404.219C173.652 409.522 171.31 411.618 166.379 412.111C164.161 412.358 162.065 412.974 160.093 413.344C160.71 426.539 162.558 439.487 161.696 452.188C160.71 466.246 157.751 480.057 154.793 493.868C152.698 503.609 154.793 512.365 157.998 521.49C160.586 529.012 161.572 537.274 162.558 545.289C162.805 546.769 159.847 549.975 157.998 550.221C152.205 551.085 146.165 550.961 140.249 551.208C134.332 551.455 128.416 551.578 122.5 551.825C110.913 552.441 99.2039 553.181 87.6176 553.674C83.6734 553.798 80.4686 552.811 82.3175 547.509C82.8105 546.152 81.3315 544.179 81.7012 542.823C82.4408 540.603 83.5501 537.397 85.2757 536.657C97.6015 532.095 108.695 525.559 119.295 517.667C121.39 516.064 124.472 515.694 128.662 514.091C128.169 507.432 128.046 500.033 127.06 492.881C123.609 467.725 122.376 442.569 125.704 417.414C125.828 416.674 125.581 415.811 125.458 414.947C122.007 414.454 118.802 413.591 115.597 413.591C110.667 413.468 109.558 411.248 109.681 406.685C109.927 394.971 109.434 383.379 109.804 371.665C110.174 357.484 111.16 343.426 111.653 329.245C112.023 318.64 111.899 307.912 112.392 297.307C112.639 293.114 113.379 289.292 111.16 285.099C109.681 282.263 110.913 278.07 110.913 273.754C105.49 276.097 102.409 274.248 100.56 269.685C100.19 268.822 99.4504 267.835 98.5876 267.465C88.9734 263.643 83.6734 255.134 77.2639 247.982C70.4848 240.583 64.1986 232.691 57.9125 224.922C55.2008 221.593 52.7356 218.017 50.517 214.318C41.1494 198.657 43.6145 189.655 58.652 179.79C65.4312 175.351 72.9499 170.788 77.757 164.623C84.6594 155.621 94.8898 150.811 102.039 142.18C109.311 133.424 119.665 128.985 131.744 127.875C146.042 126.519 153.561 117.394 149.863 100.253C147.767 100.5 145.672 100.747 145.302 100.747C142.467 96.8005 140.249 93.9643 138.4 90.8815C136.304 87.4287 134.332 83.8527 132.114 79.9067C131.251 80.03 129.525 80.3999 128.169 80.5232C126.074 71.3981 123.855 62.3963 122.13 53.2711C121.76 51.2981 123.116 48.9552 123.239 46.7355C123.362 44.5159 122.993 42.4196 122.869 40.2C122.869 39.3368 122.869 37.857 123.362 37.4871C128.416 33.911 128.169 27.2521 131.744 22.5662C134.949 18.2503 139.139 14.6742 142.591 10.8515C145.795 7.15214 151.342 4.43926 156.149 3.57607C163.175 2.34294 170.447 0.493251 177.966 3.20613C181.17 4.31595 185.854 1.35644 190.415 0C189.305 1.72638 188.443 3.08282 186.963 5.30245C190.168 4.8092 193.126 4.31595 196.947 3.69938C195.099 5.05582 193.866 6.04232 192.88 6.65889C195.961 8.87852 199.043 11.2215 202.741 13.811C201.138 14.5509 200.275 15.0442 200.152 15.0442C202.74 19.73 205.699 24.2926 207.794 29.2251C209.52 33.2944 210.382 37.857 211.492 41.6797C207.301 39.9533 207.424 43.1595 208.534 46.4889C211.985 56.3539 212.108 66.3423 211.369 76.8238C210.876 84.4692 206.315 88.4152 201.878 92.9778C199.782 95.1974 197.194 97.1704 195.838 99.76C191.647 107.529 195.592 116.407 204.589 118.504C209.273 119.613 214.327 119.737 219.257 119.737C232.322 119.737 243.662 123.806 253.523 132.438C257.344 135.767 261.658 138.604 265.849 141.563C277.805 150.442 290.254 158.827 301.717 168.322C309.975 175.104 311.331 184.969 305.168 193.724C298.389 203.343 290.5 212.468 282.119 220.853C271.642 231.211 260.055 240.46 248.962 250.325C241.937 256.614 235.034 263.149 227.885 269.438C226.406 270.795 224.434 271.535 222.092 272.768C222.955 274.987 224.187 277.33 224.804 279.797C225.42 281.893 226.283 285.222 225.42 286.086C220.736 290.402 224.064 294.841 224.311 299.28C225.05 311.118 225.543 322.956 226.653 334.671C227.022 339.48 227.392 344.906 229.98 348.605C234.295 354.771 232.446 361.43 233.801 367.719C234.911 372.528 235.527 377.46 236.02 382.27C236.267 384.366 235.527 386.585 235.157 388.805C234.788 391.518 233.308 394.601 234.048 397.067C237.006 407.055 235.527 408.535 224.064 411.865C224.557 414.577 224.557 417.537 225.543 420.127C231.213 435.664 229.98 451.571 228.625 467.602C227.515 481.66 226.776 495.841 226.653 510.022C226.529 517.914 227.885 525.806 228.871 533.698C228.994 535.177 229.98 536.78 231.09 537.767C236.39 542.576 237.129 548.865 236.267 555.277C236.02 557.374 233.678 560.21 231.706 560.826C222.462 563.786 213.094 563.663 203.85 560.826C197.564 558.977 196.578 553.428 197.317 548.372C198.426 539.987 201.385 531.725 202.371 523.339C203.357 515.077 203.727 506.692 202.741 498.43C200.892 481.783 197.81 465.259 195.468 448.612C194.605 442.569 194.482 436.404 193.989 430.238C193.373 423.086 192.017 416.797 183.759 414.084C181.663 413.344 180.061 408.042 180.184 404.836C180.677 387.695 178.582 371.048 169.831 355.511ZM269.423 184.229C265.849 182.503 261.904 178.68 258.576 179.173C253.276 179.913 250.688 177.57 247.36 174.857C242.923 171.281 239.102 166.226 233.185 167.829C229.487 179.79 226.16 190.888 222.462 201.863C217.901 215.674 213.957 229.485 217.408 244.159C223.201 242.31 229.118 240.583 234.788 238.364C237.129 237.5 239.718 235.774 240.95 233.678C250.688 217.277 259.932 200.753 269.423 184.229ZM113.009 180.9C101.546 187.559 89.4665 194.588 77.3872 201.616C83.9199 213.824 90.4525 225.662 96.4922 237.624C100.067 244.776 105.243 248.229 113.009 247.735C113.009 225.169 113.009 202.603 113.009 180.9Z" fill="#0C1828" stroke="#23354F" stroke-width="2" mask="url(#path-1-inside-1)"/>
<path d="M3.5 536H173V288" stroke="#627289" stroke-dasharray="4 4"/>
<path d="M1.5 470H147.895V259H173" stroke="url(#paint0_linear)" stroke-dasharray="4 4"/>
<path d="M0 404H123.793V230H174" stroke="#627289" stroke-dasharray="4 4"/>
<path d="M0 337H98.6888V202H174" stroke="#627289" stroke-dasharray="4 4"/>
<path d="M371.5 221H200.5V174H173.5" stroke="#627289" stroke-dasharray="4 4"/>
<path d="M373 151H218.612V146H174" stroke="#627289" stroke-dasharray="4 4"/>
<path d="M374 85H218V119H173" stroke="#627289" stroke-dasharray="4 4"/>
<path d="M375 18H195.055V90H173" stroke="#627289" stroke-dasharray="4 4"/>
<circle cx="173" cy="90" r="5" fill="#182B44"/>
<circle cx="173" cy="118" r="5" fill="#182B44"/>
<circle cx="173" cy="146" r="5" fill="#182B44"/>
<circle cx="173" cy="174" r="5" fill="#182B44"/>
<circle cx="173" cy="202" r="5" fill="#182B44"/>
<circle cx="173" cy="230" r="5" fill="#182B44"/>
<circle cx="173" cy="258" r="5" fill="#182B44"/>
<circle cx="173" cy="286" r="5" fill="#182B44"/>
<defs>
<linearGradient id="paint0_linear" x1="167.5" y1="259" x2="3.59231" y2="471.995" gradientUnits="userSpaceOnUse">
<stop stop-color="#627289"/>
<stop offset="1" stop-color="#7ADBEE"/>
</linearGradient>
</defs>
</svg>
