<svg width="272" height="386" viewBox="0 0 272 386" fill="none" xmlns="http://www.w3.org/2000/svg">
<g opacity="0.3">
<circle cx="9" cy="3" r="3" fill="#BECBDF"/>
<circle cx="29" cy="3" r="3" fill="#BECBDF"/>
<circle cx="49" cy="3" r="3" fill="#BECBDF"/>
<circle cx="69" cy="3" r="3" fill="#BECBDF"/>
<circle cx="89" cy="3" r="3" fill="#BECBDF"/>
<circle cx="109" cy="3" r="3" fill="#BECBDF"/>
<circle cx="129" cy="3" r="3" fill="#BECBDF"/>
<circle cx="149" cy="3" r="3" fill="#BECBDF"/>
<circle cx="169" cy="3" r="3" fill="#BECBDF"/>
<circle cx="189" cy="3" r="3" fill="#BECBDF"/>
<circle cx="209" cy="3" r="3" fill="#BECBDF"/>
<circle cx="229" cy="3" r="3" fill="#BECBDF"/>
<circle cx="249" cy="3" r="3" fill="#BECBDF"/>
<circle cx="269" cy="3" r="3" fill="#BECBDF"/>
<circle cx="9" cy="23" r="3" fill="#BECBDF"/>
<circle cx="29" cy="23" r="3" fill="#BECBDF"/>
<circle cx="49" cy="23" r="3" fill="#BECBDF"/>
<circle cx="69" cy="23" r="3" fill="#BECBDF"/>
<circle cx="89" cy="23" r="3" fill="#BECBDF"/>
<circle cx="109" cy="23" r="3" fill="#BECBDF"/>
<circle cx="129" cy="23" r="3" fill="#BECBDF"/>
<circle cx="149" cy="23" r="3" fill="#BECBDF"/>
<circle cx="169" cy="23" r="3" fill="#BECBDF"/>
<circle cx="189" cy="23" r="3" fill="#BECBDF"/>
<circle cx="209" cy="23" r="3" fill="#BECBDF"/>
<circle cx="229" cy="23" r="3" fill="#BECBDF"/>
<circle cx="249" cy="23" r="3" fill="#BECBDF"/>
<circle cx="269" cy="23" r="3" fill="#BECBDF"/>
<circle cx="9" cy="43" r="3" fill="#BECBDF"/>
<circle cx="29" cy="43" r="3" fill="#BECBDF"/>
<circle cx="49" cy="43" r="3" fill="#BECBDF"/>
<circle cx="69" cy="43" r="3" fill="#BECBDF"/>
<circle cx="89" cy="43" r="3" fill="#BECBDF"/>
<circle cx="109" cy="43" r="3" fill="#BECBDF"/>
<circle cx="129" cy="43" r="3" fill="#BECBDF"/>
<circle cx="149" cy="43" r="3" fill="#BECBDF"/>
<circle cx="169" cy="43" r="3" fill="#BECBDF"/>
<circle cx="189" cy="43" r="3" fill="#BECBDF"/>
<circle cx="209" cy="43" r="3" fill="#BECBDF"/>
<circle cx="229" cy="43" r="3" fill="#BECBDF"/>
<circle cx="249" cy="43" r="3" fill="#BECBDF"/>
<circle cx="269" cy="43" r="3" fill="#BECBDF"/>
<circle cx="9" cy="63" r="3" fill="#BECBDF"/>
<circle cx="29" cy="63" r="3" fill="#BECBDF"/>
<circle cx="49" cy="63" r="3" fill="#BECBDF"/>
<circle cx="69" cy="63" r="3" fill="#BECBDF"/>
<circle cx="89" cy="63" r="3" fill="#BECBDF"/>
<circle cx="109" cy="63" r="3" fill="#BECBDF"/>
<circle cx="129" cy="63" r="3" fill="#BECBDF"/>
<circle cx="149" cy="63" r="3" fill="#BECBDF"/>
<circle cx="169" cy="63" r="3" fill="#BECBDF"/>
<circle cx="189" cy="63" r="3" fill="#BECBDF"/>
<circle cx="209" cy="63" r="3" fill="#BECBDF"/>
<circle cx="229" cy="63" r="3" fill="#BECBDF"/>
<circle cx="249" cy="63" r="3" fill="#BECBDF"/>
<circle cx="269" cy="63" r="3" fill="#BECBDF"/>
<circle cx="9" cy="83" r="3" fill="#BECBDF"/>
<circle cx="29" cy="83" r="3" fill="#BECBDF"/>
<circle cx="49" cy="83" r="3" fill="#BECBDF"/>
<circle cx="69" cy="83" r="3" fill="#BECBDF"/>
<circle cx="89" cy="83" r="3" fill="#BECBDF"/>
<circle cx="109" cy="83" r="3" fill="#BECBDF"/>
<circle cx="129" cy="83" r="3" fill="#BECBDF"/>
<circle cx="149" cy="83" r="3" fill="#BECBDF"/>
<circle cx="169" cy="83" r="3" fill="#BECBDF"/>
<circle cx="189" cy="83" r="3" fill="#BECBDF"/>
<circle cx="209" cy="83" r="3" fill="#BECBDF"/>
<circle cx="229" cy="83" r="3" fill="#BECBDF"/>
<circle cx="249" cy="83" r="3" fill="#BECBDF"/>
<circle cx="269" cy="83" r="3" fill="#BECBDF"/>
<circle cx="9" cy="103" r="3" fill="#BECBDF"/>
<circle cx="29" cy="103" r="3" fill="#BECBDF"/>
<circle cx="49" cy="103" r="3" fill="#BECBDF"/>
<circle cx="69" cy="103" r="3" fill="#BECBDF"/>
<circle cx="89" cy="103" r="3" fill="#BECBDF"/>
<circle cx="109" cy="103" r="3" fill="#BECBDF"/>
<circle cx="129" cy="103" r="3" fill="#BECBDF"/>
<circle cx="149" cy="103" r="3" fill="#BECBDF"/>
<circle cx="169" cy="103" r="3" fill="#BECBDF"/>
<circle cx="189" cy="103" r="3" fill="#BECBDF"/>
<circle cx="209" cy="103" r="3" fill="#BECBDF"/>
<circle cx="229" cy="103" r="3" fill="#BECBDF"/>
<circle cx="249" cy="103" r="3" fill="#BECBDF"/>
<circle cx="269" cy="103" r="3" fill="#BECBDF"/>
<circle cx="9" cy="123" r="3" fill="#BECBDF"/>
<circle cx="29" cy="123" r="3" fill="#BECBDF"/>
<circle cx="49" cy="123" r="3" fill="#BECBDF"/>
<circle cx="69" cy="123" r="3" fill="#BECBDF"/>
<circle cx="89" cy="123" r="3" fill="#BECBDF"/>
<circle cx="109" cy="123" r="3" fill="#BECBDF"/>
<circle cx="129" cy="123" r="3" fill="#BECBDF"/>
<circle cx="149" cy="123" r="3" fill="#BECBDF"/>
<circle cx="169" cy="123" r="3" fill="#BECBDF"/>
<circle cx="189" cy="123" r="3" fill="#BECBDF"/>
<circle cx="209" cy="123" r="3" fill="#BECBDF"/>
<circle cx="229" cy="123" r="3" fill="#BECBDF"/>
<circle cx="249" cy="123" r="3" fill="#BECBDF"/>
<circle cx="269" cy="123" r="3" fill="#BECBDF"/>
<circle cx="9" cy="143" r="3" fill="#BECBDF"/>
<circle cx="29" cy="143" r="3" fill="#BECBDF"/>
<circle cx="49" cy="143" r="3" fill="#BECBDF"/>
<circle cx="69" cy="143" r="3" fill="#BECBDF"/>
<circle cx="89" cy="143" r="3" fill="#BECBDF"/>
<circle cx="109" cy="143" r="3" fill="#BECBDF"/>
<circle cx="129" cy="143" r="3" fill="#BECBDF"/>
<circle cx="149" cy="143" r="3" fill="#BECBDF"/>
<circle cx="169" cy="143" r="3" fill="#BECBDF"/>
<circle cx="189" cy="143" r="3" fill="#BECBDF"/>
<circle cx="209" cy="143" r="3" fill="#BECBDF"/>
<circle cx="229" cy="143" r="3" fill="#BECBDF"/>
<circle cx="249" cy="143" r="3" fill="#BECBDF"/>
<circle cx="269" cy="143" r="3" fill="#BECBDF"/>
<circle cx="9" cy="163" r="3" fill="#BECBDF"/>
<circle cx="29" cy="163" r="3" fill="#BECBDF"/>
<circle cx="49" cy="163" r="3" fill="#BECBDF"/>
<circle cx="69" cy="163" r="3" fill="#BECBDF"/>
<circle cx="89" cy="163" r="3" fill="#BECBDF"/>
<circle cx="109" cy="163" r="3" fill="#BECBDF"/>
<circle cx="129" cy="163" r="3" fill="#BECBDF"/>
<circle cx="149" cy="163" r="3" fill="#BECBDF"/>
<circle cx="169" cy="163" r="3" fill="#BECBDF"/>
<circle cx="189" cy="163" r="3" fill="#BECBDF"/>
<circle cx="209" cy="163" r="3" fill="#BECBDF"/>
<circle cx="229" cy="163" r="3" fill="#BECBDF"/>
<circle cx="249" cy="163" r="3" fill="#BECBDF"/>
<circle cx="269" cy="163" r="3" fill="#BECBDF"/>
<circle cx="9" cy="183" r="3" fill="#BECBDF"/>
<circle cx="29" cy="183" r="3" fill="#BECBDF"/>
<circle cx="49" cy="183" r="3" fill="#BECBDF"/>
<circle cx="69" cy="183" r="3" fill="#BECBDF"/>
<circle cx="89" cy="183" r="3" fill="#BECBDF"/>
<circle cx="109" cy="183" r="3" fill="#BECBDF"/>
<circle cx="129" cy="183" r="3" fill="#BECBDF"/>
<circle cx="149" cy="183" r="3" fill="#BECBDF"/>
<circle cx="169" cy="183" r="3" fill="#BECBDF"/>
<circle cx="189" cy="183" r="3" fill="#BECBDF"/>
<circle cx="209" cy="183" r="3" fill="#BECBDF"/>
<circle cx="229" cy="183" r="3" fill="#BECBDF"/>
<circle cx="249" cy="183" r="3" fill="#BECBDF"/>
<circle cx="269" cy="183" r="3" fill="#BECBDF"/>
<circle cx="9" cy="203" r="3" fill="#BECBDF"/>
<circle cx="29" cy="203" r="3" fill="#BECBDF"/>
<circle cx="49" cy="203" r="3" fill="#BECBDF"/>
<circle cx="69" cy="203" r="3" fill="#BECBDF"/>
<circle cx="89" cy="203" r="3" fill="#BECBDF"/>
<circle cx="109" cy="203" r="3" fill="#BECBDF"/>
<circle cx="129" cy="203" r="3" fill="#BECBDF"/>
<circle cx="149" cy="203" r="3" fill="#BECBDF"/>
<circle cx="169" cy="203" r="3" fill="#BECBDF"/>
<circle cx="189" cy="203" r="3" fill="#BECBDF"/>
<circle cx="209" cy="203" r="3" fill="#BECBDF"/>
<circle cx="229" cy="203" r="3" fill="#BECBDF"/>
<circle cx="249" cy="203" r="3" fill="#BECBDF"/>
<circle cx="269" cy="203" r="3" fill="#BECBDF"/>
<circle cx="9" cy="223" r="3" fill="#BECBDF"/>
<circle cx="29" cy="223" r="3" fill="#BECBDF"/>
<circle cx="49" cy="223" r="3" fill="#BECBDF"/>
<circle cx="69" cy="223" r="3" fill="#BECBDF"/>
<circle cx="89" cy="223" r="3" fill="#BECBDF"/>
<circle cx="109" cy="223" r="3" fill="#BECBDF"/>
<circle cx="129" cy="223" r="3" fill="#BECBDF"/>
<circle cx="149" cy="223" r="3" fill="#BECBDF"/>
<circle cx="169" cy="223" r="3" fill="#BECBDF"/>
<circle cx="189" cy="223" r="3" fill="#BECBDF"/>
<circle cx="209" cy="223" r="3" fill="#BECBDF"/>
<circle cx="229" cy="223" r="3" fill="#BECBDF"/>
<circle cx="249" cy="223" r="3" fill="#BECBDF"/>
<circle cx="269" cy="223" r="3" fill="#BECBDF"/>
<circle cx="9" cy="243" r="3" fill="#BECBDF"/>
<circle cx="29" cy="243" r="3" fill="#BECBDF"/>
<circle cx="49" cy="243" r="3" fill="#BECBDF"/>
<circle cx="69" cy="243" r="3" fill="#BECBDF"/>
<circle cx="89" cy="243" r="3" fill="#BECBDF"/>
<circle cx="109" cy="243" r="3" fill="#BECBDF"/>
<circle cx="129" cy="243" r="3" fill="#BECBDF"/>
<circle cx="149" cy="243" r="3" fill="#BECBDF"/>
<circle cx="169" cy="243" r="3" fill="#BECBDF"/>
<circle cx="189" cy="243" r="3" fill="#BECBDF"/>
<circle cx="209" cy="243" r="3" fill="#BECBDF"/>
<circle cx="229" cy="243" r="3" fill="#BECBDF"/>
<circle cx="249" cy="243" r="3" fill="#BECBDF"/>
<circle cx="269" cy="243" r="3" fill="#BECBDF"/>
<circle cx="9" cy="263" r="3" fill="#BECBDF"/>
<circle cx="29" cy="263" r="3" fill="#BECBDF"/>
<circle cx="49" cy="263" r="3" fill="#BECBDF"/>
<circle cx="69" cy="263" r="3" fill="#BECBDF"/>
<circle cx="89" cy="263" r="3" fill="#BECBDF"/>
<circle cx="109" cy="263" r="3" fill="#BECBDF"/>
<circle cx="129" cy="263" r="3" fill="#BECBDF"/>
<circle cx="149" cy="263" r="3" fill="#BECBDF"/>
<circle cx="169" cy="263" r="3" fill="#BECBDF"/>
<circle cx="189" cy="263" r="3" fill="#BECBDF"/>
<circle cx="209" cy="263" r="3" fill="#BECBDF"/>
<circle cx="229" cy="263" r="3" fill="#BECBDF"/>
<circle cx="249" cy="263" r="3" fill="#BECBDF"/>
<circle cx="269" cy="263" r="3" fill="#BECBDF"/>
<circle cx="9" cy="283" r="3" fill="#BECBDF"/>
<circle cx="29" cy="283" r="3" fill="#BECBDF"/>
<circle cx="49" cy="283" r="3" fill="#BECBDF"/>
<circle cx="69" cy="283" r="3" fill="#BECBDF"/>
<circle cx="89" cy="283" r="3" fill="#BECBDF"/>
<circle cx="109" cy="283" r="3" fill="#BECBDF"/>
<circle cx="129" cy="283" r="3" fill="#BECBDF"/>
<circle cx="149" cy="283" r="3" fill="#BECBDF"/>
<circle cx="169" cy="283" r="3" fill="#BECBDF"/>
<circle cx="189" cy="283" r="3" fill="#BECBDF"/>
<circle cx="209" cy="283" r="3" fill="#BECBDF"/>
<circle cx="229" cy="283" r="3" fill="#BECBDF"/>
<circle cx="249" cy="283" r="3" fill="#BECBDF"/>
<circle cx="269" cy="283" r="3" fill="#BECBDF"/>
<circle cx="9" cy="303" r="3" fill="#BECBDF"/>
<circle cx="29" cy="303" r="3" fill="#BECBDF"/>
<circle cx="49" cy="303" r="3" fill="#BECBDF"/>
<circle cx="69" cy="303" r="3" fill="#BECBDF"/>
<circle cx="89" cy="303" r="3" fill="#BECBDF"/>
<circle cx="109" cy="303" r="3" fill="#BECBDF"/>
<circle cx="129" cy="303" r="3" fill="#BECBDF"/>
<circle cx="149" cy="303" r="3" fill="#BECBDF"/>
<circle cx="169" cy="303" r="3" fill="#BECBDF"/>
<circle cx="189" cy="303" r="3" fill="#BECBDF"/>
<circle cx="209" cy="303" r="3" fill="#BECBDF"/>
<circle cx="229" cy="303" r="3" fill="#BECBDF"/>
<circle cx="249" cy="303" r="3" fill="#BECBDF"/>
<circle cx="269" cy="303" r="3" fill="#BECBDF"/>
<circle cx="9" cy="323" r="3" fill="#BECBDF"/>
<circle cx="29" cy="323" r="3" fill="#BECBDF"/>
<circle cx="49" cy="323" r="3" fill="#BECBDF"/>
<circle cx="69" cy="323" r="3" fill="#BECBDF"/>
<circle cx="89" cy="323" r="3" fill="#BECBDF"/>
<circle cx="109" cy="323" r="3" fill="#BECBDF"/>
<circle cx="129" cy="323" r="3" fill="#BECBDF"/>
<circle cx="149" cy="323" r="3" fill="#BECBDF"/>
<circle cx="169" cy="323" r="3" fill="#BECBDF"/>
<circle cx="189" cy="323" r="3" fill="#BECBDF"/>
<circle cx="209" cy="323" r="3" fill="#BECBDF"/>
<circle cx="229" cy="323" r="3" fill="#BECBDF"/>
<circle cx="249" cy="323" r="3" fill="#BECBDF"/>
<circle cx="269" cy="323" r="3" fill="#BECBDF"/>
<circle cx="9" cy="343" r="3" fill="#BECBDF"/>
<circle cx="29" cy="343" r="3" fill="#BECBDF"/>
<circle cx="49" cy="343" r="3" fill="#BECBDF"/>
<circle cx="69" cy="343" r="3" fill="#BECBDF"/>
<circle cx="89" cy="343" r="3" fill="#BECBDF"/>
<circle cx="109" cy="343" r="3" fill="#BECBDF"/>
<circle cx="129" cy="343" r="3" fill="#BECBDF"/>
<circle cx="149" cy="343" r="3" fill="#BECBDF"/>
<circle cx="169" cy="343" r="3" fill="#BECBDF"/>
<circle cx="189" cy="343" r="3" fill="#BECBDF"/>
<circle cx="209" cy="343" r="3" fill="#BECBDF"/>
<circle cx="229" cy="343" r="3" fill="#BECBDF"/>
<circle cx="249" cy="343" r="3" fill="#BECBDF"/>
<circle cx="269" cy="343" r="3" fill="#BECBDF"/>
<circle cx="9" cy="363" r="3" fill="#BECBDF"/>
<circle cx="29" cy="363" r="3" fill="#BECBDF"/>
<circle cx="49" cy="363" r="3" fill="#BECBDF"/>
<circle cx="69" cy="363" r="3" fill="#BECBDF"/>
<circle cx="89" cy="363" r="3" fill="#BECBDF"/>
<circle cx="109" cy="363" r="3" fill="#BECBDF"/>
<circle cx="129" cy="363" r="3" fill="#BECBDF"/>
<circle cx="149" cy="363" r="3" fill="#BECBDF"/>
<circle cx="169" cy="363" r="3" fill="#BECBDF"/>
<circle cx="189" cy="363" r="3" fill="#BECBDF"/>
<circle cx="209" cy="363" r="3" fill="#BECBDF"/>
<circle cx="229" cy="363" r="3" fill="#BECBDF"/>
<circle cx="249" cy="363" r="3" fill="#BECBDF"/>
<circle cx="269" cy="363" r="3" fill="#BECBDF"/>
<circle cx="9" cy="383" r="3" fill="#BECBDF"/>
<circle cx="29" cy="383" r="3" fill="#BECBDF"/>
<circle cx="49" cy="383" r="3" fill="#BECBDF"/>
<circle cx="69" cy="383" r="3" fill="#BECBDF"/>
<circle cx="89" cy="383" r="3" fill="#BECBDF"/>
<circle cx="109" cy="383" r="3" fill="#BECBDF"/>
<circle cx="129" cy="383" r="3" fill="#BECBDF"/>
<circle cx="149" cy="383" r="3" fill="#BECBDF"/>
<circle cx="169" cy="383" r="3" fill="#BECBDF"/>
<circle cx="189" cy="383" r="3" fill="#BECBDF"/>
<circle cx="209" cy="383" r="3" fill="#BECBDF"/>
<circle cx="229" cy="383" r="3" fill="#BECBDF"/>
<circle cx="249" cy="383" r="3" fill="#BECBDF"/>
<circle cx="269" cy="383" r="3" fill="#BECBDF"/>
</g>
</svg>
