<svg width="37" height="37" viewBox="0 0 37 37" fill="none" xmlns="http://www.w3.org/2000/svg">
    <path d="M37 18.5C37 28.7173 28.7173 37 18.5 37C8.28273 37 0 28.7173 0 18.5C0 8.28273 8.28273 0 18.5 0C28.7173 0 37 8.28273 37 18.5Z" fill="#66D7EE"/>
    <path d="M13.3483 27.2383C12.8951 27.4708 12.3809 27.0634 12.4725 26.5433L13.4469 20.9901L9.31081 17.05C8.92455 16.6814 9.12531 16.0075 9.64306 15.9347L15.3935 15.1176L17.9576 10.0375C18.1889 9.57962 18.8147 9.57962 19.0459 10.0375L21.61 15.1176L27.3605 15.9347C27.8782 16.0075 28.079 16.6814 27.6916 17.05L23.5566 20.9901L24.531 26.5433C24.6226 27.0634 24.1084 27.4708 23.6552 27.2383L18.5 24.5897L13.3472 27.2383H13.3483Z" fill="#132238"/>
</svg>
